<svg width="75" height="75" viewBox="0 0 75 75" fill="none" xmlns="http://www.w3.org/2000/svg">
<path d="M31.0205 43.9444C25.7331 40.2682 26.2249 33.068 30.1948 28.3943C30.7051 27.7934 31.2127 27.1902 31.6372 26.6879C30.6909 25.4304 29.409 24.2025 28.7025 22.7034C26.0788 17.1367 28.2355 10.6594 35.6037 9.14407C40.2463 8.18933 45.113 12.1177 45.4276 16.8456C45.6198 19.7331 44.8111 22.2311 42.9931 24.3862C42.0242 25.5348 41.9683 26.1653 43.2714 27.1951C47.2139 30.3107 48.53 35.4701 46.6691 39.6141C44.0037 45.5497 36.5702 47.6432 31.0205 43.9444ZM41.0855 30.934C38.0462 28.1768 36.6714 28.2497 34.1226 30.4323C33.1476 31.2673 32.6017 32.7114 32.1063 33.9744C31.2499 36.158 31.9973 38.7692 33.6628 40.1029C35.3548 41.4577 38.0216 41.5544 40.047 40.4986C42.7082 39.1115 44.3555 34.6629 41.0855 30.934ZM40.4158 20.8581C41.5255 18.6892 41.8138 16.5189 39.97 14.6259C38.145 12.7525 35.0271 12.9338 33.3131 14.8681C31.5396 16.8694 31.9083 20.6876 34.0577 22.5809C35.9616 24.2579 37.8757 23.8958 39.9423 21.4707C40.055 21.3385 40.1864 21.2223 40.4158 20.8581Z" fill="#E70D3D"/>
<path d="M13.3414 14.6859C14.178 13.5989 15.0143 12.5115 15.8514 11.4248C16.6957 10.3288 17.794 9.73825 19.1476 10.1996C20.4646 10.6484 20.6284 11.8696 20.641 13.0691C20.7111 19.7399 20.7539 26.411 20.838 33.0817C20.868 35.4594 21.016 37.8355 21.0556 40.2133C21.0782 41.5701 21.5152 42.3488 23.0315 41.9953C23.1433 41.9692 23.2619 41.9681 23.3776 41.9632C25.2284 41.8853 26.7294 42.7433 26.7946 43.9151C26.8564 45.0246 25.4317 46.3658 23.8059 46.6326C20.6612 47.1487 17.5143 47.659 14.3564 48.0826C13.5282 48.1937 12.5315 48.2119 11.8407 47.8438C11.1993 47.5021 10.4291 46.5338 10.5033 45.9397C10.5937 45.2157 11.3819 44.3598 12.0923 43.9807C13.3286 43.3209 15.2176 43.3482 15.9344 42.4048C16.6207 41.5014 16.2105 39.7295 16.2018 38.3398C16.1644 32.3642 16.1002 26.3889 16.0345 20.4136C16.0303 20.0357 15.9295 19.6589 15.819 18.9125C14.5158 20.0739 13.5045 21.1469 12.3185 21.9672C11.6186 22.4512 10.6177 22.7935 9.79754 22.7164C9.15107 22.6557 8.29953 21.9668 8.05241 21.3509C7.85254 20.8529 8.25963 19.9188 8.6775 19.4066C9.4659 18.4403 10.4559 17.6384 11.5921 16.72C11.9658 16.426 12.1095 16.1802 12.2532 15.9344C12.2532 15.9344 12.2782 15.7636 12.4541 15.7112C12.8672 15.3346 13.1043 15.0102 13.3414 14.6859ZM12.5973 19.6268C13.898 18.1962 15.0617 16.6864 15.4608 14.7106C13.4145 15.899 12.003 17.5986 10.8623 20.1059C11.5867 19.9621 12.002 19.8796 12.5973 19.6268ZM18.9276 24.5266C18.8963 23.9531 18.8649 23.3796 18.8336 22.806C17.012 24.9754 18.7296 27.2732 18.1572 29.4856C18.418 29.4944 18.6788 29.5031 18.9396 29.5119C18.9396 27.951 18.9396 26.3901 18.9276 24.5266Z" fill="#E70D3D"/>
<path d="M39.4395 63.5678C33.6537 65.2951 27.998 66.9726 22.335 68.625C21.0402 69.0029 19.3617 69.4734 18.8218 67.9238C18.3038 66.437 19.9531 65.8086 21.1182 65.4141C25.057 64.0807 28.9711 62.5871 33.01 61.6545C41.9731 59.5848 51.0002 57.788 60.0208 55.9778C60.8619 55.809 61.843 56.3374 62.8515 56.5628C61.9464 58.5647 60.4067 58.4058 59.116 58.7238C52.6022 60.329 46.0838 61.9157 39.4395 63.5678Z" fill="#E70D3D"/>
<path d="M64.5721 24.6253C65.4115 25.2564 66.2271 25.7588 66.754 26.4739C66.9119 26.6883 66.3916 27.7728 65.9581 27.9723C65.1516 28.3435 64.1793 28.3505 63.2784 28.5216C60.0499 29.1347 60.0553 29.1367 60.0587 32.5212C60.0596 33.3901 60.2677 34.3753 59.9308 35.0972C59.5486 35.9162 58.7545 36.8259 57.9561 37.0538C57.5282 37.1759 56.336 36.045 56.1494 35.3115C55.6555 33.3709 55.5217 31.3387 55.2064 29.0679C53.8713 29.0679 52.5468 29.128 51.2305 29.0498C50.0769 28.9812 48.8144 28.5564 48.8179 27.2729C48.8214 25.9934 49.889 25.4401 51.2377 25.3234C55.124 24.9869 55.0887 24.9378 55.2165 20.9709C55.2512 19.8935 55.3761 18.7603 55.7697 17.7767C55.9825 17.2448 56.8695 16.6451 57.4165 16.6778C57.9827 16.7116 58.8269 17.3828 58.9828 17.9352C59.354 19.2498 59.4361 20.6551 59.5525 22.0307C59.7523 24.3924 59.7261 24.3825 62.0202 24.4212C62.8266 24.4348 63.6318 24.5236 64.5721 24.6253Z" fill="#E70D3D"/>
<path d="M16.1379 56.4577C16.1379 56.4577 16.2618 56.3856 16.46 56.4126C17.0703 56.2317 17.4825 56.0238 17.8946 55.816C18.4688 55.6562 19.043 55.4965 19.8652 55.3567C20.4224 55.1835 20.7315 54.9904 21.0405 54.7973C21.3612 54.7236 21.6819 54.6498 22.2572 54.6041C23.2952 54.3256 24.0787 54.019 24.8621 53.7123C31.0583 52.1358 37.2515 50.5476 43.454 48.9963C44.2878 48.7878 45.168 48.7649 46.3321 48.703C48.1664 48.6159 49.6954 48.4818 51.376 48.3633C52.1556 48.1496 52.7835 47.9202 53.4115 47.6909C53.4115 47.6909 53.5286 47.6113 53.7486 47.6707C54.4909 47.7137 55.0131 47.6974 55.5353 47.681C56.6708 48.106 56.4861 48.66 55.6212 49.1516C55.0538 49.4742 54.4027 49.6495 53.5024 49.8463C50.7547 50.3652 48.2852 50.8952 45.8365 51.5085C44.8515 51.7552 43.9122 52.1846 42.952 52.5309C42.741 52.5872 42.53 52.6436 42.0564 52.6502C40.785 52.9107 39.776 53.221 38.767 53.5313C33.7414 54.9295 28.7168 56.3317 23.6873 57.7158C23.3725 57.8025 23.0186 57.7473 22.3831 57.7727C20.1015 57.3441 18.1197 56.9009 16.1379 56.4577Z" fill="#E70D3D"/>
<path d="M16.0042 56.4421C18.1196 56.9011 20.1014 57.3443 22.2382 57.8023C21.8504 58.027 21.3233 58.3058 20.7619 58.4334C19.2752 58.7712 17.7736 59.0436 16.2327 59.1532C16.3887 58.8683 16.5917 58.7757 16.7877 58.6699C16.8034 58.6614 16.7701 58.5621 16.795 58.6972C15.2031 58.4719 13.6741 58.2554 12.145 58.039C13.3869 57.5015 14.6287 56.964 16.0042 56.4421ZM15.0309 57.8413C15.8035 57.8413 16.5761 57.8413 17.3488 57.8413C17.3428 57.6967 17.3368 57.552 17.3308 57.4073C16.4884 57.4859 15.646 57.5645 15.0309 57.8413Z" fill="#E70D3D"/>
<path d="M12.0367 58.0652C13.6742 58.2554 15.2033 58.4718 16.7952 58.6971C16.7703 58.5621 16.8036 58.6613 16.7879 58.6698C16.5919 58.7756 16.3888 58.8683 16.1522 59.0725C15.0589 59.5217 14.0198 60.0033 12.9357 60.1478C12.3408 60.2271 11.67 59.7382 11.0334 59.5054C11.3317 59.0341 11.6299 58.5627 12.0367 58.0652Z" fill="#E70D3D"/>
<path d="M43.1006 52.5514C43.9123 52.1846 44.8517 51.7552 45.8367 51.5085C48.2854 50.8952 50.7549 50.3652 53.3724 49.8179C50.1022 50.7467 46.6756 51.6593 43.1006 52.5514Z" fill="#E70D3D"/>
<path d="M51.2244 48.3477C49.6954 48.4818 48.1665 48.6159 46.4829 48.7091C47.9136 48.3571 49.4988 48.0461 51.2016 47.9109C51.2875 48.1737 51.256 48.2607 51.2244 48.3477Z" fill="#E70D3D"/>
<path d="M38.907 53.5457C39.7758 53.2213 40.7848 52.911 41.9504 52.6179C41.087 52.9434 40.067 53.2516 38.907 53.5457Z" fill="#E70D3D"/>
<path d="M24.73 53.6843C24.0787 54.0192 23.2952 54.3258 22.3789 54.5828C23.0299 54.2409 23.8139 53.9485 24.73 53.6843Z" fill="#E70D3D"/>
<path d="M55.4752 47.5934C55.0129 47.6975 54.4907 47.7138 53.8181 47.6831C54.2503 47.5926 54.8328 47.5491 55.4752 47.5934Z" fill="#E70D3D"/>
<path d="M51.3759 48.3632C51.2558 48.2606 51.2874 48.1736 51.3331 47.9484C51.9503 47.7477 52.5534 47.6852 53.2839 47.6567C52.7834 47.9201 52.1555 48.1495 51.3759 48.3632Z" fill="#E70D3D"/>
<path d="M17.774 55.7786C17.4823 56.0239 17.0702 56.2318 16.5312 56.4063C16.8208 56.1623 17.2371 55.9517 17.774 55.7786Z" fill="#E70D3D"/>
<path d="M13.246 14.7175C13.1042 15.0102 12.8671 15.3345 12.522 15.658C12.6595 15.3545 12.9051 15.0518 13.246 14.7175Z" fill="#E70D3D"/>
<path d="M20.9235 54.7683C20.7314 54.9906 20.4224 55.1837 19.9922 55.3435C20.1829 55.1198 20.4947 54.9295 20.9235 54.7683Z" fill="#E70D3D"/>
<path d="M12.1559 15.9778C12.1094 16.18 11.9657 16.4258 11.7026 16.6743C11.7418 16.4584 11.9002 16.2399 12.1559 15.9778Z" fill="#E70D3D"/>
<path d="M14.9172 57.7422C15.646 57.5645 16.4884 57.4859 17.3307 57.4072C17.3367 57.5519 17.3427 57.6966 17.3487 57.8413C16.5761 57.8413 15.8035 57.8413 14.9172 57.7422Z" fill="#E70D3D"/>
</svg>
