<svg width="75" height="75" viewBox="0 0 75 75" fill="none" xmlns="http://www.w3.org/2000/svg">
<path d="M25.6493 28.9C27.2087 24.2455 30.4587 23.5032 34.3805 26.2888C35.1997 26.8707 35.8861 27.6535 36.5801 28.394C37.3396 29.2044 37.8423 29.1975 38.8144 28.451C40.6626 27.0314 42.5086 25.5394 45.0993 25.4097C47.9715 25.266 49.7661 27.1345 49.7923 30.0086C49.8259 33.6823 47.6576 36.0145 45.5258 38.2854C42.8255 41.1617 39.9313 43.9223 36.5634 45.8495C32.9841 44.7477 31.6084 41.5065 29.3504 39.18C27.0772 36.8378 26.064 33.9055 25.0621 30.9354C24.8014 30.1627 25.432 29.6639 25.6493 28.9ZM45.7611 30.8115C45.728 30.5418 45.6949 30.2721 45.6596 29.9845C43.0129 30.8303 43.0129 30.8303 44.6926 32.7218C45.0512 32.1457 45.7001 31.8136 45.7611 30.8115Z" fill="#E70D3D"/>
<path d="M59.4615 53.83C58.006 54.3533 56.6706 54.9227 55.2904 55.3456C49.5943 57.0912 43.7299 57.3084 37.8341 57.1526C37.1132 57.1336 36.6084 57.4156 36.1394 57.9051C33.247 60.9236 29.8117 63.1691 25.9601 64.7248C24.9785 65.1212 23.9265 65.6024 22.7548 65.4857C21.3386 65.3447 20.8276 64.4672 21.2819 63.1301C22.0049 61.0018 23.0228 58.9618 23.3063 56.6659C23.0751 56.2461 22.629 56.2037 22.2078 56.1507C18.1425 55.6388 14.4099 54.2274 11.0808 51.8547C7.72552 49.4632 5.40382 46.1822 4.23253 42.3012C3.4932 39.8516 2.83305 37.2678 3.03776 34.6236C3.34686 30.6313 4.14296 26.8015 6.34117 23.3266C9.71534 17.9928 14.5877 14.7273 20.4316 12.7238C22.8171 11.906 25.2843 11.483 27.7653 11.0173C32.9607 10.0421 38.1877 9.7857 43.3953 10.1724C45.4604 10.3257 47.6155 10.4422 49.7168 10.9729C51.4687 11.4153 53.3375 11.5544 55.0603 12.1674C58.7317 13.4737 62.2622 14.9984 65.2652 17.6535C68.1303 20.1865 70.4306 23.0106 71.6008 26.6791C71.972 27.8428 72.4208 28.9762 72.4587 30.2389C72.5047 31.7695 73.1401 33.2255 72.9717 34.8102C72.3138 40.9991 70.569 46.583 65.1309 50.397C63.3359 51.656 61.6433 53.0368 59.4615 53.83ZM8.09435 29.7413C7.9434 30.0949 7.7703 30.4409 7.64518 30.8034C6.92871 32.8792 7.0885 35.0375 7.09306 37.1752C7.09496 38.0649 7.14794 38.9038 5.98314 38.9912C6.21703 41.4936 8.8655 46.9793 10.2102 47.709C10.0239 47.3014 9.84462 46.9668 9.71653 46.6137C9.56961 46.2087 9.03294 45.7732 9.61644 45.3649C10.1771 44.9726 10.5251 45.5589 10.7934 45.86C14.7301 50.277 20.1094 51.4417 25.5608 52.3112C27.7975 52.668 28.9317 54.2458 28.0923 56.3884C27.7383 57.2919 27.5562 58.2628 27.2113 59.5091C29.1926 58.0501 30.9951 56.9292 32.5463 55.5297C34.6215 53.6576 36.7791 52.6246 39.7099 52.8559C43.8318 53.1812 47.9586 52.76 52.0201 51.8835C52.4295 51.7952 52.8897 51.7521 53.1857 52.1822C53.2622 52.9226 52.4346 52.9818 52.0763 53.6386C56.397 52.5218 60.6386 51.7067 63.8656 48.3307C62.9253 47.9822 62.3022 49.3313 61.4445 48.4668C61.4685 47.9065 61.8454 47.5578 62.2163 47.1998C63.7672 45.7033 65.213 44.1206 66.3699 42.2872C67.9282 39.8175 68.8891 37.2117 68.9335 34.2177C68.9744 31.4577 68.6003 28.865 67.3185 26.4066C67.0978 25.9833 66.7813 25.1703 67.1344 24.9971C68.2314 24.4588 67.5127 23.8787 67.3245 23.3223C67.0924 22.6362 66.6016 22.5786 65.9714 22.8235C65.5768 22.9769 65.2046 22.735 64.8858 22.5204C64.07 21.9713 63.2553 21.4172 62.4746 20.82C60.5946 19.382 58.545 18.2989 56.3467 17.3949C53.8611 16.3728 51.2471 15.8899 48.6685 15.3354C47.3614 15.0542 46.0166 14.6446 44.6392 14.657C39.4323 14.7039 34.2096 14.3583 29.0396 15.3205C26.6317 15.7686 24.2827 16.4177 21.763 17.2263C22.5295 17.3842 23.2549 17.237 23.3645 18.0935C23.4629 18.8623 22.8432 19.1109 22.3675 19.4601C22.2644 19.5358 22.1378 19.5789 22.0244 19.6413C18.6611 21.4933 15.5097 23.6201 13.0319 26.6124C12.4824 27.276 11.9789 27.9778 11.423 28.6356C10.9941 29.143 10.4015 29.3766 9.80159 29.0505C9.13538 28.6882 9.42154 28.0725 9.62753 27.5576C9.97055 26.7002 10.3576 25.8603 10.7261 25.0131C9.52608 26.3479 8.76814 27.911 8.09435 29.7413Z" fill="#E70D3D"/>
</svg>
