<svg width="75" height="75" viewBox="0 0 75 75" fill="none" xmlns="http://www.w3.org/2000/svg">
<path d="M3.49601 43.2665C3.49405 42.8755 3.49209 42.4846 3.51985 41.9608C3.47707 39.0384 3.40968 36.2485 3.32113 33.4593C3.31492 33.2637 3.15223 33.0731 3.06231 32.8802C3.05856 32.1828 3.05481 31.4854 3.06925 30.6296C3.05739 26.5562 3.02174 22.6414 3.00073 18.7265C2.99452 17.5697 3.02964 16.4128 3.04582 15.2559C3.04582 15.2559 3.05013 15.2658 3.11026 15.2382C3.25985 14.7646 3.34933 14.3186 3.45928 13.8119C3.46786 13.6262 3.45595 13.5012 3.44405 13.3763C3.44405 13.3763 3.44962 13.3852 3.51909 13.3736C3.69906 12.9467 3.80957 12.5314 3.92009 12.1161C4.18113 11.8419 4.44216 11.5677 4.81991 11.2652C5.53435 10.8941 6.13207 10.5514 6.72979 10.2086C6.80575 10.2094 6.8817 10.2102 7.08152 10.2085C7.63829 10.0417 8.0712 9.87739 8.50411 9.71312C11.0321 9.48814 13.5588 9.24628 16.0887 9.04497C17.4441 8.93713 18.8049 8.8991 20.3246 8.83989C22.8851 8.80185 25.2846 8.76488 27.6831 8.691C27.9899 8.68155 28.2909 8.47988 28.5946 8.36725C29.2723 8.36467 29.95 8.36209 30.7672 8.38884C32.6192 8.4115 34.3318 8.41095 36.0442 8.39611C37.3155 8.38509 38.5866 8.35553 39.8578 8.33423C40.2483 8.35107 40.6389 8.36792 41.128 8.43611C42.1528 8.6124 43.0791 8.73734 44.0053 8.86229C44.2669 8.96217 44.5285 9.06205 44.8628 9.24391C45.0309 9.39263 45.1264 9.45937 45.3286 9.60073C44.6423 9.68208 44.1066 9.74557 43.571 9.80907C43.5557 9.88755 43.5404 9.96604 43.5251 10.0445C43.8029 10.2318 44.0807 10.419 44.3949 10.6578C44.7586 10.8967 45.0859 11.084 45.3957 11.3337C45.0476 11.4682 44.7169 11.5404 44.3345 11.5733C43.7378 11.383 43.1929 11.2319 42.6206 11.023C42.2265 10.8393 41.8605 10.6065 41.4931 10.6043C38.5946 10.587 35.6953 10.5869 32.7976 10.6468C32.1228 10.6607 31.4532 10.9246 30.7408 11.0794C30.7004 11.0853 30.6207 11.1031 30.5407 11.083C29.0641 11.0824 27.6673 11.1019 26.1898 11.1046C25.2338 11.0979 24.3586 11.1081 23.4025 11.1041C22.8949 11.0904 22.4638 11.0533 22.0429 11.1028C21.6916 11.144 21.3523 11.2866 20.9311 11.4045C20.0387 11.4723 19.2228 11.5199 18.351 11.523C16.7384 11.5316 15.181 11.5727 13.6256 11.6518C13.4145 11.6626 13.213 11.8639 12.954 11.9852C12.8295 11.991 12.7581 11.9886 12.6067 11.9595C11.584 11.9421 10.6386 11.9145 9.69998 11.9812C9.38582 12.0035 9.08879 12.2667 8.71534 12.4234C8.12523 12.7369 7.60371 13.0467 7.02142 13.3725C6.64015 14.0076 6.31964 14.6266 5.95211 15.2947C5.84402 16.1767 5.78294 17.0097 5.71367 17.9078C5.98505 18.2927 6.2646 18.6126 6.54444 18.9944C6.43048 19.3026 6.31623 19.549 6.20569 19.7981C6.20939 19.8008 6.20066 19.799 6.13737 19.7953C5.97474 19.927 5.87539 20.0622 5.76249 20.2748C5.75594 22.7126 5.76295 25.0731 5.74559 27.5156C5.7304 29.4035 5.73959 31.2093 5.72995 33.0967C5.76096 35.3452 5.80359 37.5124 5.87394 39.6786C5.87976 39.8578 6.07334 40.031 6.18987 40.2867C6.21388 41.0641 6.22772 41.7618 6.227 42.5405C6.2353 43.82 6.23479 45.0197 6.29753 46.216C6.31311 46.5132 6.53338 46.7996 6.64498 47.1626C6.66188 47.7381 6.69335 48.2417 6.70477 48.8249C6.84717 51.0705 6.99886 53.2375 7.18659 55.4015C7.20848 55.6538 7.4296 55.8888 7.54758 56.2077C7.55321 56.6293 7.50844 56.9919 7.59859 57.3172C7.79205 58.0151 8.05511 58.6937 8.29244 59.4384C8.35163 59.5935 8.40804 59.6903 8.45468 59.854C8.47341 60.5216 8.67519 60.994 9.34146 61.1244C9.34652 61.1221 9.34025 61.1313 9.3332 61.1967C9.4924 61.7738 9.79836 62.0854 10.3843 61.9953C10.3866 61.9915 10.3881 62.0003 10.3894 62.0582C10.4581 62.2209 10.5255 62.3258 10.5929 62.4307C10.6434 62.3374 10.6938 62.2441 10.8053 62.1605C11.0523 62.2113 11.2383 62.2525 11.4883 62.3284C11.8732 62.392 12.1941 62.4208 12.5007 62.4584C12.4864 62.4671 12.4997 62.4979 12.5066 62.5698C12.7125 62.721 12.9114 62.8691 13.1103 62.8692C15.4592 62.8705 17.8082 62.8564 20.1568 62.821C20.3317 62.8184 20.5037 62.6213 20.7587 62.5117C22.1645 62.4791 23.4886 62.4494 24.8932 62.4486C25.84 62.4675 26.7103 62.5038 27.5709 62.4282C28.016 62.3891 28.4437 62.1514 28.9604 61.9992C33.1394 61.8105 37.2377 61.6363 41.3347 61.4348C42.3988 61.3825 43.4587 61.1673 44.5206 61.1665C45.8399 61.1656 46.5289 60.8197 47.0531 59.6745C47.3246 60.0074 47.5184 60.3571 47.7763 60.8225C47.9525 60.6678 48.1906 60.4586 48.4531 60.1721C48.4728 58.9394 48.4682 57.7842 48.4875 56.5661C48.2009 56.043 47.8903 55.5829 47.5833 55.0456C47.4086 52.5608 47.2462 50.1518 47.0407 47.7465C46.9932 47.1907 46.7985 46.6474 46.6804 46.0192C46.6696 44.7889 46.6499 43.638 46.6491 42.4059C46.6473 40.6411 46.6413 38.9569 46.5912 37.2741C46.5832 37.0061 46.3774 36.7439 46.2577 36.4115C46.2259 34.7476 46.1994 33.1514 46.2103 31.4758C46.1944 29.1978 46.147 26.9989 46.0758 24.8008C46.0706 24.6399 45.8929 24.4845 45.7937 24.2455C45.7729 22.842 45.7537 21.5194 45.7575 20.115C45.7671 18.2943 45.7744 16.5549 45.7218 14.8173C45.7119 14.4914 45.4623 14.1727 45.317 13.7755C45.301 13.2993 45.2913 12.8981 45.3457 12.4926C46.0602 12.2619 46.3051 11.8115 46.2877 11.1221C46.2803 10.8274 46.5113 10.5267 46.634 10.2287C46.634 10.2287 46.6378 10.2185 46.6349 10.2889C47.0914 11.5411 47.6821 12.6838 47.6374 14.0112C47.6329 14.1451 47.8826 14.2876 48.0144 14.4262C48.0147 14.4981 48.0149 14.57 47.9899 14.7407C47.981 15.0977 47.9975 15.3558 48.0082 15.6955C48.0253 16.646 48.0482 17.5148 48.056 18.4658C48.0492 19.6118 48.0387 20.6764 48.081 21.7389C48.0901 21.9688 48.289 22.1912 48.4082 22.4898C48.4499 23.7064 48.4839 24.8504 48.4854 26.075C48.4396 26.4734 48.3972 26.793 48.4174 27.1086C48.5691 29.4868 48.771 31.8624 48.8806 34.2424C48.9606 35.9782 48.904 37.72 48.9576 39.4576C48.9673 39.7723 49.2159 40.0796 49.3545 40.4713C49.3915 42.1137 49.4281 43.675 49.451 45.3189C49.4449 46.4573 49.4349 47.5137 49.4732 48.5685C49.4821 48.8118 49.6562 49.0491 49.7573 49.3694C49.7805 53.1746 49.8006 56.8997 49.8207 60.6248C49.8155 60.6963 49.8102 60.7679 49.7411 60.9035C49.5338 61.1808 49.3905 61.394 49.2472 61.6072C48.8573 61.9331 48.4674 62.259 47.9722 62.6497C47.3321 62.9088 46.7972 63.1031 46.188 63.308C45.6606 63.3468 45.2076 63.3748 44.6763 63.3872C44.0582 63.4835 43.5185 63.5954 42.8988 63.7165C42.1673 63.7546 41.51 63.7411 40.8665 63.829C40.5105 63.8777 40.1776 64.096 39.8342 64.2378C39.5982 64.2435 39.3622 64.2491 38.9759 64.2371C37.599 64.2503 36.3713 64.2601 35.1469 64.329C34.8918 64.3433 34.649 64.5757 34.4005 64.7077C34.2815 64.7115 34.1625 64.7153 33.928 64.6805C32.9213 64.6896 32.0299 64.7374 31.0578 64.7725C30.2284 64.7818 29.478 64.7795 28.7326 64.8396C28.4871 64.8595 28.2546 65.0408 28.0161 65.1484C28.0161 65.1484 28.0106 65.1534 27.9349 65.1282C26.5723 65.136 25.2855 65.1691 23.9184 65.1847C22.1669 65.1827 20.4955 65.1897 18.8244 65.2157C16.773 65.2476 14.7138 65.4243 12.6728 65.2984C10.8021 65.183 8.86302 65.4332 7.07049 64.6165C5.91035 64.2699 5.51662 63.2463 5.07855 62.2214C5.0484 61.5867 4.94683 61.0382 4.89363 60.485C4.74023 58.8902 4.59574 57.2943 4.47024 55.697C4.42282 55.0935 4.49182 54.4775 4.40797 53.8812C4.32066 53.2602 4.11293 52.6562 3.95785 52.0448C3.95785 52.0448 3.94188 52.0436 3.96051 51.9716C3.94125 49.3481 3.91612 46.7961 3.84978 44.2453C3.84122 43.9162 3.61917 43.5926 3.49601 43.2665Z" fill="#E70D3D"/>
<path d="M54.487 46.9969C54.5759 46.703 54.6725 46.4112 54.7517 46.1147C54.8516 45.7413 54.9374 45.364 55.1225 44.904C55.2157 44.6261 55.2157 44.4326 55.2157 44.2392C55.2157 44.2392 55.2068 44.2298 55.2796 44.2254C55.4907 44.0779 55.6883 43.9581 55.7556 43.7871C55.9255 43.3553 56.0367 42.9004 56.1928 42.3864C56.3306 41.9427 56.4648 41.5718 56.5598 41.1911C56.7571 40.4009 56.9337 39.6054 57.1187 38.8121C57.1187 38.8121 57.1246 38.8078 57.1941 38.8029C57.387 38.6067 57.5492 38.4292 57.6234 38.2204C57.708 37.9827 57.6775 37.7043 57.7608 37.4657C58.1672 36.3012 58.6307 35.1553 59.0007 33.9797C59.201 33.3432 59.2546 32.6605 59.3744 31.9986C59.9584 30.2902 60.5048 28.5674 61.1519 26.8832C61.3228 26.4386 61.8037 26.1127 62.1436 25.7335C62.2692 25.5935 62.416 25.4692 62.5238 25.317C63.3039 24.2163 63.9982 23.0431 64.8728 22.0243C65.8013 20.9427 66.8549 19.9342 68.5063 20.1526C68.92 20.2073 69.2167 20.2441 69.4388 20.7168C69.6836 21.2377 70.3055 21.5936 70.5091 22.1196C71.2106 23.9331 71.4865 25.7815 70.3339 27.7038C70.863 28.1735 71.3735 28.7287 71.9798 29.144C73.3031 30.0503 73.0583 31.2771 72.7812 32.5302C72.5613 33.5249 72.3263 34.5162 72.0365 35.5959C71.8897 35.9678 71.8042 36.2529 71.7188 36.5379C71.7007 36.6523 71.6827 36.7666 71.5958 36.9588C71.4329 37.3388 71.3388 37.641 71.2447 37.9431C70.9702 38.8088 70.6917 39.6733 70.423 40.5409C70.3197 40.8746 70.2892 41.2414 70.1318 41.5445C70.0029 41.7929 69.7351 41.9693 69.4256 42.2472C68.7139 42.5583 68.2228 42.561 68.0208 41.775C67.9827 41.6269 67.7397 41.5314 67.5857 41.3399C67.5706 40.7496 67.5611 40.2311 67.5654 39.6507C67.9128 39.0163 68.2464 38.4437 68.5977 37.8109C69.0183 36.6889 69.4813 35.6452 69.8059 34.5601C70.0881 33.6167 70.2287 32.629 70.3958 31.6546C70.4273 31.4712 70.289 31.2586 70.229 31.0595C70.0217 31.1655 69.7323 31.2199 69.6259 31.3893C69.4511 31.6675 69.395 32.0202 69.2281 32.3581C69.1124 32.5557 69.0574 32.7367 68.9963 32.9851C68.964 33.2766 68.9378 33.5006 68.8532 33.739C68.7033 33.9506 68.6119 34.1479 68.5209 34.412C68.4935 34.6994 68.4654 34.92 68.3815 35.1553C68.2437 35.4515 68.1616 35.733 68.0735 36.0764C68.0529 36.2615 68.0383 36.3848 67.9617 36.5226C67.803 36.8416 67.7064 37.1461 67.6055 37.5192C67.5789 37.8159 67.5565 38.0439 67.4717 38.2734C66.7667 38.6459 67.279 39.2596 67.0773 39.7046C67.0508 39.6802 67.1025 39.7303 67.0356 39.7261C66.8909 39.8995 66.8131 40.0771 66.7388 40.3215C66.7144 40.6091 66.6866 40.8299 66.6587 41.0507C66.192 42.6288 65.7567 44.2173 65.243 45.78C65.0394 46.3992 64.6316 46.9482 64.3705 47.5523C64.0537 48.2851 63.74 49.0272 63.5213 49.7927C63.1854 50.9687 62.4005 51.7946 61.5469 52.5894C60.8418 53.2461 60.1449 53.9115 59.3475 54.6211C58.7034 55.2955 58.1562 55.9218 57.6091 56.5481C57.6091 56.5481 57.6056 56.5576 57.5316 56.5527C56.8851 56.6739 56.3128 56.7999 55.7175 56.874C55.576 56.7542 55.4575 56.6863 55.3389 56.6183C55.3389 56.6183 55.3339 56.6027 55.3502 56.5302C55.3074 55.7467 55.2484 55.0358 55.1867 54.268C55.1407 54.0741 55.0974 53.9372 55.0531 53.7246C54.8745 51.4307 54.0512 49.2673 54.487 46.9969ZM56.7708 47.4829C57.0602 47.6114 57.3496 47.74 57.6286 47.8703C57.6286 47.8703 57.6285 47.8808 57.6612 48.0024C57.8776 48.1255 58.0816 48.2844 58.3129 48.3646C58.9035 48.5694 59.5338 48.6786 60.0984 48.9356C61.2353 49.453 61.6261 49.2085 61.6725 47.7442C62.2761 45.9833 62.8874 44.2249 63.4766 42.4592C63.5909 42.1169 63.5739 41.7297 63.6952 41.391C64.2297 39.8986 64.8036 38.4203 65.3332 36.9262C65.4121 36.7035 65.3305 36.4238 65.3064 36.0405C65.2766 35.9589 65.266 35.8218 65.2139 35.8037C64.0962 35.4141 62.9863 34.9933 61.848 34.6745C61.0992 34.4648 60.8084 34.7784 60.7321 35.7792C60.2775 37.0759 59.823 38.3725 59.2537 39.7217C59.1514 40.0767 59.0491 40.4317 58.9445 40.8846C58.9318 40.948 58.9191 41.0114 58.7731 41.1061C58.6848 41.4436 58.5965 41.7811 58.5039 42.2513C58.4927 42.4277 58.4815 42.6041 58.343 42.8076C58.2372 43.1672 58.1314 43.5267 58.0076 43.9939C58.0044 44.0665 58.0011 44.1392 57.8912 44.272C57.7922 44.7168 57.6931 45.1616 57.5685 45.7189C57.5641 45.8342 57.5596 45.9495 57.4351 46.0927C57.2149 46.5119 56.9946 46.9312 56.7708 47.4829ZM65.3048 34.073C65.5712 34.0929 65.8375 34.1127 66.1038 34.1326C66.0506 33.9119 65.9974 33.6912 66.0643 33.4093C67.0989 32.4236 67.0614 31.0537 67.3371 29.8002C67.3592 29.6996 67.1606 29.5504 66.9327 29.3883C66.2223 29.2062 65.5119 29.0241 64.7032 28.8037C64.6332 28.7984 64.5632 28.793 64.4869 28.6498C63.8162 28.1225 63.2272 28.2139 63.0211 29.0039C62.8476 29.5372 62.6742 30.0705 62.3684 30.616C62.1361 31.2352 61.8816 31.848 61.6966 32.481C61.6703 32.5708 61.9817 32.7592 62.1435 32.9034C62.1435 32.9034 62.1485 32.9081 62.1693 33.0071C62.2911 32.9713 62.413 32.9356 62.6786 32.847C63.0822 32.8717 63.4858 32.8965 63.8982 33.0441C64.3667 33.3387 64.8352 33.6333 65.3075 33.9251C65.3075 33.9251 65.3046 33.9291 65.3048 34.073ZM59.4948 51.5385C59.6112 51.4197 59.7276 51.3008 59.844 51.182C59.6718 51.0163 59.5273 50.7726 59.3223 50.7001C58.7599 50.5014 58.1792 50.3172 57.5913 50.2443C57.3076 50.2091 56.8979 50.3534 56.71 50.5636C56.3545 50.9613 56.6509 52.4712 57.1445 53.0589C57.4186 53.1015 57.8237 53.2797 57.9443 53.1632C58.4628 52.6627 58.8978 52.0756 59.4948 51.5385ZM64.9549 26.2078C65.266 26.3175 65.5771 26.4272 65.9863 26.5338C66.0505 26.5436 66.1148 26.5534 66.2198 26.6884C66.7953 26.8879 67.3666 27.102 67.9511 27.2703C68.0331 27.2939 68.1796 27.0933 68.4069 26.9016C68.4495 26.3856 68.5256 25.8696 68.5259 25.3535C68.5262 24.7433 68.5133 24.1241 68.4096 23.5255C68.3068 22.9323 67.6113 22.6411 67.2456 23.0666C66.4285 24.0174 65.721 25.0623 64.9549 26.2078Z" fill="#E70D3D"/>
<path d="M49.3541 40.3902C49.2158 40.0795 48.9673 39.7723 48.9576 39.4576C48.9039 37.72 48.9605 35.9782 48.8805 34.2423C48.7709 31.8624 48.569 29.4868 48.4173 27.1086C48.3971 26.793 48.4395 26.4733 48.5295 26.0968C48.7029 26.0577 48.7998 26.0772 48.8966 26.0968C49.0782 30.5732 49.2599 35.0496 49.4203 39.6771C49.3841 40.0156 49.3691 40.2029 49.3541 40.3902Z" fill="#E70D3D"/>
<path d="M7.09619 64.6765C8.86301 65.4333 10.8021 65.1832 12.6728 65.2986C14.7138 65.4244 16.773 65.2477 18.8244 65.2158C20.4955 65.1898 22.1668 65.1828 23.9177 65.2357C23.9928 65.4059 23.9882 65.5077 23.9836 65.6096C21.8905 65.633 19.7974 65.6565 17.5419 65.6803C15.5147 65.686 13.6497 65.6912 11.7848 65.6965C11.0892 65.6798 10.3834 65.7314 9.7007 65.6288C8.86875 65.5039 8.05474 65.2552 7.23844 65.0393C7.17718 65.0231 7.15972 64.8413 7.09619 64.6765Z" fill="#E70D3D"/>
<path d="M49.8866 60.6104C49.8007 56.8998 49.7806 53.1747 49.7693 49.2913C49.798 48.8715 49.8178 48.6101 49.8376 48.3486C49.9618 48.6147 50.1904 48.8792 50.1943 49.1469C50.2443 52.6668 50.2708 56.1871 50.2739 59.7073C50.2742 60.0034 50.0645 60.2997 49.8866 60.6104Z" fill="#E70D3D"/>
<path d="M3.0188 32.9368C3.15214 33.0732 3.31483 33.2638 3.32104 33.4594C3.40958 36.2486 3.47698 39.0385 3.50931 41.8874C3.35294 41.7722 3.13945 41.6001 3.13509 41.4228C3.06602 38.6134 3.02377 35.8033 3.0188 32.9368Z" fill="#E70D3D"/>
<path d="M3.93679 52.125C4.11285 52.6563 4.32058 53.2603 4.40789 53.8812C4.49174 54.4775 4.42274 55.0936 4.47016 55.6971C4.59565 57.2943 4.74015 58.8902 4.89355 60.4851C4.94675 61.0382 5.04832 61.5867 5.068 62.158C4.14298 58.9091 3.88344 55.5731 3.93679 52.125Z" fill="#E70D3D"/>
<path d="M39.8308 8.27019C38.5866 8.3555 37.3155 8.38506 36.0443 8.39608C34.3318 8.41092 32.6193 8.41147 30.8467 8.37941C30.962 8.22818 31.1365 8.01911 31.3128 8.01766C34.0281 7.99521 36.7436 7.99722 39.4591 8.00688C39.5743 8.00729 39.689 8.13681 39.8308 8.27019Z" fill="#E70D3D"/>
<path d="M3.46191 43.3472C3.61925 43.5927 3.8413 43.9163 3.84987 44.2454C3.91621 46.7962 3.94134 49.3482 3.9583 51.9794C3.78388 51.7093 3.50459 51.3622 3.49704 51.0093C3.44292 48.4828 3.4441 45.9551 3.46191 43.3472Z" fill="#E70D3D"/>
<path d="M28.5136 8.33453C28.2909 8.47994 27.99 8.68161 27.6831 8.69106C25.2847 8.76494 22.8851 8.80191 20.4058 8.83181C20.635 8.65737 20.9416 8.37267 21.2542 8.36589C23.6464 8.31404 26.0396 8.31631 28.5136 8.33453Z" fill="#E70D3D"/>
<path d="M59.3419 32.0481C59.2547 32.6607 59.2011 33.3433 59.0008 33.9799C58.6308 35.1554 58.1673 36.3013 57.7609 37.4659C57.6777 37.7044 57.7082 37.9829 57.6236 38.2206C57.5493 38.4294 57.3871 38.6069 57.1956 38.8065C57.2746 38.2372 57.3862 37.6476 57.5758 37.0843C58.1371 35.4165 58.7292 33.759 59.3419 32.0481Z" fill="#E70D3D"/>
<path d="M11.8037 65.7591C13.6497 65.6911 15.5147 65.6858 17.461 65.69C17.3266 65.8558 17.108 66.1509 16.8956 66.1465C15.2416 66.1122 13.5889 66.0212 11.9361 65.9413C11.8964 65.9394 11.8604 65.8634 11.8037 65.7591Z" fill="#E70D3D"/>
<path d="M34.4807 64.7376C34.6489 64.5759 34.8917 64.3435 35.1468 64.3292C36.3712 64.2603 37.5989 64.2504 38.905 64.2405C38.6992 64.4065 38.4201 64.6606 38.1272 64.6778C36.9408 64.7473 35.7501 64.7439 34.4807 64.7376Z" fill="#E70D3D"/>
<path d="M49.3545 40.4713C49.3692 40.2029 49.3842 40.0156 49.4166 39.7595C49.523 39.9194 49.6801 40.1452 49.6898 40.3772C49.7565 41.9611 49.7922 43.5464 49.7581 45.1904C49.607 45.2452 49.5358 45.2408 49.4646 45.2364C49.428 43.675 49.3914 42.1137 49.3545 40.4713Z" fill="#E70D3D"/>
<path d="M48.918 26.0164C48.7999 26.0774 48.7031 26.0578 48.5621 26.0163C48.484 24.8504 48.45 23.7065 48.4226 22.4265C48.4625 22.0446 48.4957 21.7988 48.5289 21.553C48.6445 21.8121 48.8484 22.0671 48.8606 22.331C48.9163 23.5313 48.9181 24.734 48.918 26.0164Z" fill="#E70D3D"/>
<path d="M24.0645 65.6237C23.9881 65.5076 23.9927 65.4058 23.9979 65.253C25.2854 65.1691 26.5722 65.1361 27.9384 65.1292C27.7675 65.2904 27.5239 65.526 27.2658 65.543C26.2282 65.6113 25.1861 65.6121 24.0645 65.6237Z" fill="#E70D3D"/>
<path d="M48.0379 14.3475C47.8826 14.2877 47.6328 14.1452 47.6373 14.0112C47.682 12.6839 47.0913 11.5412 46.6401 10.29C46.8371 10.4592 47.0558 10.68 47.2093 10.9393C47.8155 11.9635 48.1399 13.0662 48.0379 14.3475Z" fill="#E70D3D"/>
<path d="M57.0795 38.8567C56.9336 39.6054 56.7571 40.4009 56.5598 41.1911C56.4648 41.5718 56.3306 41.9426 56.1428 42.389C55.9704 42.4638 55.8695 42.4676 55.7686 42.4714C56.1925 41.2813 56.6164 40.0913 57.0795 38.8567Z" fill="#E70D3D"/>
<path d="M44.3585 10.6063C44.0807 10.419 43.8029 10.2318 43.5251 10.0445C43.5404 9.96603 43.5557 9.88754 43.571 9.80906C44.1067 9.74557 44.6423 9.68207 45.3286 9.60073C45.1264 9.45936 45.031 9.39262 44.9216 9.26812C45.4663 8.81134 45.7278 9.35025 46.0459 9.65321C45.9182 9.89373 45.8308 10.0647 45.6695 10.2271C45.1664 10.294 44.5877 9.89238 44.3585 10.6063Z" fill="#E70D3D"/>
<path d="M48.5272 21.4795C48.4957 21.7987 48.4625 22.0446 48.4149 22.3537C48.289 22.1912 48.0902 21.9688 48.0811 21.7389C48.0388 20.6764 48.0493 19.6118 48.1018 18.475C48.2528 18.4251 48.3429 18.4482 48.4331 18.4712C48.4639 19.4495 48.4947 20.4278 48.5272 21.4795Z" fill="#E70D3D"/>
<path d="M45.7433 10.2357C45.8308 10.0647 45.9182 9.8938 46.0684 9.70752C46.2972 9.83042 46.4633 9.96864 46.6317 10.1678C46.5113 10.5268 46.2803 10.8275 46.2877 11.1222C46.3051 11.8116 46.0602 12.262 45.3369 12.4289C45.3852 12.0019 45.9675 11.7671 45.6161 11.2053C45.6795 10.8493 45.7114 10.5425 45.7433 10.2357Z" fill="#E70D3D"/>
<path d="M39.9148 64.2596C40.1776 64.096 40.5105 63.8777 40.8666 63.8291C41.51 63.7412 42.1673 63.7546 42.9663 63.7314C43.2019 63.7622 43.2899 63.7871 43.3779 63.8121C43.1293 63.9482 42.8882 64.1828 42.6307 64.2025C41.7554 64.2697 40.8742 64.261 39.9148 64.2596Z" fill="#E70D3D"/>
<path d="M31.1387 64.7852C32.03 64.7374 32.9213 64.6896 33.8687 64.6853C33.574 64.8512 33.2314 65.0299 32.8704 65.0826C32.3385 65.1603 31.7934 65.1481 31.197 65.0928C31.1396 64.936 31.1391 64.8606 31.1387 64.7852Z" fill="#E70D3D"/>
<path d="M48.4699 18.3926C48.3429 18.4483 48.2527 18.4253 48.1169 18.393C48.0482 17.515 48.0253 16.6461 48.0363 15.6935C48.0702 15.6097 48.1214 15.6016 48.1214 15.6016L48.1692 15.6213C48.2803 15.9142 48.4617 16.2011 48.4875 16.5014C48.539 17.1017 48.5052 17.7093 48.4699 18.3926Z" fill="#E70D3D"/>
<path d="M43.9901 8.79622C43.079 8.73751 42.1528 8.61257 41.2 8.42879C41.946 8.35761 42.7195 8.32209 43.4906 8.35133C43.6566 8.35762 43.8138 8.59763 43.9901 8.79622Z" fill="#E70D3D"/>
<path d="M49.4509 45.319C49.5358 45.2409 49.607 45.2453 49.7317 45.2529C49.8061 46.2347 49.8269 47.2133 49.8426 48.2703C49.8177 48.6101 49.7978 48.8716 49.7661 49.2112C49.6562 49.0493 49.482 48.812 49.4732 48.5687C49.4349 47.5139 49.4448 46.4574 49.4509 45.319Z" fill="#E70D3D"/>
<path d="M31.0577 64.7725C31.139 64.8606 31.1394 64.936 31.1396 65.0679C30.1496 65.1498 29.1598 65.1752 28.093 65.1745C28.2545 65.0408 28.487 64.8594 28.7325 64.8396C29.4779 64.7794 30.2283 64.7817 31.0577 64.7725Z" fill="#E70D3D"/>
<path d="M6.6884 10.1655C6.1321 10.5514 5.53438 10.8942 4.87207 11.2417C5.04608 10.2588 5.89676 10.2728 6.6884 10.1655Z" fill="#E70D3D"/>
<path d="M55.7445 42.5311C55.8696 42.4677 55.9705 42.4639 56.1215 42.4575C56.0367 42.9005 55.9255 43.3554 55.7557 43.7871C55.6884 43.9582 55.4908 44.078 55.2856 44.223C55.3859 43.6801 55.5531 43.1354 55.7445 42.5311Z" fill="#E70D3D"/>
<path d="M44.7544 63.4027C45.2075 63.3747 45.6605 63.3467 46.2497 63.324C46.4696 63.3445 46.5533 63.3597 46.637 63.3748C46.0389 63.5239 45.4408 63.6729 44.7905 63.7252C44.7437 63.5532 44.7491 63.4779 44.7544 63.4027Z" fill="#E70D3D"/>
<path d="M46.7083 63.3678C46.5534 63.3598 46.4698 63.3446 46.3242 63.3134C46.7972 63.1032 47.3321 62.9089 47.9294 62.697C47.8251 63.329 47.2992 63.3392 46.7083 63.3678Z" fill="#E70D3D"/>
<path d="M8.42912 9.69095C8.07124 9.87734 7.63833 10.0416 7.13574 10.1907C7.22902 9.32929 7.90928 9.79838 8.42912 9.69095Z" fill="#E70D3D"/>
<path d="M3.85448 12.1282C3.80946 12.5315 3.69895 12.9469 3.52417 13.3731C3.5696 12.9694 3.67929 12.5548 3.85448 12.1282Z" fill="#E70D3D"/>
<path d="M44.6762 63.3872C44.7491 63.478 44.7437 63.5532 44.737 63.685C44.3329 63.7608 43.9302 63.7799 43.4526 63.8056C43.2897 63.7871 43.2017 63.7621 43.0461 63.7223C43.5184 63.5954 44.0581 63.4835 44.6762 63.3872Z" fill="#E70D3D"/>
<path d="M3.43876 13.8726C3.34929 14.3186 3.25982 14.7646 3.11515 15.236C3.06016 14.8529 3.06036 14.4444 3.13251 13.9591C3.28256 13.879 3.36066 13.8758 3.43876 13.8726Z" fill="#E70D3D"/>
<path d="M71.3081 37.9259C71.3388 37.6412 71.4329 37.339 71.586 37.0164C71.5538 37.3 71.4627 37.6042 71.3081 37.9259Z" fill="#E70D3D"/>
<path d="M71.7869 36.5268C71.8041 36.253 71.8896 35.968 72.03 35.6667C72.0083 35.9389 71.9317 36.2271 71.7869 36.5268Z" fill="#E70D3D"/>
<path d="M48.2198 15.5729C48.1691 15.6211 48.1213 15.6014 48.1213 15.6014C48.1213 15.6014 48.07 15.6096 48.042 15.6117C47.9974 15.3558 47.9809 15.0977 47.9942 14.7944C48.1062 15.0077 48.1883 15.2661 48.2198 15.5729Z" fill="#E70D3D"/>
<path d="M49.3074 61.5818C49.3905 61.3941 49.5339 61.1809 49.7341 60.957C49.6499 61.1497 49.5087 61.353 49.3074 61.5818Z" fill="#E70D3D"/>
<path d="M55.1846 44.2727C55.2157 44.4328 55.2156 44.6263 55.1689 44.8549C55.1326 44.6955 55.143 44.5008 55.1846 44.2727Z" fill="#E70D3D"/>
<path d="M3.45934 13.8118C3.36075 13.8758 3.28265 13.879 3.146 13.8833C3.16438 13.7168 3.24133 13.5492 3.38119 13.3789C3.45601 13.5012 3.46791 13.6261 3.45934 13.8118Z" fill="#E70D3D"/>
<path d="M6.23637 27.4764C6.33854 27.6263 6.51875 27.7704 6.53034 27.9271C6.6112 29.02 6.70114 30.1153 6.70628 31.2103C6.72366 34.9191 6.70706 38.6281 6.63362 42.4095C6.4564 42.4745 6.34901 42.4669 6.24161 42.4594C6.22778 41.7617 6.21394 41.0641 6.20487 40.2058C6.1997 37.7167 6.18976 35.3883 6.19371 32.9787C6.19198 31.0897 6.17637 29.2817 6.17965 27.4746C6.19855 27.4755 6.23637 27.4764 6.23637 27.4764Z" fill="#E70D3D"/>
<path d="M42.6206 11.023C38.7457 11.0925 34.8433 11.1043 30.8611 11.0948C31.4533 10.9246 32.1229 10.6607 32.7977 10.6468C35.6954 10.5869 38.5947 10.5869 41.4931 10.6042C41.8605 10.6064 42.2265 10.8393 42.6206 11.023Z" fill="#E70D3D"/>
<path d="M47.5155 55.5547C47.3621 55.029 47.116 54.511 47.0715 53.9762C46.8837 51.7194 46.7559 49.4576 46.6147 47.0402C46.6394 46.6213 46.6555 46.3598 46.6716 46.0984C46.7985 46.6474 46.9932 47.1906 47.0407 47.7464C47.2462 50.1517 47.4087 52.5607 47.5682 55.1169C47.5383 55.3618 47.5269 55.4583 47.5155 55.5547Z" fill="#E70D3D"/>
<path d="M45.7368 28.0122C45.5832 27.6399 45.3041 27.27 45.2968 26.8948C45.2534 24.6813 45.2734 22.4666 45.3484 20.1811C45.528 20.1389 45.6312 20.168 45.7344 20.197C45.7536 21.5195 45.7728 22.8421 45.7732 24.3258C45.7485 25.6621 45.7426 26.8372 45.7368 28.0122Z" fill="#E70D3D"/>
<path d="M46.1664 39.3299C46.0434 39.0804 45.8173 38.8324 45.8136 38.5811C45.7796 36.2574 45.7839 33.9332 45.8433 31.5318C45.9973 31.4881 46.0851 31.5217 46.173 31.5552C46.1994 33.1515 46.2259 34.7478 46.223 36.49C46.1846 37.534 46.1755 38.4319 46.1664 39.3299Z" fill="#E70D3D"/>
<path d="M7.06654 48.7537C7.25914 51.0642 7.45173 53.3747 7.62392 55.8366C7.58843 56.036 7.57335 56.084 7.55827 56.132C7.42951 55.889 7.2084 55.6539 7.18651 55.4016C6.99878 53.2377 6.84708 51.0706 6.76172 48.8257C6.91473 48.7492 6.99064 48.7514 7.06654 48.7537Z" fill="#E70D3D"/>
<path d="M45.7574 20.1149C45.6312 20.1678 45.528 20.1388 45.3721 20.098C45.3046 18.8257 45.2898 17.5652 45.2849 16.1435C45.3043 15.2718 45.3138 14.5612 45.3232 13.8506C45.4622 14.1726 45.7118 14.4913 45.7217 14.8173C45.7743 16.5549 45.767 18.2942 45.7574 20.1149Z" fill="#E70D3D"/>
<path d="M46.2103 31.4758C46.0851 31.5215 45.9973 31.4879 45.8623 31.4492C45.7937 30.3537 45.7722 29.2633 45.7438 28.0925C45.7427 26.837 45.7486 25.662 45.775 24.4067C45.8929 24.4845 46.0706 24.6398 46.0758 24.8008C46.147 26.9989 46.1944 29.1978 46.2103 31.4758Z" fill="#E70D3D"/>
<path d="M18.926 62.4258C19.1541 62.286 19.3795 62.0301 19.6106 62.025C21.3181 61.9868 23.0268 61.9986 24.8091 62.0612C24.8596 62.225 24.8361 62.3224 24.8126 62.4198C23.4885 62.4495 22.1644 62.4791 20.6823 62.4865C19.9915 62.4514 19.4588 62.4386 18.926 62.4258Z" fill="#E70D3D"/>
<path d="M5.74564 27.5158C5.86716 27.4485 5.9643 27.4633 6.1111 27.476C6.17636 29.2819 6.19197 31.0899 6.13908 32.9748C5.96334 33.0396 5.85608 33.0274 5.74883 33.0152C5.73964 31.2094 5.73046 29.4036 5.74564 27.5158Z" fill="#E70D3D"/>
<path d="M18.3509 11.5232C18.1766 11.658 17.9501 11.8145 17.7154 11.828C16.188 11.9158 14.6588 11.9725 13.0686 12.0083C13.2129 11.8641 13.4143 11.6627 13.6255 11.652C15.1809 11.5729 16.7382 11.5318 18.3509 11.5232Z" fill="#E70D3D"/>
<path d="M18.845 62.4307C19.4588 62.4386 19.9916 62.4513 20.6007 62.4894C20.5037 62.6213 20.3317 62.8184 20.1567 62.821C17.8082 62.8564 15.4592 62.8706 13.1103 62.8693C12.9113 62.8691 12.7124 62.721 12.5066 62.5698C14.5878 62.4771 16.6758 62.4563 18.845 62.4307Z" fill="#E70D3D"/>
<path d="M5.72998 33.0968C5.85607 33.0273 5.96332 33.0396 6.12519 33.0559C6.18974 35.3884 6.19967 37.7168 6.19466 40.1262C6.07337 40.0311 5.87979 39.8579 5.87397 39.6787C5.80362 37.5125 5.761 35.3453 5.72998 33.0968Z" fill="#E70D3D"/>
<path d="M46.1763 39.3974C46.1756 38.4319 46.1847 37.534 46.2284 36.5576C46.3774 36.7441 46.5832 37.0062 46.5912 37.2742C46.6413 38.9571 46.6474 40.6413 46.5966 42.3904C46.4527 42.4594 46.3802 42.463 46.3077 42.4666C46.2672 41.466 46.2267 40.4654 46.1763 39.3974Z" fill="#E70D3D"/>
<path d="M6.22705 42.5406C6.349 42.467 6.45639 42.4746 6.61587 42.4917C6.69637 43.6494 6.7248 44.7976 6.74574 46.1083C6.71204 46.5441 6.68582 46.8176 6.65961 47.091C6.53343 46.7996 6.31317 46.5132 6.29758 46.2161C6.23484 45.0197 6.23535 43.8201 6.22705 42.5406Z" fill="#E70D3D"/>
<path d="M45.317 13.7756C45.3139 14.5613 45.3044 15.2719 45.2781 16.0621C45.15 15.8858 44.9677 15.6372 44.9408 15.3728C44.8487 14.4688 44.8381 13.5563 44.7383 12.6534C44.704 12.3429 44.499 12.0512 44.3792 11.6818C44.7169 11.5405 45.0475 11.4683 45.4383 11.3276C45.4985 11.259 45.5847 11.2546 45.5847 11.2546C45.9675 11.7671 45.3852 12.0019 45.2727 12.4332C45.2912 12.8981 45.301 13.2993 45.317 13.7756Z" fill="#E70D3D"/>
<path d="M47.1675 58.8389C47.1958 58.7042 47.188 58.4761 47.258 58.449C48.1024 58.1225 48.099 57.4246 48.1222 56.6302C48.2773 56.5807 48.3705 56.6048 48.4637 56.629C48.4683 57.7842 48.4729 58.9394 48.3804 60.1647C48.1441 59.8145 48.005 59.3943 47.849 58.923C47.66 58.8996 47.4137 58.8693 47.1675 58.8389Z" fill="#E70D3D"/>
<path d="M46.254 42.5156C46.3803 42.4628 46.4528 42.4592 46.5778 42.4713C46.65 43.6379 46.6697 44.7889 46.6805 46.0191C46.6556 46.3598 46.6395 46.6213 46.6127 46.961C46.4541 46.3441 46.2364 45.6546 46.1769 44.9517C46.1102 44.1624 46.1863 43.361 46.254 42.5156Z" fill="#E70D3D"/>
<path d="M30.5407 11.083C30.0443 11.2629 29.476 11.5074 28.8899 11.5622C28.0581 11.64 27.2132 11.5782 26.3035 11.5014C26.2456 11.325 26.258 11.2232 26.2705 11.1215C27.6672 11.102 29.064 11.0825 30.5407 11.083Z" fill="#E70D3D"/>
<path d="M24.8933 62.4488C24.8362 62.3225 24.8598 62.2251 24.8919 62.0781C26.1739 62.0047 27.4473 61.9808 28.8 61.9802C28.4438 62.1515 28.0161 62.3892 27.5709 62.4283C26.7104 62.504 25.8401 62.4676 24.8933 62.4488Z" fill="#E70D3D"/>
<path d="M9.08337 12.4802C8.96585 12.48 8.92888 12.4698 8.83789 12.4398C9.08873 12.2669 9.38577 12.0037 9.69992 11.9814C10.6386 11.9147 11.584 11.9423 12.6066 11.9597C11.5124 12.1477 10.3381 12.309 9.08337 12.4802Z" fill="#E70D3D"/>
<path d="M47.1198 58.8822C47.4137 58.8694 47.66 58.8998 47.849 58.9231C48.005 59.3944 48.1441 59.8147 48.3561 60.2423C48.1907 60.4588 47.9525 60.668 47.7764 60.8227C47.5185 60.3573 47.3246 60.0075 47.0532 59.6746C47.0078 59.4361 47.04 59.1807 47.1198 58.8822Z" fill="#E70D3D"/>
<path d="M7.5475 56.2076C7.57335 56.0838 7.58843 56.0358 7.62407 55.915C7.75796 56.1768 7.90799 56.5039 7.97726 56.8473C8.14219 57.6648 8.26894 58.49 8.35035 59.3461C8.05503 58.6936 7.79196 58.015 7.59851 57.3171C7.50835 56.9919 7.55312 56.6292 7.5475 56.2076Z" fill="#E70D3D"/>
<path d="M26.1897 11.1047C26.258 11.2232 26.2456 11.325 26.2226 11.4764C25.3395 11.5396 24.4669 11.5532 23.5192 11.4868C23.4572 11.3107 23.4702 11.2145 23.4833 11.1183C24.3585 11.1082 25.2337 11.098 26.1897 11.1047Z" fill="#E70D3D"/>
<path d="M23.4024 11.1042C23.4703 11.2145 23.4572 11.3107 23.442 11.4552C22.6719 11.4915 21.9039 11.4795 21.0718 11.426C21.3522 11.2867 21.6916 11.1441 22.0429 11.1028C22.4638 11.0534 22.8949 11.0904 23.4024 11.1042Z" fill="#E70D3D"/>
<path d="M45.6161 11.2053C45.5846 11.2546 45.4985 11.259 45.4558 11.2652C45.0858 11.084 44.7585 10.8967 44.3948 10.6578C44.5876 9.8924 45.1663 10.294 45.6694 10.2272C45.7113 10.5424 45.6794 10.8492 45.6161 11.2053Z" fill="#E70D3D"/>
<path d="M6.64502 47.1627C6.68581 46.8175 6.71202 46.5441 6.74799 46.1885C6.863 46.4533 7.01984 46.7943 7.06082 47.1488C7.11572 47.6237 7.08095 48.109 7.07567 48.6717C6.99076 48.7513 6.91485 48.749 6.7819 48.7461C6.69339 48.2417 6.66192 47.7381 6.64502 47.1627Z" fill="#E70D3D"/>
<path d="M48.4874 56.5661C48.3703 56.6048 48.2772 56.5806 48.136 56.5528C47.9019 56.2585 47.7158 55.9679 47.5225 55.6161C47.5267 55.4583 47.5382 55.3618 47.5646 55.1941C47.8902 55.5829 48.2008 56.043 48.4874 56.5661Z" fill="#E70D3D"/>
<path d="M8.45459 59.854C8.7506 60.1913 9.03683 60.5955 9.32969 61.0632C8.6751 60.994 8.47332 60.5216 8.45459 59.854Z" fill="#E70D3D"/>
<path d="M9.33325 61.1968C9.66027 61.3926 9.98023 61.6538 10.3411 61.9571C9.79841 62.0854 9.49245 61.7739 9.33325 61.1968Z" fill="#E70D3D"/>
<path d="M11.4883 62.3286C11.7983 61.8178 12.1583 61.8749 12.5114 62.3862C12.1941 62.421 11.8732 62.3921 11.4883 62.3286Z" fill="#E70D3D"/>
<path d="M10.3894 62.0583C10.4966 62.0136 10.6051 62.0267 10.7289 62.0954C10.6938 62.2442 10.6434 62.3375 10.593 62.4308C10.5256 62.3259 10.4581 62.2211 10.3894 62.0583Z" fill="#E70D3D"/>
<path d="M6.21049 20.0906C6.09017 20.1584 5.98468 20.1688 5.82764 20.1884C5.87543 20.0623 5.97478 19.927 6.13741 19.7954C6.2089 19.8771 6.2171 19.9552 6.21049 20.0906Z" fill="#E70D3D"/>
<path d="M65.3148 36.1056C64.4391 35.8973 63.5454 35.6513 62.6742 35.3419C62.0112 35.1065 61.3845 34.8494 60.8153 35.6194C60.8083 34.7785 61.0992 34.4649 61.848 34.6746C62.9863 34.9933 64.0962 35.4141 65.2139 35.8037C65.266 35.8219 65.2766 35.9589 65.3148 36.1056Z" fill="#E70D3D"/>
<path d="M62.4346 30.6101C62.3965 31.1402 62.2923 31.6765 62.1636 32.346C62.1383 32.6203 62.1375 32.7612 62.1368 32.9022C61.9817 32.7594 61.6704 32.571 61.6966 32.4812C61.8817 31.8482 62.1361 31.2354 62.4346 30.6101Z" fill="#E70D3D"/>
<path d="M62.1402 32.9028C62.1376 32.7612 62.1383 32.6202 62.1615 32.4121C62.9228 32.4877 63.6617 32.6304 64.3385 32.8376C64.1474 32.9086 64.0185 32.915 63.8895 32.9215C63.4859 32.8967 63.0823 32.8719 62.5424 32.8714C62.3202 32.8999 62.2344 32.9041 62.1486 32.9082C62.1486 32.9082 62.1436 32.9035 62.1402 32.9028Z" fill="#E70D3D"/>
<path d="M66.9987 29.4062C66.9219 29.5168 66.7429 29.7183 66.6423 29.6848C66.0227 29.4783 65.4209 29.2187 64.8074 28.9094C65.512 29.0242 66.2224 29.2063 66.9987 29.4062Z" fill="#E70D3D"/>
<path d="M66.1995 26.626C66.8405 26.6879 67.502 26.8125 68.2299 26.9669C68.1797 27.0935 68.0331 27.2941 67.9512 27.2705C67.3667 27.1022 66.7954 26.8881 66.1995 26.626Z" fill="#E70D3D"/>
<path d="M63.8938 32.9827C64.0183 32.9148 64.1473 32.9084 64.3411 32.9043C64.6966 33.2085 64.9873 33.5104 65.2908 33.8701C64.8351 33.6333 64.3667 33.3387 63.8938 32.9827Z" fill="#E70D3D"/>
<path d="M64.4901 28.7188C64.0546 28.8101 63.6159 28.8325 63.1116 28.8641C63.2273 28.2139 63.8163 28.1225 64.4901 28.7188Z" fill="#E70D3D"/>
<path d="M57.9444 44.2419C57.9022 44.6606 57.8067 45.1094 57.6526 45.5823C57.693 45.1616 57.7921 44.7168 57.9444 44.2419Z" fill="#E70D3D"/>
<path d="M58.4067 42.7942C58.3658 43.1426 58.2611 43.5046 58.0911 43.8765C58.1315 43.5269 58.2373 43.1673 58.4067 42.7942Z" fill="#E70D3D"/>
<path d="M58.8396 41.0906C58.8077 41.4033 58.7091 41.7317 58.5593 42.0894C58.5964 41.7812 58.6847 41.4437 58.8396 41.0906Z" fill="#E70D3D"/>
<path d="M65.3047 34.0012C65.4878 33.7886 65.6711 33.648 65.8992 33.489C65.9974 33.6913 66.0506 33.912 66.1038 34.1327C65.8375 34.1128 65.5712 34.093 65.3047 34.0012Z" fill="#E70D3D"/>
<path d="M59.3112 39.6956C59.2671 40.0258 59.1657 40.3823 59.0056 40.7629C59.0492 40.4318 59.1515 40.0768 59.3112 39.6956Z" fill="#E70D3D"/>
<path d="M64.9619 26.1384C65.2676 26.1836 65.5662 26.2982 65.8766 26.4749C65.5772 26.4273 65.266 26.3176 64.9619 26.1384Z" fill="#E70D3D"/>
<path d="M56.7725 47.4168C56.9309 47.3435 57.0875 47.3365 57.2993 47.3375C57.4492 47.4762 57.5441 47.607 57.6389 47.8032C57.3495 47.7401 57.0601 47.6116 56.7725 47.4168Z" fill="#E70D3D"/>
<path d="M67.9616 36.5227C67.9289 36.8176 67.8342 37.127 67.6746 37.4435C67.7063 37.1462 67.8029 36.8417 67.9616 36.5227Z" fill="#E70D3D"/>
<path d="M68.3815 35.1555C68.36 35.4203 68.2826 35.6999 68.1423 35.9971C68.1615 35.7332 68.2436 35.4518 68.3815 35.1555Z" fill="#E70D3D"/>
<path d="M68.8533 33.739C68.8246 33.9329 68.7376 34.141 68.5854 34.3472C68.6119 34.148 68.7033 33.9506 68.8533 33.739Z" fill="#E70D3D"/>
<path d="M69.2281 32.3582C69.2388 32.5349 69.1887 32.7282 69.0705 32.9196C69.0574 32.7368 69.1124 32.5558 69.2281 32.3582Z" fill="#E70D3D"/>
<path d="M67.0357 39.7263C67.024 39.9079 66.9453 40.0852 66.801 40.2588C66.8132 40.0773 66.891 39.8997 67.0357 39.7263Z" fill="#E70D3D"/>
<path d="M62.1589 32.9576C62.2344 32.9039 62.3202 32.8998 62.4705 32.8977C62.4131 32.9356 62.2912 32.9713 62.1589 32.9576Z" fill="#E70D3D"/>
<path d="M12.1152 25.7113C12.9058 24.8435 13.6964 23.9757 14.527 23.064C14.4109 22.8098 14.2332 22.4208 14.083 21.931C13.8982 20.8221 13.7971 19.8278 14.3552 18.8771C14.4297 18.7503 14.3674 18.5433 14.3684 18.3735C14.8003 17.9188 15.2322 17.4641 15.8001 17.0299C16.3825 16.9377 17.0001 17.2541 17.2072 16.5427C17.4684 16.5474 17.7296 16.5521 18.0319 16.673C18.3471 17.0661 18.6039 17.2145 18.7699 16.6945C19.5899 17.1469 20.4244 17.5846 20.6916 18.7313C20.8541 19.2988 21.0237 19.7268 21.1933 20.1549C21.2022 20.2851 21.2111 20.4152 21.1439 20.6221C20.8829 21.1538 20.725 21.6221 20.5077 22.061C20.0006 23.0851 20.3469 23.6863 21.5463 23.8155C22.0802 24.5572 22.6141 25.2989 23.1981 26.1466C23.4455 26.9297 23.6886 27.5983 23.8164 28.2884C23.8638 28.5441 23.6668 28.8635 23.5321 29.1288C23.4236 29.3426 23.241 29.5187 23.0913 29.7115C23.0913 29.7115 23.1169 29.7414 23.0298 29.7131C22.5379 29.7095 22.133 29.7342 21.648 29.7466C19.4797 29.9032 17.3914 30.0722 15.225 30.2088C13.9697 30.0305 12.7926 29.8846 11.6155 29.7386C11.6155 29.7386 11.6127 29.7411 11.6179 29.676C11.502 29.48 11.3809 29.3491 11.2597 29.2182C11.2523 29.0875 11.2448 28.9568 11.3085 28.744C11.4641 28.1001 11.5485 27.5383 11.6329 26.9765C11.6428 26.9025 11.6528 26.8286 11.7389 26.7036C11.9151 26.3388 12.0151 26.025 12.1152 25.7113ZM18.4283 19.1272C18.2325 19.0189 18.0366 18.9106 17.7192 18.8097C17.5569 18.8048 17.3947 18.7999 17.0837 18.7566C16.7308 18.8588 16.0903 18.4912 16.1453 19.2811C16.1453 19.2811 16.1768 19.3118 16.0481 19.2975C15.968 19.47 15.888 19.6425 15.7943 19.9591C15.754 20.4651 15.7171 20.9697 16.3589 21.3457C16.9488 22.0698 17.7457 21.8276 18.2691 21.4657C18.7008 21.1672 19.3978 20.6412 18.9406 19.7004C18.7716 19.5554 18.6026 19.4105 18.4221 19.2745C18.4221 19.2745 18.4257 19.2603 18.4283 19.1272ZM14.7431 27.9103C16.8848 27.7769 19.0265 27.6435 21.2153 27.5072C20.9452 26.011 19.8564 25.4038 18.9053 24.7346C18.5079 24.4549 17.783 24.2139 17.4224 24.3918C16.4811 24.8562 15.567 25.4708 14.8316 26.2132C14.5132 26.5346 14.6611 27.3178 14.7431 27.9103Z" fill="#E70D3D"/>
<path d="M14.2275 46.8272C14.0645 46.5035 13.7012 45.957 13.772 45.8934C14.1505 45.5533 14.6128 45.263 15.0948 45.0957C15.4532 44.9713 15.8857 45.0601 16.42 45.0731C17.4605 45.0864 18.3662 45.0807 19.3434 45.0817C19.7214 44.9785 20.028 44.8685 20.415 44.7454C22.449 44.5815 24.4015 44.4163 26.3562 44.2837C28.4822 44.1395 30.6089 43.9908 32.7378 43.9089C34.677 43.8342 36.6201 43.866 38.5603 43.8114C39.4956 43.7851 40.0025 44.2236 40.2154 45.0883C40.1819 45.1461 40.1485 45.2039 40.1298 45.3194C40.1445 45.3771 40.1145 45.3988 40.1145 45.3988C40.0537 45.384 39.9929 45.3691 39.8538 45.2853C39.2133 45.3324 38.6512 45.4486 38.009 45.571C36.3278 45.7144 34.7282 45.8757 33.1249 45.9816C31.6854 46.0767 30.2409 46.097 28.8007 46.1847C28.529 46.2012 28.2672 46.3788 27.9202 46.481C27.148 46.4997 26.4564 46.5196 25.684 46.5163C24.9104 46.4985 24.2176 46.5056 23.5247 46.5086C20.5845 46.5214 17.6443 46.5285 14.7042 46.5569C14.5445 46.5584 14.3864 46.7331 14.2275 46.8272Z" fill="#E70D3D"/>
<path d="M39.8123 35.7018C39.8834 35.9343 39.9545 36.1667 39.9501 36.4737C39.542 36.6837 39.2184 36.9043 38.8754 36.9406C37.0831 37.1302 35.286 37.2742 33.4903 37.4311C33.1752 37.4586 32.8588 37.472 32.4633 37.4759C31.355 37.5659 30.3286 37.7131 29.2972 37.7706C26.0713 37.9503 22.8445 38.1226 19.616 38.2442C17.9356 38.3075 16.2504 38.281 14.5686 38.2421C14.1925 38.2334 13.8215 38.0028 13.4163 37.8633C13.6292 37.4815 13.7491 37.2667 13.8689 37.0518C13.8689 37.0518 13.8768 37.0531 13.9581 37.0682C14.907 37.0682 15.7803 37.1063 16.64 37.0155C17.063 36.9708 17.4608 36.6876 17.9105 36.4582C18.2201 36.3966 18.4893 36.3891 18.797 36.4464C20.3171 36.3997 21.7987 36.2898 23.2801 36.1759C25.2892 36.0215 27.2962 35.7716 29.3076 35.7282C32.8077 35.6527 36.3106 35.7038 39.8123 35.7018Z" fill="#E70D3D"/>
<path d="M14.5981 54.6621C14.6542 54.4298 14.7102 54.1975 14.8362 53.8973C15.0785 53.8118 15.2509 53.7942 15.5047 53.7956C16.48 53.7999 17.3754 53.8087 18.2669 53.7544C18.4953 53.7405 18.7115 53.5273 19.0038 53.3962C19.7537 53.3657 20.4331 53.3448 21.1919 53.3621C22.8957 53.257 24.5185 53.0904 26.1449 52.9762C28.4351 52.8154 30.7265 52.6499 33.0203 52.5681C34.9901 52.4978 36.9643 52.5205 38.9357 52.5533C39.3556 52.5603 39.7719 52.7886 40.1898 52.915C40.1826 53.0668 40.1754 53.2186 40.1682 53.3705C39.4803 53.5129 38.7976 53.6924 38.1034 53.7892C37.0317 53.9386 35.9542 54.0556 34.8757 54.143C32.6414 54.3241 30.4066 54.5797 28.1688 54.6192C23.6464 54.699 19.1218 54.6551 14.5981 54.6621ZM35.7731 52.9277C35.3117 52.9277 34.8504 52.9277 34.389 52.9277C34.394 53.0057 34.3989 53.0836 34.4039 53.1615C36.0055 53.1615 37.607 53.1615 39.2086 53.1615C39.2087 53.0836 39.2088 53.0057 39.2089 52.9277C38.1205 52.9277 37.0321 52.9277 35.7731 52.9277Z" fill="#E70D3D"/>
<path d="M14.5886 54.7244C19.1217 54.6549 23.6463 54.6988 28.1687 54.619C30.4065 54.5796 32.6413 54.324 34.8756 54.1429C35.9541 54.0555 37.0317 53.9384 38.1033 53.7891C38.7975 53.6923 39.4802 53.5128 40.1681 53.3703C40.1753 53.2185 40.1825 53.0667 40.1897 52.9148C39.7718 52.7885 39.3555 52.5601 38.9356 52.5531C36.9642 52.5203 34.99 52.4977 33.0202 52.5679C30.7264 52.6497 28.435 52.8153 26.1448 52.9761C24.5184 53.0903 22.8956 53.2569 21.2127 53.3174C21.1808 53.1417 21.2074 53.0486 21.2341 52.9556C24.9572 52.7029 28.6787 52.4225 32.404 52.2081C34.575 52.0832 36.7519 52.0555 38.9266 52.0016C39.7181 51.9819 40.2111 52.4669 40.5921 53.0987C40.1224 53.9421 39.4004 54.2278 38.4428 54.2716C36.1315 54.3774 33.8259 54.5994 31.5161 54.7458C28.8898 54.9122 26.2614 55.0474 23.4723 55.1928C20.6304 55.1968 17.95 55.2041 15.2696 55.2115C15.0395 55.0699 14.8093 54.9283 14.5886 54.7244Z" fill="#E70D3D"/>
<path d="M40.2761 45.0724C40.0024 44.2238 39.4956 43.7852 38.5603 43.8115C36.62 43.8661 34.6769 43.8343 32.7378 43.909C30.6089 43.9909 28.4822 44.1396 26.3562 44.2838C24.4015 44.4164 22.4489 44.5816 20.342 44.7337C19.8935 44.7456 19.5984 44.7563 19.2278 44.7528C18.8968 44.7244 18.6414 44.7103 18.386 44.6961C18.7704 44.5487 19.145 44.3199 19.5414 44.2723C20.1993 44.1933 20.8721 44.2492 21.537 44.2161C24.9293 44.0474 28.3472 44.0666 31.7042 43.6252C34.0432 43.3176 36.3533 43.405 38.6738 43.3853C39.2682 43.3802 39.9002 43.8719 40.4525 44.2313C40.8214 44.4714 40.8659 44.8489 40.2761 45.0724Z" fill="#E70D3D"/>
<path d="M13.7992 37.0439C13.7489 37.2669 13.6291 37.4817 13.4161 37.8636C13.8213 38.003 14.1923 38.2336 14.5684 38.2423C16.2502 38.2812 17.9354 38.3077 19.6159 38.2444C22.8443 38.1228 26.0711 37.9505 29.2971 37.7708C30.3285 37.7134 31.3548 37.5662 32.4618 37.5239C32.535 37.6837 32.5299 37.7796 32.5249 37.8756C29.6958 38.0484 26.8682 38.2522 24.0373 38.3855C20.9163 38.5325 17.7926 38.6291 14.6691 38.7074C14.2737 38.7173 13.8267 38.5541 13.4892 38.3377C13.2575 38.1891 13.052 37.8028 13.0669 37.5357C13.0769 37.3573 13.4946 37.2017 13.7992 37.0439Z" fill="#E70D3D"/>
<path d="M39.814 35.6346C36.3105 35.7038 32.8076 35.6527 29.3075 35.7282C27.296 35.7716 25.2891 36.0215 23.2799 36.1759C21.7986 36.2898 20.3169 36.3997 18.8115 36.4005C18.8365 36.2487 18.8854 36.2078 18.9343 36.167C20.269 36.0267 21.602 35.8664 22.939 35.7529C23.8638 35.6743 24.7944 35.6645 25.722 35.6165C28.8675 35.454 32.0129 35.2881 35.3205 35.1208C36.4757 35.1118 37.4688 35.1056 38.4618 35.0994C38.9132 35.2554 39.3645 35.4114 39.814 35.6346Z" fill="#E70D3D"/>
<path d="M28.0007 46.4821C28.2671 46.3788 28.529 46.2012 28.8006 46.1847C30.2409 46.0971 31.6853 46.0767 33.1249 45.9816C34.7281 45.8757 36.3277 45.7144 38.0857 45.5813C38.4991 45.6002 38.7557 45.6152 39.0123 45.6301C38.7561 45.7632 38.507 45.9954 38.2427 46.0142C35.1672 46.2327 32.0895 46.4191 28.8664 46.6069C28.4806 46.5606 28.2406 46.5214 28.0007 46.4821Z" fill="#E70D3D"/>
<path d="M14.2639 46.8935C14.3863 46.7331 14.5443 46.5584 14.7041 46.5569C17.6441 46.5285 20.5844 46.5214 23.5246 46.5086C24.2174 46.5056 24.9103 46.4985 25.6754 46.5678C25.7285 46.744 25.7094 46.8455 25.6902 46.9471C21.8936 46.9513 18.097 46.9555 14.2639 46.8935Z" fill="#E70D3D"/>
<path d="M32.606 37.8891C32.5299 37.7795 32.535 37.6835 32.5414 37.5398C32.8586 37.4721 33.175 37.4586 33.4902 37.4311C35.2859 37.2742 37.083 37.1302 38.8752 36.9406C39.2183 36.9043 39.5419 36.6838 39.9412 36.5369C40.0667 37.2806 39.3782 37.3183 38.988 37.362C36.8938 37.5966 34.7886 37.7327 32.606 37.8891Z" fill="#E70D3D"/>
<path d="M15.2866 55.2747C17.95 55.2041 20.6303 55.1968 23.3916 55.2042C22.9908 55.383 22.5128 55.6738 22.0265 55.6885C20.1835 55.744 18.3374 55.7315 16.4935 55.6928C16.0946 55.6845 15.7002 55.4618 15.2866 55.2747Z" fill="#E70D3D"/>
<path d="M15.303 30.2412C17.3913 30.0722 19.4796 29.9033 21.6448 29.7939C21.7112 29.9458 21.7007 30.038 21.6902 30.1303C19.603 30.2935 17.5158 30.4567 15.3498 30.561C15.2817 30.4151 15.2923 30.3282 15.303 30.2412Z" fill="#E70D3D"/>
<path d="M23.1611 29.733C23.2409 29.5185 23.4235 29.3424 23.532 29.1287C23.6667 28.8634 23.8637 28.544 23.8163 28.2882C23.6885 27.5982 23.4454 26.9296 23.2513 26.1809C23.4277 26.2451 23.7087 26.3507 23.7561 26.5213C24.0188 27.4659 24.6615 28.4139 23.9252 29.3999C23.7857 29.5868 23.467 29.6399 23.1611 29.733Z" fill="#E70D3D"/>
<path d="M21.1525 52.9338C21.2075 53.0486 21.1809 53.1416 21.1334 53.2792C20.4331 53.3446 19.7537 53.3655 18.9454 53.3632C18.2135 53.3463 17.6104 53.3525 17.0073 53.3587C17.24 53.2206 17.4675 52.974 17.7061 52.9628C18.826 52.9104 19.9489 52.9227 21.1525 52.9338Z" fill="#E70D3D"/>
<path d="M17.8699 36.5125C17.4607 36.6878 17.0629 36.9711 16.6399 37.0157C15.7802 37.1065 14.9069 37.0684 13.958 37.0724C14.6952 36.8859 15.5136 36.7104 16.4861 36.5391C17.0501 36.533 17.46 36.5227 17.8699 36.5125Z" fill="#E70D3D"/>
<path d="M15.2248 30.2086C15.2922 30.3279 15.2815 30.4149 15.2687 30.5459C14.3279 30.5427 13.3842 30.5374 12.4537 30.4239C12.1547 30.3874 11.8905 30.0657 11.6128 29.8064C12.7924 29.8844 13.9695 30.0303 15.2248 30.2086Z" fill="#E70D3D"/>
<path d="M14.3048 18.3843C14.3673 18.5432 14.4296 18.7502 14.3552 18.877C13.797 19.8277 13.8981 20.822 14.0634 21.8653C13.2583 20.9043 13.3531 19.4252 14.3048 18.3843Z" fill="#E70D3D"/>
<path d="M16.9424 53.3625C17.6103 53.3526 18.2133 53.3464 18.8748 53.3729C18.7114 53.5272 18.4951 53.7404 18.2668 53.7543C17.3753 53.8086 16.4799 53.7998 15.5198 53.7408C15.451 53.5917 15.4483 53.5164 15.4456 53.4411C15.9229 53.4161 16.4003 53.3912 16.9424 53.3625Z" fill="#E70D3D"/>
<path d="M21.515 23.763C20.3468 23.6861 20.0005 23.0849 20.5076 22.0609C20.7249 21.622 20.8828 21.1537 21.131 20.6863C21.0708 21.1667 20.9863 21.6739 20.8131 22.1487C20.6295 22.6522 20.3861 23.1074 21.1351 23.3556C21.2752 23.402 21.3687 23.5886 21.515 23.763Z" fill="#E70D3D"/>
<path d="M25.7733 46.9667C25.7095 46.8455 25.7286 46.744 25.7562 46.5909C26.4563 46.5196 27.148 46.4997 27.9202 46.481C28.2407 46.5214 28.4806 46.5606 28.7833 46.6115C28.6297 46.7423 28.4184 46.9518 28.1959 46.9644C27.4181 47.0084 26.6364 46.9845 25.7733 46.9667Z" fill="#E70D3D"/>
<path d="M18.3085 44.6978C18.6413 44.71 18.8967 44.7242 19.2174 44.8033C19.279 44.9371 19.2754 45.006 19.2717 45.0748C18.366 45.0806 17.4604 45.0863 16.49 45.0452C17.0273 44.8989 17.6292 44.7993 18.3085 44.6978Z" fill="#E70D3D"/>
<path d="M38.4407 35.0345C37.4689 35.1057 36.4758 35.1119 35.4014 35.1095C35.3829 35.013 35.4478 34.8472 35.5079 34.8489C36.4788 34.8765 37.4491 34.9255 38.4407 35.0345Z" fill="#E70D3D"/>
<path d="M17.9105 36.4584C17.4601 36.5227 17.0502 36.533 16.5645 36.5291C16.6805 36.3519 16.8616 36.0672 17.0663 36.049C17.6495 35.9972 18.2422 36.0541 18.8828 36.1177C18.8856 36.208 18.8367 36.2489 18.7731 36.3357C18.4893 36.3893 18.2201 36.3968 17.9105 36.4584Z" fill="#E70D3D"/>
<path d="M11.5721 26.9934C11.5484 27.5383 11.464 28.1001 11.3135 28.6783C11.3353 28.1333 11.4234 27.5718 11.5721 26.9934Z" fill="#E70D3D"/>
<path d="M21.7614 30.1621C21.7007 30.0379 21.7112 29.9457 21.7249 29.8061C22.133 29.7341 22.5379 29.7094 23.0175 29.698C22.9224 30.5249 22.2934 30.1401 21.7614 30.1621Z" fill="#E70D3D"/>
<path d="M39.0833 45.6341C38.7557 45.6153 38.4991 45.6004 38.1658 45.5752C38.6511 45.4487 39.2132 45.3326 39.8012 45.2661C39.6029 45.4232 39.3786 45.5305 39.0833 45.6341Z" fill="#E70D3D"/>
<path d="M17.1379 16.5237C17 17.254 16.3824 16.9376 15.8645 17.0312C16.2181 16.8431 16.6434 16.6739 17.1379 16.5237Z" fill="#E70D3D"/>
<path d="M21.2141 20.0867C21.0237 19.7267 20.8541 19.2987 20.6919 18.7964C20.8778 19.1543 21.0563 19.5865 21.2141 20.0867Z" fill="#E70D3D"/>
<path d="M12.0503 25.7219C12.015 26.0249 11.9149 26.3387 11.7471 26.6479C11.7813 26.3399 11.8834 26.0363 12.0503 25.7219Z" fill="#E70D3D"/>
<path d="M15.4118 53.3948C15.4483 53.5164 15.451 53.5917 15.4385 53.7218C15.2509 53.7941 15.0785 53.8117 14.8411 53.8336C14.9767 53.6748 15.1773 53.5116 15.4118 53.3948Z" fill="#E70D3D"/>
<path d="M11.2251 29.2588C11.3808 29.3491 11.502 29.48 11.6191 29.6746C11.4736 29.592 11.332 29.4457 11.2251 29.2588Z" fill="#E70D3D"/>
<path d="M18.6997 16.684C18.6038 17.2144 18.347 17.066 18.0676 16.728C18.2515 16.6692 18.4405 16.6714 18.6997 16.684Z" fill="#E70D3D"/>
<path d="M40.1562 45.3628C40.1649 45.3661 40.1618 45.3837 40.1589 45.4014C40.1579 45.4076 40.1577 45.414 40.1358 45.4096C40.1146 45.3987 40.1445 45.3771 40.1562 45.3628Z" fill="#E70D3D"/>
<path d="M16.1407 19.7983C16.192 20.2272 16.2432 20.6561 16.2963 21.157C15.717 20.9696 15.7539 20.465 15.8564 19.8818C15.9926 19.8025 16.0667 19.8004 16.1407 19.7983Z" fill="#E70D3D"/>
<path d="M17.1579 18.7757C16.9238 18.9679 16.6153 19.1409 16.2417 19.3127C16.0901 18.4911 16.7306 18.8587 17.1579 18.7757Z" fill="#E70D3D"/>
<path d="M18.9265 19.7654C18.7595 19.6815 18.6064 19.5325 18.4434 19.3245C18.6025 19.4103 18.7715 19.5553 18.9265 19.7654Z" fill="#E70D3D"/>
<path d="M18.427 19.1936C18.2467 19.1437 18.0678 19.0273 17.8647 18.8564C18.0366 18.9104 18.2324 19.0187 18.427 19.1936Z" fill="#E70D3D"/>
<path d="M16.1589 19.7385C16.0668 19.8006 15.9927 19.8027 15.8633 19.8099C15.888 19.6425 15.968 19.47 16.1124 19.3047C16.1768 19.4341 16.1769 19.5564 16.1589 19.7385Z" fill="#E70D3D"/>
<path d="M19.3434 45.0816C19.2756 45.006 19.2792 44.9372 19.2932 44.8176C19.5985 44.7562 19.8936 44.7455 20.2616 44.7467C20.0281 44.8685 19.7215 44.9784 19.3434 45.0816Z" fill="#E70D3D"/>
<path d="M35.8583 52.9277C37.032 52.9277 38.1204 52.9277 39.2088 52.9277C39.2087 53.0057 39.2086 53.0836 39.2085 53.1615C37.607 53.1615 36.0054 53.1615 34.4038 53.1615C34.3988 53.0836 34.3939 53.0057 34.3889 52.9277C34.8503 52.9277 35.3116 52.9277 35.8583 52.9277Z" fill="#E70D3D"/>
</svg>
