<svg width="75" height="75" viewBox="0 0 75 75" fill="none" xmlns="http://www.w3.org/2000/svg">
<path d="M71.5054 65.6078C69.9685 66.0977 68.5346 66.2763 67.0489 65.8852C66.4846 65.7367 65.871 65.7568 65.3585 66.1621C62.6957 68.2677 59.6215 68.7267 56.3404 68.4986C54.9734 68.4036 53.7272 67.9184 52.5856 67.315C51.2172 66.5919 49.9611 66.6638 48.6294 67.1671C46.8921 67.8236 45.2092 67.8328 43.5076 66.9893C42.4546 66.4674 41.3371 66.1217 40.1212 66.0692C37.7512 65.9667 37.4293 65.2487 37.9044 62.8926C38.7149 58.873 40.0874 55.0653 41.8592 51.402C43.6329 47.7347 45.7009 44.2185 48.1417 40.9534C48.9544 39.8663 48.9943 38.9406 48.3544 37.8707C47.3973 36.2702 46.478 34.6434 45.4425 33.0947C44.4848 31.6625 44.4342 30.2906 45.3192 28.8388C45.6505 28.2952 45.9007 27.701 46.2443 27.1662C48.1507 24.1994 48.1566 24.2032 46.6145 20.7753C45.4708 20.5529 44.8659 21.4658 44.1056 22.0198C43.3795 22.5488 42.6669 23.0274 41.9438 22.1039C41.2635 21.2351 41.749 20.5203 42.4206 19.9369C44.8519 17.8249 47.7124 16.6429 50.8642 16.1053C51.971 15.9165 53.0766 15.7168 54.1758 15.4883C54.9189 15.3339 55.4598 14.9094 55.4304 14.0859C55.3849 12.8152 56.0303 11.9582 56.9736 11.24C57.1277 11.1226 57.2483 10.961 57.3831 10.8185C57.9116 10.2601 58.3354 9.64531 58.0091 8.84246C57.8362 8.41703 57.4334 8.0806 56.9732 8.13907C56.2332 8.23309 55.572 8.5048 55.2771 9.33589C54.9682 10.2064 54.2617 10.6448 53.4157 10.2301C52.5067 9.78441 52.7269 8.94414 53.0623 8.17496C53.815 6.44853 55.5535 5.34088 57.2362 5.51867C59.0878 5.7143 60.4041 6.79241 60.7322 8.75154C60.9614 10.1198 60.219 11.2973 59.272 12.2823C59.001 12.5642 58.6458 12.767 58.3841 13.0558C57.5471 13.9798 57.8247 15.1223 59.0047 15.4421C60.5623 15.8643 62.1379 16.2092 63.7462 16.4177C65.9469 16.703 67.7999 17.7659 69.3897 19.2661C69.8333 19.6846 70.2581 20.2985 69.8227 20.9667C69.3614 21.6747 68.7675 21.3697 68.1334 21.1249C66.3781 20.4471 66.5295 20.5514 65.7195 22.3264C64.7903 24.3625 65.1017 25.8503 66.6932 27.4086C67.9551 28.6442 68.4402 30.853 67.1807 32.6588C65.9249 34.4594 64.9717 36.473 63.9129 38.4081C63.3853 39.3726 63.4054 40.3538 63.8489 41.3804C65.9993 46.3577 68.1377 51.3405 70.238 56.3391C71.033 58.2313 71.8345 60.1141 72.7647 61.9469C73.9182 64.2196 73.8666 64.2746 71.5054 65.6078ZM50.5546 43.18C47.4644 47.5598 44.9077 52.1918 43.2827 57.3463C41.6369 62.5668 41.5377 62.55 45.0965 64.4544C45.1396 64.4774 45.1756 64.514 45.2193 64.5352C46.639 65.2235 49.3115 64.1097 49.8834 62.669C50.3189 61.5718 50.5998 60.4342 50.9721 59.3236C51.1756 58.7167 51.4711 57.8688 52.3582 58.0808C53.203 58.2827 53.1484 59.1085 53.1141 59.797C53.0678 60.7271 52.9953 61.6575 52.8896 62.5827C52.7844 63.505 53.2498 64.0955 53.9834 64.4877C56.8809 66.0366 59.9427 65.7993 62.7633 64.6075C64.5687 63.8447 66.2397 63.1477 68.2127 63.3033C69.0812 63.3718 69.9563 63.305 70.7388 62.6409C68.4208 58.574 66.2433 54.4886 64.3535 50.2493C64.7244 51.7251 65.3668 53.109 65.6857 54.5638C66.0104 56.0445 67.1574 57.3313 66.8251 59.1245C64.6334 58.5165 65.0202 56.0874 63.5213 54.8738C63.8235 56.1939 64.1391 57.2882 64.6565 58.3557C65.0626 59.1934 65.6486 60.5048 64.5231 60.9363C63.2093 61.4401 63.0679 59.9269 62.8264 59.066C62.0084 56.15 61.2222 53.2208 60.5666 50.265C60.1802 48.5227 59.9838 46.7054 61.4035 45.1873C62.4755 45.6085 62.573 46.6563 63.2599 47.4766C62.5273 45.3352 61.8544 43.3682 61.1492 41.3068C58.4311 41.9857 55.7749 42.1514 53.1475 41.8286C51.9009 41.6754 51.1889 41.966 50.5546 43.18ZM50.3388 27.3829C49.7681 28.297 49.2354 29.2379 48.6143 30.1164C48.144 30.7816 48.1415 31.3078 48.4264 32.1168C49.1514 34.176 51.0486 35.5447 51.5483 37.7063C51.649 38.1423 52.0782 37.9957 52.4059 38.0622C54.4619 38.4799 56.521 37.8791 58.5753 38.1152C59.0612 38.1711 59.4214 37.8837 59.6805 37.4995C60.7879 35.8582 62.2848 34.5739 63.6579 33.1801C64.9291 31.8898 65.414 30.3811 65.1684 28.614C64.8845 26.5713 63.4159 25.8302 61.5874 26.7272C60.2088 27.4035 58.8854 28.1537 57.8318 29.2746C56.9449 30.2181 56.1991 30.084 55.358 29.2322C54.3082 28.169 53.0294 27.443 51.6449 26.8897C51.1398 26.6879 50.6998 26.5593 50.3388 27.3829ZM53.9669 24.6449C55.6522 26.2205 57.3468 26.6802 59.1349 24.767C59.3786 24.5062 59.8422 24.4555 60.1977 24.2936C61.3492 23.7692 62.7803 20.9272 62.5342 19.6843C62.4694 19.3568 62.2744 19.1491 61.9825 19.0547C58.7411 18.0064 55.4776 17.5838 52.1665 18.7495C51.8786 18.8509 51.6506 19.0039 51.5784 19.339C51.2443 20.8878 52.4106 23.6956 53.9669 24.6449ZM45.5594 48.5233C45.8119 47.9704 46.2494 47.4673 46.0732 46.6382C44.7252 47.4635 44.8744 48.7657 44.7199 49.9438C44.9556 49.5225 45.1914 49.1012 45.5594 48.5233Z" fill="#E70D3D"/>
<path d="M2.50302 48.0314C2.46113 44.8261 2.86743 41.7369 2.98443 38.6319C3.07643 36.1905 3.37641 33.7152 3.87363 31.2878C4.31974 29.1099 5.83136 28.0759 7.75366 27.4434C8.56192 27.1774 9.39256 26.966 10.2268 26.7984C10.6429 26.7148 10.7953 26.4227 10.9839 26.1433C11.8712 24.8287 12.8466 23.5837 13.9062 22.4045C14.531 21.7091 15.243 21.3497 16.2486 21.4437C20.4224 21.8341 24.6108 21.7399 28.7956 21.6877C29.4551 21.6794 30.1157 21.5654 30.7712 21.4693C31.6621 21.3387 32.2027 21.7781 32.6113 22.5038C33.1811 23.516 33.8619 24.4762 34.3322 25.5313C34.9277 26.8673 36.1613 27.0371 37.3024 27.4053C38.8091 27.8914 40.249 28.4538 40.7921 30.142C41.0029 30.7973 41.3031 31.4862 41.2713 32.1457C41.1728 34.1867 41.7947 36.1525 41.7297 38.1958C41.6206 41.6218 41.6018 45.0599 41.8668 48.4777C42.0883 51.3349 42.0051 54.1875 42.0787 57.0416C42.1095 58.2329 41.7063 59.3445 41.6377 60.5201C41.5769 61.5618 40.4492 62.2995 39.2083 62.3834C38.7992 62.4111 38.3856 62.5407 38.0051 62.5569C36.6152 62.6159 35.5527 63.4147 34.3431 63.8941C33.2064 64.3445 31.8816 64.4 30.631 64.4661C28.0681 64.6017 25.5027 64.428 22.9302 64.735C21.3487 64.9237 19.7081 64.5736 18.0923 64.5292C16.2518 64.4786 14.4071 64.4412 12.5686 64.5112C11.5551 64.5499 10.6613 64.075 9.67431 64.0553C9.35117 64.0489 9.08333 63.7509 8.97565 63.4624C8.7386 62.8271 8.28137 62.7431 7.69236 62.7614C6.70894 62.7919 5.72339 62.7824 4.73943 62.7598C3.13415 62.723 2.50665 62.0838 2.5056 60.5112C2.50284 56.383 2.50366 52.2548 2.50302 48.0314ZM33.9063 29.898C33.0539 31.518 32.1934 33.1339 31.3519 34.7595C30.7578 35.907 30.236 37.0944 29.5959 38.2148C29.0112 39.2382 28.3281 39.2793 27.5618 38.404C27.1663 37.9523 26.8524 37.4303 26.4801 36.9569C25.7758 36.0612 25.2841 35.0013 24.3032 34.0154C24.4936 35.1649 24.1259 36.008 23.8218 36.8073C23.5465 37.5307 23.5882 37.9617 24.1563 38.4581C24.9256 39.1303 25.0714 40.084 24.6129 40.9549C24.3346 41.4837 24.0905 42.0136 23.9138 42.5959C23.7588 43.1065 23.4556 43.7751 22.82 43.7539C22.1278 43.7308 21.8641 43.1002 21.7764 42.4613C21.577 41.0087 21.5233 39.56 21.8005 38.1042C22.0496 36.7959 21.6755 35.5021 21.701 34.1858C21.5228 34.2776 21.4478 34.375 21.3778 34.4758C20.4754 35.7742 19.6061 37.0973 18.6611 38.3638C17.9771 39.2805 17.1668 39.248 16.4847 38.3436C16.1803 37.94 15.9128 37.5037 15.6685 37.0603C14.3735 34.7092 13.0973 32.3478 11.7979 29.9991C11.5956 29.6334 11.4474 28.9477 10.9549 29.1231C9.91959 29.4917 8.77579 29.5424 7.82721 30.137C7.00079 30.6551 6.91541 31.622 6.64921 32.4271C5.72635 35.2183 5.84135 38.1745 5.57273 41.0492C5.27904 44.1922 5.10267 47.3587 4.86125 50.5141C4.62694 53.5766 4.71458 56.6639 4.14621 59.7013C4.1006 59.945 4.12878 60.2112 4.16772 60.46C4.21892 60.787 4.47658 61.0647 4.75672 60.859C5.57936 60.255 6.45018 60.4776 7.32589 60.5715C7.97494 60.6411 8.25573 60.3611 8.2322 59.6968C8.18497 58.3632 8.33948 57.0407 8.45113 55.7121C8.65551 53.2801 8.70598 50.8355 8.85398 48.3982C8.93658 47.0378 9.06191 45.6786 9.21844 44.3247C9.27648 43.8228 9.58949 43.4134 10.1624 43.4479C10.6656 43.4783 10.8533 43.8619 10.8283 44.3261C10.6847 46.9983 11.2791 49.6372 11.1632 52.3108C11.0438 55.0673 10.7145 57.8143 10.82 60.5823C10.8528 61.4436 11.1729 61.8816 12.0628 61.879C14.8891 61.8709 17.7155 61.8678 20.5417 61.8877C21.1673 61.892 21.4005 61.6383 21.366 61.034C21.2631 59.2279 21.6533 57.4281 21.4303 55.6175C21.3371 54.8606 21.6886 54.1901 21.9705 53.5195C22.1352 53.1275 22.4151 52.754 22.8835 52.8249C23.2798 52.8849 23.5021 53.2652 23.5772 53.644C23.686 54.1926 23.8968 54.6489 24.3441 55.0083C25.2412 55.7294 25.2479 56.3068 24.311 56.9568C23.7762 57.3279 23.6382 57.7785 23.5802 58.3918C23.4906 59.3392 23.9194 60.1885 23.9513 61.0928C23.9743 61.743 24.2438 61.8933 24.8274 61.8864C26.7007 61.864 28.5745 61.8829 30.4482 61.8795C32.5754 61.8757 33.7044 60.8532 33.7464 58.7081C33.8073 55.5981 34.0862 52.4958 34.0236 49.3817C33.9923 47.8273 33.9902 46.2706 34.1335 44.7178C34.1855 44.154 34.2583 43.5264 34.9095 43.4761C35.6167 43.4215 35.7642 44.1175 35.9374 44.6493C36.0131 44.8814 35.9737 45.1532 35.975 45.4071C35.9818 46.7408 35.9978 48.0747 35.9866 49.4083C35.9576 52.831 36.6187 56.2274 36.3711 59.6576C36.3306 60.2176 36.6339 60.3557 37.125 60.3727C38.8527 60.4322 40.0113 59.4926 40.0263 57.6407C40.0391 56.0605 39.7104 54.4778 39.7179 52.8972C39.7404 48.1333 39.1943 43.3995 39.0412 38.6452C38.9925 37.1322 38.633 35.6295 38.7016 34.0974C38.7112 33.884 38.6632 33.644 38.5669 33.4542C38.2441 32.8175 38.2369 32.1425 38.4355 31.507C38.6456 30.8349 38.3939 30.4714 37.8445 30.2052C37.0465 29.8186 36.1475 29.6713 35.3624 29.3078C34.6086 28.9589 34.2647 29.1101 33.9063 29.898ZM27.4407 33.9332C28.2503 35.0909 28.3021 35.0901 28.9525 33.899C29.2255 33.399 29.4406 32.8568 29.7763 32.4036C30.8865 30.9047 31.2252 28.8905 32.7744 27.8324C32.9859 26.1596 31.5867 25.3574 30.998 24.0623C30.4841 24.3815 29.9928 24.5933 29.4435 24.5093C28.6545 24.3887 28.2987 24.8929 28.2002 25.5083C28.0557 26.4112 27.5801 27.0812 26.9938 27.7157C26.479 28.2729 25.9848 28.851 25.4443 29.382C24.9083 29.9085 24.9601 30.3947 25.3739 30.9638C26.0563 31.9023 26.6994 32.8693 27.4407 33.9332ZM16.6707 25.4573C16.3048 25.1795 16.0782 24.7299 15.4071 24.4511C15.5374 26.3474 15.1451 28.0692 15.0292 29.8203C15.0141 30.0487 15.1593 30.3033 15.2748 30.5222C16.0252 31.9449 16.7847 33.3628 17.5525 34.7761C17.6208 34.9017 17.7696 34.9836 17.9537 35.1523C18.9713 33.6819 19.9351 32.2461 20.9475 30.8454C21.4185 30.1937 21.2964 29.745 20.7258 29.2345C19.3823 28.0326 18.0814 26.7833 16.6707 25.4573ZM21.344 24.083C20.407 24.083 19.47 24.083 18.4087 24.083C19.7112 25.7114 21.2955 26.8064 22.8084 27.9818C23.0377 28.16 23.2809 28.193 23.5075 28.0232C24.9883 26.9132 26.292 25.6167 27.7374 24.0832C25.5031 24.0832 23.5187 24.0832 21.344 24.083Z" fill="#E70D3D"/>
<path d="M24.8484 47.8587C24.6811 48.9172 24.0491 49.6348 23.4255 50.3524C23.0405 50.7954 22.6559 50.7888 22.2113 50.3717C21.2784 49.4964 21.076 48.0384 21.7716 46.696C21.9458 46.36 22.1621 46.0407 22.3939 45.7406C22.8203 45.1883 23.1912 45.1159 23.6141 45.8098C24.0171 46.471 24.733 46.9373 24.8484 47.8587Z" fill="#E70D3D"/>
</svg>
