<svg width="75" height="75" viewBox="0 0 75 75" fill="none" xmlns="http://www.w3.org/2000/svg">
<path d="M63.2631 19.0587C62.6362 17.413 61.9883 15.9153 61.7792 14.2775C61.667 13.3983 61.6545 12.5535 62.5388 12.046C63.356 11.5771 64.2436 11.856 64.6933 12.4705C66.1692 14.4871 67.5662 14.3328 69.2669 12.7467C69.9365 12.1222 70.9694 12.0991 71.7623 12.7909C72.5709 13.4964 72.4524 14.3969 72.1012 15.2813C70.9896 18.0809 69.0133 20.2401 66.8116 22.1943C65.8738 23.0265 64.9284 22.7715 64.2599 21.6966C63.779 20.9235 63.4763 20.0782 63.2631 19.0587ZM68.4501 15.9377C68.2664 16.4809 68.1122 17.0252 68.2805 17.7711C69.3114 16.8766 70.3809 16.2646 70.3715 14.8182C69.5082 14.8038 69.0127 15.2186 68.4501 15.9377Z" fill="#E70D3D"/>
<path d="M26.7732 13.6726C31.0606 11.5043 34.6352 12.5924 37.2664 17.1609C37.99 18.4174 38.3767 19.8679 39.0066 21.4519C39.3292 20.8576 39.6486 20.293 39.946 19.7175C40.897 17.8775 42.0651 16.2284 43.6804 14.8796C45.5691 13.3027 47.6217 13.1568 49.74 14.1003C52.071 15.1386 53.902 16.7254 55.2244 19.032C56.5403 21.3275 55.3802 23.8946 54.031 25.2869C53.4061 25.9316 52.651 26.4503 51.8074 27.032C51.7756 27.0464 51.7457 27.0616 51.7166 27.0759C51.6087 27.2299 51.4356 27.3697 51.1912 27.489C51.2564 27.388 51.3511 27.2959 51.4734 27.2097C51.3332 27.2969 51.2245 27.3826 51.116 27.4685C51.1163 27.4707 51.1172 27.4832 51.0886 27.4831C51.7415 27.7176 52.3171 27.9424 52.9119 28.239C52.2762 28.2089 51.617 28.1138 50.9675 27.9744C51.6169 28.1137 52.2758 28.2093 52.9324 28.3152C53.1569 28.3385 53.3816 28.3621 53.7078 28.4744C54.244 28.6372 54.6794 28.7111 55.114 28.7849C55.2064 28.7986 55.299 28.8119 55.491 28.9021C55.8774 29.0413 56.1644 29.1042 56.4509 29.1667C56.5397 29.1797 56.629 29.1926 56.8318 29.2751C57.6578 29.58 58.3698 29.8152 59.0818 30.0505C59.1703 30.0711 59.2587 30.0918 59.4392 30.196C60.6658 30.9066 61.8008 31.5332 62.9353 32.1599C62.9377 32.1568 62.9557 32.1356 62.9578 32.2146C62.9645 32.2234 62.9725 32.2316 62.9792 32.24C63.1089 32.2719 63.2445 32.3615 63.3787 32.5193C63.2914 32.5053 63.2062 32.46 63.1179 32.3894C63.2052 32.4714 63.2909 32.534 63.3777 32.5954C63.3782 32.5947 63.4033 32.5608 63.4021 32.6531C63.4159 32.6739 63.4312 32.6935 63.4451 32.7136C63.6557 32.8717 63.8725 33.0908 64.0759 33.3787C63.9352 33.2838 63.801 33.159 63.6658 33.0085C63.798 33.1713 63.9298 33.3143 64.0623 33.4568C64.0807 33.5408 64.0985 33.6254 64.1189 33.8454C64.127 33.8692 64.1362 33.892 64.1443 33.9148C64.3105 34.1147 64.4595 34.3865 64.5623 34.7009C64.4345 34.5497 64.3323 34.3757 64.2419 34.1687C64.3339 34.3906 64.4241 34.5675 64.5154 34.7439C64.5315 35.1118 64.5485 35.4797 64.5486 36.0408C64.5491 39.0363 64.5652 41.839 64.5818 44.6413C64.5641 44.7985 64.5461 44.9558 64.4529 45.2126C64.2794 45.5166 64.1817 45.7212 64.0837 45.9255C64.0839 45.9257 64.0872 45.9306 64.0144 45.9343C64.0126 45.9358 64.0103 45.9367 64.0085 45.9382C63.9788 46.0777 63.8818 46.2238 63.7117 46.364C63.7322 46.2549 63.7939 46.1488 63.8962 46.0408L63.7986 46.1472C63.7389 46.2178 63.6888 46.288 63.6384 46.3581C63.6393 46.3592 63.6447 46.3681 63.5642 46.3552C63.5502 46.3645 63.5361 46.3742 63.5222 46.3835C63.2401 46.6735 62.886 46.9594 62.4626 47.2585C62.6413 47.0772 62.8488 46.8903 63.0847 46.7019C62.8399 46.8911 62.6139 47.0826 62.3894 47.2751C62.3747 48.8061 62.36 50.3374 62.2947 52.0398C62.1648 53.204 62.0858 54.1973 62.0066 55.1902C61.985 55.2773 61.9629 55.3646 61.8523 55.5378C61.1876 56.4021 60.6764 57.2938 60.0134 58.0017C60.6762 57.2947 61.186 56.4104 61.8396 55.6042C61.8333 55.967 61.8412 56.4028 61.6531 56.7234C60.6389 58.4509 59.1241 59.5227 57.1111 59.9216C57.7411 59.4976 58.4735 59.1779 59.115 58.7566L59.4265 58.5359C58.7187 59.0726 57.8382 59.4205 57.0505 59.8699C57.0485 59.8698 56.9723 59.8673 56.8748 59.8581C56.7743 59.8588 56.6985 59.8615 56.6267 59.863L56.4021 59.8601C56.3417 59.9778 56.213 60.0747 56.0183 60.1687C56.0792 60.0568 56.2068 59.9483 56.4021 59.8601C56.2068 59.9482 56.0793 60.0566 55.9529 60.1677C55.9536 60.17 55.9481 60.1679 55.8582 60.1648C54.9519 60.453 54.1353 60.7446 53.3191 61.0359C53.3191 61.0359 53.3394 61.0439 53.2498 61.032C52.7941 61.0616 52.4282 61.1032 51.988 61.1267C51.7115 61.2171 51.5093 61.3254 51.241 61.4421C50.9809 61.5239 50.7863 61.5971 50.5925 61.6706C50.5284 61.6749 50.4639 61.6806 50.3582 61.6423C50.1676 61.5968 50.0188 61.5964 49.7966 61.574C49.5181 61.6558 49.313 61.76 49.0115 61.8728C46.1686 62.1696 43.4283 62.5869 40.6746 62.7185C35.3948 62.9708 30.1102 62.8986 24.8503 62.281C23.3771 62.108 21.9193 61.8038 20.4509 61.5847C19.2017 61.3984 17.9472 61.2473 16.6951 61.0808C16.6949 61.078 16.6935 61.0516 16.698 60.9841C16.6086 61.0654 16.5108 61.0842 16.3425 61.0837C16.2614 60.9923 16.2469 60.921 16.2156 60.7986C16.3043 60.7978 16.3946 60.8158 16.488 60.8523C16.3837 60.8051 16.2666 60.7684 16.1179 60.7283C15.6654 60.6882 15.3026 60.6647 14.9402 60.6413C14.9402 60.6413 14.9407 60.6135 14.9529 60.5378C14.8553 60.6209 14.7555 60.6391 14.5857 60.6316C14.502 60.5329 14.4932 60.4604 14.4744 60.3337C14.5587 60.3359 14.6456 60.354 14.7341 60.3904C14.6338 60.3425 14.5199 60.3052 14.3796 60.2644C13.7421 60.083 13.1869 59.922 12.6355 59.7488C13.1869 59.922 13.7422 60.0832 14.3894 60.3191C14.4921 60.4606 14.5023 60.5328 14.5115 60.6052C11.9593 60.1132 9.48681 59.4281 8.23218 56.8445C7.8356 56.0277 7.64106 55.0558 7.58667 54.1413C7.47663 52.2912 7.49031 50.4306 7.52515 48.5759C7.54078 47.7423 7.45937 47.0948 6.53003 46.7966C6.21882 46.6965 5.98828 46.3439 5.72144 46.03C6.243 46.2387 6.80239 46.4566 7.28589 46.78L7.07495 46.6462C6.64398 46.3894 6.16932 46.1891 5.72241 45.9529C5.64961 45.8507 5.57613 45.7485 5.50659 45.489C5.47621 43.4916 5.43066 41.6515 5.41382 39.8113L5.4519 42.5837C5.46619 43.516 5.47931 44.4604 5.48218 45.4294C5.29509 45.2672 4.99752 45.0069 4.9978 44.7468C5.00122 42.2048 5.0502 39.6625 5.1023 37.1208C5.10653 36.9169 5.23184 36.7152 5.37671 36.4871C5.42086 37.2759 5.4176 38.0786 5.4148 38.8845C5.42178 38.0769 5.44237 37.2693 5.45288 36.4617C5.46194 36.372 5.47118 36.2819 5.55054 36.0769C5.96965 34.9924 6.3179 34.0227 6.66675 33.0535C6.66682 33.0513 6.6709 33.0374 6.74194 33.0369C6.74582 33.0336 6.74889 33.0294 6.75269 33.0261C6.77638 32.8804 6.86457 32.7324 7.02417 32.5945C7.01127 32.7018 6.9593 32.8024 6.87573 32.904C6.96677 32.8038 7.03339 32.7052 7.09839 32.6052C7.09839 32.6052 7.08545 32.576 7.16675 32.5876C7.17349 32.5828 7.17879 32.5759 7.1853 32.571C7.21706 32.4292 7.30902 32.2887 7.46753 32.1609C7.45268 32.2576 7.4068 32.3472 7.33569 32.4363C7.4171 32.3505 7.48039 32.2632 7.54175 32.1746C7.54198 32.1728 7.54608 32.1571 7.6228 32.1677C7.633 32.1611 7.642 32.1528 7.6521 32.1462C7.90051 31.8573 8.21865 31.5762 8.60522 31.3269C8.43427 31.5352 8.22843 31.7265 7.98999 31.9119C8.23586 31.7302 8.45712 31.5462 8.67749 31.3611C8.67749 31.3611 8.76707 31.3279 8.88647 31.3083C9.67149 30.9063 10.3371 30.5238 11.0027 30.1413C11.0901 30.1223 11.1779 30.103 11.405 30.0828C11.4327 30.0728 11.4588 30.0605 11.4851 30.0505C11.6807 29.8791 11.9473 29.7249 12.2634 29.613C12.1256 29.7381 11.9625 29.8403 11.7703 29.9333C11.9779 29.8403 12.1478 29.7497 12.3162 29.657C12.4033 29.6462 12.4907 29.636 12.7166 29.6267C12.7456 29.6169 12.7729 29.6043 12.8005 29.5945C12.9983 29.429 13.2654 29.2799 13.5808 29.1746C13.4449 29.2937 13.2852 29.3905 13.0984 29.4783C13.3002 29.3919 13.4671 29.3072 13.6326 29.2204C13.7207 29.2125 13.8094 29.2045 14.0359 29.1999C14.0652 29.1907 14.093 29.179 14.1208 29.1697C14.3219 29.0142 14.591 28.8767 14.9041 28.7771C14.7675 28.886 14.6101 28.9751 14.4275 29.0564C14.6245 28.9763 14.7883 28.8981 14.9509 28.8171C15.0429 28.811 15.1349 28.8053 15.3816 28.8093C15.4122 28.8026 15.4425 28.7936 15.4724 28.7869C15.8649 28.6077 16.3407 28.4502 16.8699 28.3367C16.584 28.471 16.2702 28.581 15.9187 28.6785C16.2879 28.5816 16.607 28.4828 16.9255 28.3826C17.0174 28.3748 17.1096 28.3665 17.3591 28.3718C17.3891 28.366 17.4186 28.3591 17.448 28.3533C17.9078 28.1704 18.4537 28.011 19.0583 27.8982C18.7149 28.0388 18.3395 28.1531 17.9216 28.2527C18.3586 28.1531 18.7388 28.0494 19.1189 27.9451C19.2768 27.9357 19.4353 27.9262 19.7703 27.9304C20.8407 27.7941 21.7342 27.6447 22.6277 27.4949C22.8537 27.4854 23.0803 27.476 23.4919 27.4841C24.1076 27.4705 24.6773 27.4587 25.2234 27.4392L25.2341 27.4382C24.6985 27.4565 24.1495 27.4655 23.5759 27.4744C24.0747 27.3173 24.6725 27.1725 25.2761 27.0613C25.8497 26.9556 26.4298 26.885 27.0154 26.7078C27.1733 26.7127 27.3229 26.8082 27.4724 26.904C27.323 26.8083 27.1735 26.7127 27.0242 26.6169C25.3312 25.2839 23.7888 23.7859 23.1453 21.6785C22.1211 18.3247 23.4518 15.3524 26.7732 13.6726ZM49.7937 61.6306C49.8526 61.7834 49.8411 61.858 49.8298 61.9324C49.7413 61.9471 49.6527 61.962 49.4968 61.9802C49.3758 61.9644 49.3216 61.9454 49.1882 61.8953C49.3133 61.7604 49.5185 61.6561 49.7937 61.6306ZM49.8669 61.6531C50.0191 61.597 50.1685 61.597 50.3123 61.654C50.1878 61.8078 50.068 61.9053 49.8894 61.9675C49.8414 61.8583 49.8524 61.7837 49.8669 61.6531ZM51.3191 61.4714C51.5166 61.5096 51.5699 61.5273 51.6228 61.5447C51.3186 61.6341 51.0137 61.7233 50.6511 61.7419C50.7865 61.5976 50.9806 61.5241 51.3191 61.4714ZM51.988 61.1267C52.0519 61.22 52.0415 61.2954 52.0281 61.4275C51.9363 61.5011 51.8469 61.5181 51.6902 61.5398C51.5696 61.5273 51.5167 61.5091 51.3855 61.4626C51.5093 61.3251 51.7115 61.2171 51.988 61.1267ZM53.2488 61.0427C52.9376 61.2302 52.537 61.3955 52.0837 61.4656C52.0417 61.2955 52.0517 61.2195 52.0623 61.1443C52.4279 61.1027 52.7937 61.0615 53.2488 61.0427ZM14.9509 60.7136C15.3028 60.6646 15.6659 60.6883 16.1257 60.782C16.2468 60.9208 16.2618 60.9916 16.2673 61.0642C15.8322 60.9714 15.3966 60.8788 14.9509 60.7136ZM55.8562 60.2165C55.9419 60.2705 55.9487 60.3715 55.949 60.3757C55.1338 60.6095 54.3179 60.8434 53.4109 61.0564C54.1353 60.7444 54.9523 60.4528 55.8562 60.2165ZM56.4705 59.8806C56.5721 59.87 56.6737 59.8594 56.8445 59.8826C56.644 60.0766 56.374 60.2369 56.0261 60.3865C55.9483 60.3755 55.9427 60.2714 55.9451 60.2195C55.9474 60.1678 55.9538 60.1698 56.0193 60.1706C56.2132 60.0743 56.342 59.9777 56.4705 59.8806ZM31.7175 50.7908C31.5513 51.0425 31.3853 51.2945 31.3181 51.3962C30.9556 51.2921 30.6923 51.2159 30.4294 51.1404C30.4416 51.4428 30.4029 51.7589 30.4763 52.0456C30.6212 52.6108 30.9462 53.1519 30.9851 53.7175C31.0622 54.8403 30.9653 55.9744 31.0046 57.1013C31.0185 57.4972 31.2207 57.8864 31.3259 58.4089C31.3268 58.5396 31.3268 58.6705 31.1658 58.8249C30.7545 59.6474 30.8045 59.75 31.7654 59.8162C31.9068 59.8304 32.0483 59.8451 32.2458 60.0085C32.6379 59.9358 33.03 59.8633 33.5261 59.6247C33.5034 59.3023 33.4806 58.9793 33.5623 58.5095C33.5536 56.3986 33.5701 54.2869 33.5105 52.1775C33.5009 51.8379 33.1521 51.5076 32.9392 51.1951C32.9407 51.1932 32.9588 51.167 32.9402 51.0261C32.7871 50.9476 32.6338 50.8691 32.3269 50.7644C32.1725 50.7743 32.0181 50.7847 31.7175 50.7908ZM45.1443 30.029C44.8609 30.1668 44.5777 30.3047 44.1326 30.4861C43.9105 30.5098 43.6886 30.5328 43.3542 30.4558C43.0484 30.4936 42.7421 30.5323 42.4363 30.5701C42.742 30.5323 43.0481 30.4941 43.4099 30.5066C43.1876 30.7311 42.9115 30.9074 42.614 31.1521C42.6395 31.2074 42.6673 31.2665 42.7019 31.3279C44.3666 32.3262 46.039 33.3119 47.6941 34.3259C48.9859 35.1174 48.9949 35.689 47.741 36.6277C47.205 37.0289 46.6332 37.3826 45.8923 37.7654C44.6842 38.0832 43.8436 37.2589 43.0066 36.6912C41.5606 35.7104 40.2411 34.5427 38.7507 33.3601C37.7883 35.1335 36.8612 36.8416 35.8728 38.6628C38.9065 38.6628 41.7121 38.6622 44.7234 38.7165C45.4984 38.7074 46.2743 38.712 47.0486 38.6902C46.2695 38.711 45.4746 38.7019 44.6199 38.6902C44.9864 38.5419 45.4564 38.4202 46.0134 38.2751C46.8413 38.2494 47.5817 38.2482 48.4216 38.2654C48.2817 38.4002 48.0669 38.598 47.8357 38.6501C48.07 38.5981 48.3121 38.3981 48.7029 38.2527C49.0709 38.2481 49.4392 38.2436 49.9841 38.2878C50.2269 38.2746 50.4699 38.2616 50.7087 38.2527C50.7093 38.2534 50.7134 38.2633 50.739 38.3874C51.2952 39.1151 51.2949 39.1151 51.7263 38.6619C51.8209 38.6692 51.9161 38.6763 52.2136 38.7263C52.8332 38.7203 53.4545 38.7345 54.073 38.7146C53.4491 38.7336 52.8077 38.7158 52.1111 38.7058C52.6502 38.559 53.2881 38.4093 53.9333 38.3162C54.3932 38.2498 54.8644 38.2595 55.4324 38.2449C55.2764 38.3832 55.0495 38.5933 54.8015 38.6619C55.051 38.5936 55.2892 38.3839 55.533 38.2527C55.533 38.2527 55.5345 38.2529 55.616 38.2693C55.7796 38.1139 56.024 37.975 56.3445 37.8464C56.1798 38.0001 55.9383 38.1424 55.6169 38.2693C55.6378 38.2735 55.6636 38.2795 55.696 38.2859C55.9376 38.1429 56.1792 37.9996 56.5525 37.8093C56.6458 37.8078 56.7394 37.8065 56.9958 37.8367C57.2421 37.6936 57.489 37.5502 57.8591 37.3611C57.9468 37.3575 58.0348 37.3538 58.2791 37.3796C58.4627 37.2401 58.6465 37.1002 58.906 36.9128C58.9084 36.9127 58.9979 36.9096 59.1541 36.9246C59.2573 36.7714 59.3605 36.6182 59.4871 36.3621C59.5268 36.2959 59.5857 36.2605 59.8279 36.2742H60.6921C60.369 36.2741 60.0896 36.2742 59.7449 36.2663C59.9213 35.9095 60.1811 35.5613 60.5154 35.2204C60.6612 35.5635 60.7315 35.8994 60.8103 36.2742C60.7315 35.8992 60.6607 35.5629 60.6882 35.1804C60.6882 35.1804 60.7851 35.1817 60.9236 35.199C60.907 35.1965 60.8899 35.1937 60.8728 35.1912C60.9324 34.8141 61.0677 34.447 61.1755 33.9988C61.3424 33.9012 61.5374 33.8856 61.8171 33.9656C61.8043 34.4752 61.7053 34.8889 61.6072 35.3025C61.4224 35.2742 61.2376 35.246 61.0076 35.2117C61.2073 35.2427 61.4068 35.2778 61.6003 35.3738C61.6004 35.4228 61.5927 35.471 61.4841 35.6638C61.4563 35.7753 61.4283 35.887 61.2546 36.0691C61.208 36.2586 61.1619 36.4482 61.1316 36.7849C60.8733 36.9809 60.6147 37.1771 60.2039 37.3474C60.0344 37.4946 59.8648 37.6425 59.5984 37.8259C59.5984 37.8259 59.4946 37.8205 59.3318 37.7888C59.0887 37.941 58.8453 38.0939 58.5164 38.2878C58.5111 38.2871 58.4174 38.2723 58.2498 38.2331C57.9282 38.3814 57.6064 38.53 57.158 38.7195C57.0693 38.7182 56.9801 38.7166 56.7273 38.6765C56.4716 38.811 56.2157 38.9459 55.8015 39.1306C55.5809 39.139 55.3602 39.1475 54.9607 39.113C54.5643 39.2557 54.1679 39.3984 53.6345 39.5837C53.5392 39.5804 53.4438 39.5767 53.1736 39.5329C52.7876 39.6805 52.4014 39.8277 51.8796 40.0212C51.7845 40.0182 51.6892 40.0153 51.4197 39.9714C51.0339 40.12 50.6475 40.2684 50.0984 40.4587C49.8742 40.461 49.6497 40.4639 49.2507 40.4187C48.8537 40.5502 48.4565 40.6814 47.8835 40.8591C47.5813 40.8653 47.2791 40.8712 46.8621 40.7585C45.8726 40.9255 44.8826 41.0926 43.7029 41.2976C43.1852 41.3023 42.6674 41.3074 42.0164 41.1892C40.8013 41.1744 39.5859 41.1568 38.3708 41.1433C39.5905 41.1605 40.8198 41.1922 42.0828 41.2507C40.4633 41.4181 38.7714 41.6556 37.0925 41.5857C35.873 41.5349 35.2598 41.7943 35.2654 43.1316C35.1555 42.5594 35.0924 42.1478 35.114 41.8533C35.078 42.174 35.1343 42.6332 35.2429 43.2888C35.2274 43.3601 35.2118 43.4312 35.0476 43.615C35.0983 44.5375 35.1493 45.4607 35.2478 46.4841C35.233 46.5554 35.2174 46.6266 35.1326 46.8542C35.1285 47.3286 34.676 47.9534 35.5691 48.1228C35.5688 48.1238 35.5674 48.1352 35.5652 48.2214C38.5764 48.1298 41.5867 48.1269 44.697 48.1511C44.4677 48.6555 44.139 48.8242 43.7712 48.8572C44.1917 48.8314 44.6012 48.6658 44.9558 48.1345C45.1194 48.1374 45.2833 48.1406 45.5144 48.2839C45.6177 48.3517 45.7238 48.4742 45.825 48.4997C45.7233 48.4732 45.6132 48.3428 45.4802 48.2136C46.5532 47.9976 47.6601 47.8522 48.8669 47.7292C48.8465 47.9126 48.7636 48.1887 48.6462 48.2673C48.7671 48.1888 48.8767 47.9093 49.1072 47.7068C49.2043 47.7109 49.3012 47.7158 49.5173 47.8386C50.3595 47.6752 51.2023 47.5119 52.1785 47.2869C52.2764 47.2879 52.3746 47.2886 52.571 47.3982C52.9807 47.2369 53.3905 47.0758 53.9285 46.8415C54.0267 46.8393 54.1251 46.8371 54.3201 46.9451C54.7258 46.8976 55.1317 46.8501 55.5359 46.9568C55.603 47.1351 55.6565 47.3346 55.7507 47.4861C55.6599 47.327 55.6064 47.099 55.5369 46.8806C55.5377 46.8038 55.5334 46.8062 55.615 46.8103C55.6627 46.6943 55.7934 46.58 55.9666 46.4148C56.138 46.4574 56.267 46.5521 56.4041 46.7117C56.3311 46.8039 56.2496 46.8314 56.1023 46.8572C55.9659 46.8458 55.8679 46.8353 55.741 46.824C55.8639 46.836 55.9499 46.846 56.0359 46.8562C56.1726 47.066 56.3098 47.2754 56.4666 47.5535C56.2143 47.7036 56.0448 47.7224 55.9226 47.6619C56.0677 47.7483 56.279 47.7579 56.6121 47.6208C56.6878 47.6513 56.7633 47.6826 56.8455 47.8503C57.1089 48.03 57.373 48.2093 57.5769 48.3484C57.331 48.5634 57.0883 48.7754 56.6843 49.0496C53.619 49.5804 50.567 50.2176 47.4841 50.6101C44.8935 50.9399 42.2673 51.0025 39.655 51.1482C38.6355 51.205 37.6082 51.1263 36.5896 51.1912C36.2477 51.2129 35.9219 51.4874 35.4158 51.6746C35.3421 51.7898 35.2046 51.9045 35.2039 52.0203C35.1897 54.3082 35.1842 56.5967 35.2058 58.8845C35.2076 59.0279 35.4443 59.1691 35.6218 59.3747C35.6218 59.3747 35.6374 59.4547 35.5925 59.5925C35.803 59.6618 36.0139 59.7305 36.4021 59.7888C36.6979 59.8055 36.9942 59.8224 37.3503 59.9968C38.3769 59.9413 39.404 59.8866 40.5984 59.8015C40.8251 59.7953 41.0517 59.7891 41.3953 59.907C42.5363 59.7359 43.6777 59.5648 44.9529 59.3601C45.045 59.3606 45.1374 59.3612 45.3259 59.4773C45.5858 59.3992 45.8457 59.3212 46.2097 59.199C46.2846 59.1965 46.3596 59.1938 46.5994 59.2869C46.8733 59.1985 47.1474 59.1104 47.5251 58.9812C47.5989 58.9751 47.6727 58.9687 47.9226 59.0544C49.0235 58.7824 50.1285 58.5236 51.2214 58.2224C51.3717 58.1808 51.4638 57.9281 51.6287 57.7038C51.6287 57.7038 51.7018 57.6635 51.863 57.7439C52.2056 57.6454 52.5481 57.5466 52.947 57.6042C53.5419 58.5032 54.0819 57.5704 54.823 57.5554C55.2602 57.5581 55.646 57.5128 55.6658 57.0691C55.6436 57.5129 55.2439 57.5583 54.7361 57.5544C54.6521 57.3897 54.6555 57.2262 54.657 56.9812C54.9601 56.8345 55.2645 56.7693 55.6169 56.6941V56.6931C55.2643 56.7684 54.9593 56.8341 54.5457 56.9001C54.5398 56.8998 54.458 56.8925 54.4509 56.782C54.4485 56.7938 54.4465 56.8061 54.4441 56.8181C54.1565 57.0546 53.8759 57.2126 53.5955 57.3708C53.876 57.2125 54.1567 57.0545 54.4373 56.8962C54.4373 56.8962 54.5464 56.8999 54.6023 56.9812C54.6553 57.2257 54.652 57.3892 54.6492 57.5525C54.082 57.5704 53.5425 58.5027 52.9167 57.4597C52.8918 57.1778 52.897 57.0402 52.9031 56.9031C53.1464 56.7574 53.3903 56.6122 53.7029 56.5369C53.6712 56.7307 53.6006 56.8856 53.5212 57.031C53.6044 56.8854 53.6894 56.7304 53.7751 56.5349C54.013 56.301 54.2475 56.1393 54.5564 55.9812C54.5675 56.1713 54.5341 56.3588 54.49 56.5788C54.5376 56.3816 54.5865 56.1873 54.6414 56.0066C54.6414 56.0066 54.6196 55.9955 54.7654 55.9988C54.878 55.8665 54.991 55.7345 55.0994 55.5857C55.0994 55.5857 55.1099 55.5873 55.2 55.5896C55.4821 55.2741 55.8469 54.9596 56.2888 54.6453C56.0057 54.9609 55.6438 55.2752 55.2009 55.5896C55.2225 55.5901 55.2485 55.5933 55.28 55.5935C55.6423 55.2776 56.0043 54.9611 56.3767 54.6697C56.3743 54.6684 56.3648 54.6608 56.5115 54.6677C56.6071 54.5124 56.7032 54.3571 56.8142 54.2273C56.8142 54.2273 56.7862 54.2163 56.9539 54.2204C57.0117 54.1198 57.0673 54.0183 57.116 53.8923C57.0674 53.9988 56.9877 54.1096 56.8699 54.2185C56.8875 54.0571 56.9896 53.8978 57.1687 53.7253C57.1656 53.7504 57.1563 53.7749 57.1492 53.8005C57.169 53.7376 57.1885 53.6686 57.2029 53.5906C57.2478 53.5241 57.2933 53.4572 57.4763 53.3728C57.5553 53.2248 57.6342 53.0764 57.7263 52.9421C57.7263 52.9421 57.7076 52.9385 57.8806 52.9138C57.9598 52.6608 58.0395 52.4078 58.1013 52.1023C58.1041 52.0998 58.1328 52.077 58.2263 52.0691C58.225 52.0678 58.2238 52.0664 58.2224 52.0652C58.2395 51.2867 58.6299 51.528 59.0427 51.7976C59.0951 51.8318 59.2004 51.7932 59.2781 51.7751C59.298 51.7705 59.3064 51.7154 59.3816 51.654C59.4753 52.0081 59.507 52.3917 59.4304 52.8591C59.2274 52.9492 59.1325 52.9562 59.0378 52.9626L58.6736 52.53C58.7987 52.6956 58.9268 52.8773 59.0603 53.0915L59.3425 53.279C59.2486 53.2167 59.1547 53.1543 59.0496 53.0271C59.1331 52.9559 59.2277 52.9491 59.3923 52.9314C59.4224 53.0397 59.3826 53.1595 59.3425 53.279C59.3826 53.1594 59.4228 53.0399 59.5398 52.7751C59.5078 52.3916 59.4756 52.0075 59.3884 51.4324C59.4141 50.7697 59.4396 50.1068 59.5955 49.3259C59.5235 48.7674 59.4515 48.2089 59.3982 47.4997C59.404 47.299 59.4102 47.0975 59.4304 46.7244C59.2568 46.6454 59.0829 46.5667 58.8044 46.4929C58.7091 46.4903 58.6148 46.4852 58.4294 46.3992C58.4303 46.409 58.4304 46.4193 58.4314 46.4294C57.9999 46.5897 57.5085 46.6941 56.9412 46.7087C57.2197 46.3336 57.5462 46.0134 57.8708 45.6941C57.5409 46.0129 57.1948 46.3296 56.8503 46.6931C56.742 46.7798 56.6475 46.7926 56.4744 46.7263C56.2667 46.5523 56.1381 46.4576 56.0095 46.363C56.1461 46.1891 56.2831 46.0151 56.4128 45.7722C56.406 45.7034 56.4173 45.704 56.488 45.7019C56.4898 45.7004 56.4912 45.6985 56.4929 45.697C56.5266 45.5763 56.6251 45.4481 56.7878 45.3054C56.7662 45.3893 56.7105 45.479 56.6238 45.5749C56.7165 45.4791 56.7864 45.385 56.8552 45.2898C56.9518 45.207 57.0491 45.1239 57.2517 45.0945C57.2824 45.0858 57.3097 45.0727 57.3367 45.0622C57.3963 44.941 57.4882 44.862 57.6423 44.7908C57.618 44.8549 57.5738 44.916 57.5164 44.9695C57.5914 44.917 57.6528 44.8582 57.7136 44.7986C57.7987 44.7203 57.8839 44.6419 58.03 44.571C58.0515 44.5734 58.0726 44.5747 58.0925 44.5769C58.2079 44.4369 58.3242 44.2974 58.5085 44.1326C58.5885 44.2244 58.5998 44.3413 58.6208 44.5456C58.6309 44.6332 58.6238 44.6288 58.533 44.6218C58.5007 44.6189 58.4703 44.6157 58.4421 44.613C58.4694 44.6156 58.4983 44.619 58.5291 44.6218C58.4986 44.8295 58.436 45.0629 58.3083 45.2419C58.4377 45.063 58.5116 44.8304 58.6199 44.6287C58.6231 44.6288 58.6296 44.6319 58.6306 44.6326C59.0025 44.6232 59.3743 44.6143 59.8464 44.6775C59.9726 44.8573 59.9984 44.9648 60.0242 45.072C60.0072 45.1078 59.9896 45.1436 59.8816 45.2419C59.679 45.4347 59.5678 45.5652 59.4568 45.6951C59.4036 45.7085 59.3466 45.7151 59.2878 45.7195C59.3925 45.716 59.4988 45.7105 59.6013 45.6902C59.7101 45.5567 59.8187 45.4231 59.9734 45.1794C59.9904 45.1435 60.0073 45.1073 60.1667 45.0564C60.423 44.8955 60.6917 44.7474 60.949 44.5876C60.6832 44.7492 60.3945 44.898 60.0955 45.0642C59.9985 44.9646 59.9727 44.8574 59.9392 44.6677C60.1492 44.306 60.3428 43.9769 60.574 43.6941C60.3369 43.9751 60.1126 44.294 59.7468 44.6052C59.3748 44.6146 59.0024 44.6238 58.6101 44.4578C58.5992 44.3409 58.5881 44.2234 58.5945 43.9773C58.7437 43.8238 58.8934 43.6708 59.1941 43.5124C59.2813 43.3576 59.3685 43.2023 59.4802 43.0691C59.4777 43.0675 59.461 43.0543 59.613 43.0486C59.6969 42.8801 59.7809 42.7114 59.8757 42.3923C60.0687 42.043 60.2617 41.6934 60.5994 41.3249C60.6388 41.1557 60.679 40.9864 60.74 40.8191C60.74 40.8191 60.7375 40.8313 60.8123 40.8484C60.7327 40.8291 60.6961 40.7446 60.7195 40.7019C60.8713 40.6949 61.0138 40.7075 61.155 40.738C61.0093 40.6979 60.8767 40.6764 60.7439 40.657C60.8741 40.1586 61.095 39.8859 61.615 40.2898C61.628 40.2965 61.8054 40.0924 61.949 39.9275C62.0661 40.3202 62.4678 40.9037 61.49 40.8591C61.4647 40.8473 61.4391 40.8382 61.4148 40.8279C61.2571 40.8783 61.0899 40.8731 60.8474 40.8542C60.8656 40.8577 60.8869 40.8623 60.9119 40.866C61.0889 40.8741 61.2659 40.8827 61.5544 40.9626C62.4677 40.9043 62.0656 40.3202 61.946 39.7068C61.978 39.3733 62.0107 39.0392 62.1931 38.6023C62.1504 38.1145 62.1059 37.6269 62.0515 37.1492C62.0968 37.6158 62.1257 38.1224 62.1169 38.654C62.0188 38.0403 61.9928 37.3778 61.9861 36.6247C61.9799 36.5796 61.975 36.5339 61.9685 36.489C61.9685 36.489 61.9231 36.4711 61.9929 36.3454C62.0011 36.2502 62.0094 36.1552 62.1365 36.0515C62.2093 35.9212 62.2824 35.7904 62.4177 35.5417C62.4271 35.4982 62.4363 35.4542 62.5955 35.3767L62.9031 33.9255L62.825 34.2869C62.744 34.6465 62.6508 34.9963 62.5076 35.3054C62.3173 34.7838 62.2148 34.3334 62.113 33.8835C62.0979 33.8828 62.0826 33.8824 62.0671 33.8816C62.2157 34.3334 62.3172 34.7835 62.4324 35.322C62.4364 35.4545 62.4265 35.4989 62.3035 35.6033C61.9856 35.6152 61.7813 35.566 61.5769 35.5173C61.593 35.4711 61.6009 35.4234 61.6042 35.3386C61.7058 34.8889 61.8043 34.475 61.9148 33.9753C61.9271 33.8898 62.0192 33.8796 62.0662 33.8816C62.051 33.8808 62.0357 33.8804 62.0203 33.8796C62.0203 33.8796 61.9265 33.8891 61.7312 33.8689C61.5369 33.885 61.3425 33.9016 61.0203 33.8425C59.5236 32.7335 57.8588 32.042 55.988 31.6658C55.6547 31.5695 55.3211 31.4737 54.8318 31.3874C54.6278 31.3492 54.4237 31.311 54.1414 31.1228C53.6963 31.0486 53.2509 30.9746 52.6902 30.9119C52.6156 30.8959 52.5407 30.8795 52.3777 30.7185C51.7483 30.6627 51.1187 30.6059 50.3015 30.5496C49.8663 30.5216 49.4309 30.4939 48.9314 30.3181C48.1349 30.2463 47.3383 30.174 46.3533 30.1013C45.9764 30.1103 45.5992 30.1198 45.1443 30.029ZM40.3337 59.7898C39.4046 59.8862 38.3777 59.9422 37.321 59.9187C38.2726 59.8096 39.2546 59.779 40.3337 59.7898ZM44.7205 59.3591C43.6776 59.5644 42.5362 59.7355 41.3367 59.8445C42.3928 59.6299 43.5077 59.4774 44.7205 59.3591ZM35.615 59.5232C35.8079 59.5294 35.9791 59.6046 36.1873 59.74C36.0144 59.7309 35.8031 59.6614 35.615 59.5232ZM10.9255 48.3904C10.9332 50.396 10.8195 52.4031 10.8064 54.4109C10.8035 54.8578 11.1596 55.3078 11.3015 55.8279C10.8389 56.0225 10.425 56.1449 9.71362 56.3562C10.4251 56.1448 10.8391 56.0219 11.2869 55.9587C11.2869 55.9587 11.3478 55.9911 11.4031 56.1052C11.5702 56.1908 11.7375 56.2762 12.0222 56.448C12.1185 56.4605 12.2147 56.4728 12.3201 56.6208C12.4746 56.6773 12.6294 56.7339 12.906 56.8708C13.0031 56.878 13.1003 56.8853 13.2556 57.031C13.5344 57.1078 13.8133 57.1847 14.2195 57.3337C14.317 57.3347 14.415 57.3362 14.5662 57.4578C14.846 57.5197 15.126 57.5815 15.4822 57.7097L15.5828 57.7185C15.5828 57.7185 15.6784 57.6854 15.7644 57.8083C16.2302 57.911 16.6964 58.0139 17.238 58.1716L17.3318 58.1775C17.3353 58.1767 17.4247 58.1579 17.5125 58.282C17.9108 58.3628 18.3095 58.4438 18.8552 58.5994C19.0181 58.6095 19.1811 58.6192 19.4236 58.7693C19.8429 58.8301 20.2625 58.8913 20.8328 59.0212C20.9968 59.0271 21.1607 59.0335 21.4363 59.1726C22.2769 59.2381 23.1182 59.3029 24.1199 59.4187C24.4519 59.422 24.7838 59.4262 25.2185 59.5779C26.1945 59.6384 27.1712 59.7403 28.1462 59.7273C28.3592 59.7244 28.7455 59.3136 28.7488 59.0867C28.7808 56.6868 28.7626 54.2854 28.7214 51.8855C28.7172 51.6518 28.4683 51.4226 28.2 51.0915C26.8011 50.968 25.4023 50.8443 23.9207 50.571C23.049 50.4949 22.1769 50.4189 21.155 50.3005C20.9999 50.2994 20.8447 50.2978 20.613 50.1472C19.8934 50.0658 19.1734 49.9837 18.324 49.8562C18.2327 49.8581 18.141 49.8607 17.9792 49.7126C17.4062 49.6303 16.8332 49.5476 16.113 49.4079C15.9049 49.398 15.6968 49.3879 15.448 49.2156C15.1302 49.168 14.8123 49.1202 14.3601 49.0173C14.2633 49.0178 14.1661 49.0183 13.9695 48.8904C13.4154 48.7958 12.8613 48.7009 12.1638 48.5095C11.8001 48.4687 11.4363 48.4283 10.9255 48.3904ZM46.0574 59.1892C45.8457 59.3205 45.586 59.3994 45.2781 59.4197C45.4898 59.2869 45.7494 59.211 46.0574 59.1892ZM21.3806 59.1062C22.1695 59.1027 23.0146 59.1652 23.9089 59.2986C23.118 59.3031 22.277 59.2384 21.3806 59.1062ZM47.3689 58.9773C47.1478 59.1104 46.8736 59.1984 46.5173 59.239C46.7286 59.1049 47.0225 59.0188 47.3689 58.9773ZM19.3835 58.6999C19.7741 58.6929 20.2052 58.7556 20.6589 58.8855C20.2629 58.8915 19.8428 58.8309 19.3835 58.6999ZM17.4675 58.2185C17.8342 58.2273 18.2457 58.2995 18.6824 58.448C18.3092 58.4436 17.9107 58.3626 17.4675 58.2185ZM15.7214 57.7468C16.1492 57.7725 16.6203 57.8601 17.1267 58.032C16.6965 58.014 16.2303 57.911 15.7214 57.7468ZM52.8269 56.904C52.8967 57.0409 52.8907 57.1779 52.8875 57.3816C52.5477 57.5466 52.2052 57.6455 51.782 57.7038C52.0513 57.4106 52.4011 57.1573 52.8269 56.904ZM14.5388 57.3972C14.7948 57.3915 15.0782 57.4461 15.3835 57.572C15.1261 57.5814 14.8456 57.5194 14.5388 57.3972ZM13.2263 56.9617C13.4902 56.9696 13.7838 57.0472 14.0847 57.1931C13.8138 57.1849 13.5343 57.1078 13.2263 56.9617ZM56.5798 56.4246C56.5356 56.6661 56.4658 56.9074 56.4343 57.1492C56.4669 56.9127 56.5415 56.6688 56.6248 56.3913C56.6098 56.4023 56.5949 56.4135 56.5798 56.4246ZM12.3162 56.5535C12.4721 56.5433 12.6329 56.6007 12.7888 56.7244C12.6298 56.7341 12.4751 56.6775 12.3162 56.5535ZM11.3757 56.0486C11.5331 56.0633 11.7182 56.1345 11.9041 56.2839C11.7378 56.2761 11.5705 56.1911 11.3757 56.0486ZM55.032 55.6111C54.9907 55.7347 54.8778 55.8671 54.6921 55.9978C54.7329 55.8707 54.8468 55.7453 55.032 55.6111ZM60.3035 55.5964C60.3057 55.5956 60.3081 55.5953 60.3103 55.5945C60.2694 55.1971 60.2282 54.7995 60.1873 54.4021C60.226 54.778 60.2639 55.154 60.3035 55.5964ZM62.2996 52.1423C62.2843 53.0885 62.2137 54.1034 62.075 55.154C62.0858 54.1969 62.1653 53.2039 62.2996 52.1423ZM56.7224 54.2019C56.7028 54.3569 56.6075 54.5123 56.4324 54.6638C56.4507 54.5074 56.5484 54.3548 56.7224 54.2019ZM10.2898 54.3025V54.3035V54.3025ZM57.6521 52.9519C57.6345 53.0771 57.5552 53.2254 57.407 53.3826C57.422 53.2527 57.5064 53.1137 57.6521 52.9519ZM58.0544 52.2009C58.0395 52.4081 57.9603 52.6612 57.7947 52.9265C57.8021 52.7081 57.8962 52.4774 58.0544 52.2009ZM10.8406 48.3835C10.1796 49.3626 10.3385 50.4435 10.3894 51.5232C10.3388 50.4464 10.1838 49.3689 10.9207 48.3904C10.8943 48.3884 10.8677 48.3855 10.8406 48.3835ZM18.4753 49.9871C19.1741 49.9844 19.8934 50.0662 20.6511 50.2224C19.9583 50.222 19.2271 50.1463 18.4753 49.9871ZM16.2791 49.5486C16.8333 49.5472 17.4069 49.6303 18.0154 49.7878C17.4666 49.7863 16.8821 49.709 16.2791 49.5486ZM59.2957 47.6521C59.452 48.209 59.5241 48.7678 59.531 49.3855C59.398 49.101 59.33 48.7571 59.2498 48.3513C58.4581 48.5893 57.7394 48.8055 56.9333 49.0046C57.0878 48.7759 57.331 48.5634 57.5769 48.3484C57.373 48.2093 57.1092 48.0294 56.8425 47.781C57.6299 47.6926 58.4207 47.6734 59.2957 47.6521ZM14.5134 49.155C14.8123 49.1209 15.1304 49.1679 15.4685 49.2966C15.1701 49.3306 14.8511 49.2839 14.5134 49.155ZM12.324 48.6853C12.8614 48.7019 13.4154 48.7961 14.0193 48.9548C13.493 48.9336 12.9168 48.8486 12.324 48.6853ZM35.5623 48.3103C35.8667 48.4406 36.1692 48.6623 36.4753 48.7214C36.1698 48.6611 35.8681 48.4302 35.5652 48.2234C35.5646 48.2465 35.5627 48.2753 35.5623 48.3103ZM31.5486 41.0876C30.8887 40.7129 30.7114 41.0092 30.5349 41.7078C30.6479 42.6372 30.7933 43.5642 30.865 44.4968C30.9403 45.4762 30.902 46.4651 30.9949 47.4421C31.0679 48.2102 31.6933 48.4626 32.3425 48.3992C32.6288 48.3711 33.1018 47.9696 33.1091 47.7263C33.1699 45.6015 33.1443 43.474 33.1443 41.4021C32.6357 41.3132 32.0078 41.3485 31.5486 41.0876ZM8.5398 36.655C8.12165 39.1433 8.20741 41.5739 8.51538 44.1052C8.55383 44.1531 8.59264 44.2017 8.63062 44.2507C8.69498 44.292 8.75965 44.3331 8.82983 44.5339C9.00481 44.5905 9.17981 44.6469 9.46851 44.7165C9.54013 44.742 9.61215 44.7673 9.73804 44.9431C10.1785 45.2106 10.7119 45.3839 11.0066 45.8035C10.7106 45.379 10.1712 45.1911 9.71069 44.8689C10.627 44.8924 11.448 45.1455 11.613 46.3542C11.5316 46.4037 11.3533 46.4212 11.2683 46.4187L11.2214 46.4099C11.2249 46.4283 11.506 46.4201 11.8123 46.4197C11.967 46.4362 12.1218 46.453 12.3191 46.615C12.9024 46.5499 13.4866 46.4856 14.2527 46.4177C14.6158 46.443 14.9793 46.468 15.3904 46.6384C15.9734 46.7157 16.5568 46.7932 17.2742 46.8767C17.362 46.8922 17.4502 46.9079 17.5867 47.073C18.3155 47.1458 19.0444 47.2188 19.9089 47.2927C19.9976 47.3099 20.086 47.3271 20.2419 47.4978C21.3293 47.5694 22.4172 47.6415 23.6882 47.7038C24.0549 47.7234 24.4215 47.7425 24.8435 47.9255C25.8137 48.0118 26.7848 48.0949 27.7546 48.1853C28.4911 48.2538 28.8165 47.9663 28.7937 47.1872C28.751 45.7284 28.7779 44.2674 28.7771 42.8074C28.776 40.6954 28.7759 40.695 26.3572 40.9119C25.7103 40.8789 25.0635 40.8457 24.3679 40.6482C23.6309 40.5907 22.8935 40.5333 21.9636 40.4802C21.4928 40.448 21.0099 40.471 20.5525 40.3747C17.9415 39.8252 15.3227 39.3018 12.7361 38.6521C11.6881 38.3888 10.7123 37.8379 9.68726 37.2624C9.67824 37.2814 9.66886 37.3005 9.65991 37.3201C9.36379 37.1971 9.05825 36.9963 8.5398 36.655ZM35.1677 46.7761C35.3186 47.1172 35.435 47.5369 35.5554 48.0437C34.6762 47.9537 35.1285 47.3288 35.1677 46.7761ZM51.949 47.3249C51.2017 47.5114 50.3593 47.6751 49.4578 47.779C50.2167 47.5805 51.0357 47.441 51.949 47.3249ZM58.491 46.4841C58.5955 46.487 58.7002 46.4902 58.8806 46.5544C59.1096 46.7095 59.2628 46.8036 59.4158 46.8972C59.4099 47.098 59.4041 47.2991 59.3044 47.5769C58.4204 47.6735 57.63 47.693 56.8396 47.7126C56.7637 47.6821 56.6876 47.6518 56.5291 47.5535C56.3097 47.2758 56.1732 47.0656 56.1023 46.8572C56.2495 46.8314 56.3312 46.8046 56.4832 46.7917C56.6478 46.7931 56.7421 46.7793 56.9265 46.7829C57.508 46.6945 57.9999 46.5893 58.491 46.4841ZM20.2087 47.4216C21.2405 47.4353 22.3062 47.5257 23.4382 47.6648C22.4174 47.6417 21.3298 47.5701 20.2087 47.4216ZM53.7195 46.8982C53.3907 47.0763 52.9803 47.2376 52.5212 47.3445C52.8606 47.1538 53.2499 47.0176 53.7195 46.8982ZM17.5613 46.9988C18.2468 47.0046 18.9576 47.0845 19.7205 47.2283C19.0445 47.2185 18.3146 47.1465 17.5613 46.9988ZM56.3386 45.8005C56.2824 46.0151 56.1458 46.189 55.9666 46.4148C55.792 46.5814 55.6603 46.6964 55.531 46.8093C55.5335 46.8075 55.5378 46.8025 55.5378 46.8025C55.132 46.8499 54.7255 46.8981 54.2712 46.8904C54.9012 46.4768 55.58 46.1182 56.3386 45.8005ZM58.9333 46.5525C59.0832 46.5674 59.2573 46.6462 59.4236 46.8113C59.2634 46.8038 59.11 46.7101 58.9333 46.5525ZM15.366 46.5662C15.9065 46.5767 16.4713 46.6594 17.0876 46.8064C16.5564 46.7929 15.9731 46.7161 15.366 46.5662ZM14.0164 46.3621C13.4866 46.4855 12.9032 46.5505 12.2986 46.5427C12.8391 46.4144 13.401 46.3591 14.0164 46.3621ZM35.1218 43.5593C35.2339 44.4153 35.2718 45.3276 35.2546 46.3113C35.1491 45.4603 35.0981 44.538 35.1218 43.5593ZM64.447 45.2917C64.4162 45.4861 64.3156 45.7016 64.1492 45.9216C64.181 45.7219 64.2796 45.5171 64.447 45.2917ZM59.8591 45.2976C59.8189 45.4233 59.7098 45.5572 59.5291 45.6931C59.5682 45.5656 59.6796 45.4353 59.8591 45.2976ZM8.8269 44.4538C8.98666 44.4385 9.14966 44.5031 9.33374 44.6355C9.18015 44.6468 9.00482 44.5902 8.8269 44.4538ZM64.5583 36.1326C64.7298 36.6009 65.007 37.1736 64.9968 37.741C64.956 40.0197 64.8268 42.2969 64.656 44.6081C64.5656 41.8393 64.5488 39.0367 64.5583 36.1326ZM61.4832 44.2048C61.4348 44.2475 61.3849 44.2883 61.3337 44.3279C61.2627 44.3828 61.1882 44.4338 61.1121 44.4841C61.2418 44.3974 61.3683 44.3073 61.4841 44.2048H61.4832ZM59.3894 43.0632C59.3687 43.2025 59.2809 43.3581 59.1179 43.5154C59.1355 43.3717 59.2295 43.2249 59.3894 43.0632ZM61.9031 43.031C61.9746 43.0943 62.0394 43.1635 62.0623 43.2048C62.0394 43.1635 61.9746 43.0943 61.9031 43.031ZM59.7927 42.5603C59.781 42.7122 59.6968 42.881 59.532 43.0525C59.5407 42.8961 59.6308 42.7363 59.7927 42.5603ZM61.6658 42.8894L61.6648 42.8904L61.6658 42.8894ZM60.6599 40.8435C60.6786 40.9868 60.6389 41.156 60.5271 41.3347C60.5036 41.1859 60.5529 41.0276 60.6599 40.8435ZM46.9187 40.8191C46.0139 41.0235 45.0513 41.1684 43.991 41.2869C44.8822 41.0934 45.8719 40.9266 46.9187 40.8191ZM49.3386 40.4421C49.0263 40.5965 48.6263 40.7275 48.1433 40.8357C48.457 40.6818 48.8543 40.5499 49.3386 40.4421ZM22.198 40.5476C22.893 40.5336 23.6309 40.5914 24.3923 40.7312C23.6915 40.7488 22.9653 40.6837 22.198 40.5476ZM51.5066 39.9919C51.2059 40.1592 50.8176 40.3063 50.3455 40.4353C50.6474 40.269 51.0334 40.12 51.5066 39.9919ZM53.2605 39.5535C52.9601 39.7186 52.5726 39.8643 52.1003 39.9929C52.4017 39.829 52.7873 39.6808 53.2605 39.5535ZM55.0505 39.1345C54.7422 39.2963 54.3443 39.437 53.8591 39.5593C54.1683 39.3986 54.5646 39.2557 55.0505 39.1345ZM33.8005 37.5622C32.7998 37.0979 32.5765 38.1585 31.9197 38.5749C32.2733 38.8476 32.8542 39.215 32.989 39.0925C33.3644 38.7507 33.5544 38.2052 33.8005 37.5622ZM56.8103 38.696C56.634 38.8464 56.3753 38.9775 56.0388 39.0945C56.2164 38.9459 56.4726 38.8112 56.8103 38.696ZM50.7244 38.3181C50.9741 38.3513 51.2388 38.4539 51.5447 38.6208C51.2956 39.1151 51.295 39.1155 50.7244 38.3181ZM58.3357 38.2537C58.0978 38.4185 57.7735 38.5632 57.3669 38.6931C57.6062 38.53 57.9279 38.3818 58.3357 38.2537ZM30.488 29.6902C24.3552 29.6239 18.2783 30.0906 12.1765 31.6804C11.8931 31.8658 11.6093 32.0513 11.2 32.2322C11.1416 32.2866 11.0827 32.3409 10.8787 32.3894C10.3369 32.4511 9.79469 32.5132 9.11011 32.5769C9.01965 32.6039 8.92884 32.6307 8.69507 32.6218C8.36075 32.9721 8.02646 33.3224 7.69214 33.6726C8.02644 33.3224 8.36128 32.9726 8.76733 32.6404C8.76503 32.8721 8.69101 33.0861 8.60132 33.3454C9.12106 33.2109 9.5581 33.0979 10.0691 32.9656C9.92219 33.6118 9.81521 34.0836 9.70093 34.6404C9.50378 34.3754 9.31289 34.0249 9.10718 33.6462C9.31289 34.0249 9.50319 34.3754 9.75757 34.781C9.75757 34.781 9.84238 34.7867 9.87573 34.906C9.95768 34.9926 10.0381 35.0798 10.1218 35.3142C10.1443 35.2937 10.1689 35.2732 10.1931 35.2497C10.2931 35.1479 10.333 35.1372 10.3728 35.1267C10.5422 35.1919 10.7117 35.2576 10.8865 35.3913C10.6941 35.8048 10.4963 36.1497 10.2087 36.4079C10.0069 36.3155 9.84045 36.261 9.68823 36.2165C9.83185 36.261 9.9763 36.3172 10.1218 36.4099C10.1248 36.484 10.1247 36.4957 10.1248 36.4978C10.1248 36.4978 10.1259 36.4985 10.2986 36.4949C10.4964 36.1498 10.6944 35.8048 11.0212 35.4851C11.1519 35.4943 11.2824 35.5036 11.5544 35.6072C11.6667 35.6007 11.7796 35.5934 12.0632 35.6306C12.9077 35.8091 13.7475 36.0149 14.5974 36.1619C17.8923 36.7314 21.19 37.2849 24.488 37.8357C24.8465 37.8956 25.2318 37.8385 25.5759 37.9363C28.4717 38.7595 29.1946 38.5321 30.9939 36.1687C31.2291 35.8598 31.4832 35.5611 31.6804 35.2292C31.7874 35.0492 31.793 34.8088 31.8816 34.4372C30.2948 34.9603 28.8969 35.4902 27.4597 35.8728C26.2431 36.1967 24.9638 37.1274 23.741 35.9343C23.0902 35.2994 22.5551 34.5461 21.8884 33.7517C25.0693 31.4269 28.9256 31.5414 32.3298 30.1169C31.731 29.8894 31.1104 29.6969 30.488 29.6902ZM50.6677 38.2078C50.4696 38.2621 50.2266 38.2756 49.8953 38.2644C50.0788 38.2156 50.351 38.191 50.6677 38.2078ZM59.4128 37.8054C59.2486 37.9699 59.0032 38.1187 58.6804 38.2566C58.8459 38.0938 59.0887 37.9417 59.4128 37.8054ZM57.655 37.3953C57.4885 37.5504 57.2425 37.6938 56.9148 37.821C57.0807 37.6646 57.3279 37.5237 57.655 37.3953ZM60.28 37.3611C60.1842 37.5203 60.0118 37.6667 59.7673 37.8015C59.8645 37.6427 60.0342 37.4955 60.28 37.3611ZM58.7527 36.9509C58.6462 37.101 58.4627 37.2403 58.2009 37.365C58.307 37.2136 58.4914 37.0769 58.7527 36.9509ZM59.3933 36.4822C59.3611 36.6181 59.2575 36.7721 59.075 36.9177C59.1045 36.7735 59.2134 36.6361 59.3933 36.4822ZM61.3279 36.0339C61.4008 35.9986 61.4393 36.0403 61.45 36.1287C61.4569 36.3082 61.4527 36.3997 61.449 36.491C61.3762 36.5267 61.3032 36.5622 61.1726 36.6179C61.1614 36.4483 61.2083 36.2588 61.3279 36.0339ZM8.44312 36.4822C8.40111 36.5197 8.36105 36.5591 8.323 36.6003L8.44312 36.4831C8.48516 36.4456 8.52871 36.4093 8.57397 36.3747L8.44312 36.4822ZM61.53 35.5906C61.7807 35.5661 61.9855 35.6147 62.2722 35.6619C62.2818 35.7906 62.2092 35.9209 61.988 36.031C61.9319 36.0317 61.8823 36.0358 61.8376 36.0378C61.866 36.0367 61.8962 36.0347 61.9285 36.0349C62.0092 36.1545 62.0008 36.25 61.9578 36.4079C61.8174 36.4889 61.7119 36.5069 61.5281 36.5076C61.4534 36.3989 61.4567 36.308 61.4695 36.1492C61.5649 36.0819 61.6553 36.0507 61.78 36.0398C61.6447 36.0479 61.5563 36.0583 61.4587 36.0603C61.4401 36.0409 61.4051 36.0031 61.4011 35.9988C61.4289 35.8873 61.456 35.7753 61.53 35.5906ZM6.59155 33.0466C6.31836 34.0234 5.96957 34.9926 5.5564 36.0095C5.12557 34.811 5.799 33.9178 6.59155 33.0466ZM11.4841 35.5603C11.5689 35.4959 11.7241 35.4782 11.8855 35.5242C11.7792 35.5939 11.667 35.6009 11.4841 35.5603ZM9.85913 34.8464C10.0056 34.8527 10.1689 34.9186 10.3523 35.0554C10.3328 35.1369 10.2931 35.1475 10.1921 35.1667C10.046 35.0857 9.96079 34.9959 9.85913 34.8464ZM10.9519 32.3923C10.4758 32.4927 9.92645 32.5907 9.31519 32.6316C9.79482 32.5133 10.3371 32.451 10.9519 32.3923ZM12.2537 31.6931C12.0487 31.9005 11.7662 32.0955 11.405 32.2634C11.6093 32.0515 11.8932 31.8656 12.2537 31.6931ZM59.5066 30.2068C60.6311 30.7588 61.7806 31.3839 62.9324 32.0847C61.8005 31.5333 60.6657 30.907 59.5066 30.2068ZM55.0222 31.4402C55.3209 31.4735 55.6549 31.5701 55.9958 31.7468C55.6881 31.7193 55.3722 31.611 55.0222 31.4402ZM10.9587 30.0925C10.3378 30.5242 9.67163 30.9064 8.92456 31.28C9.53329 30.8618 10.2238 30.4527 10.9587 30.0925ZM52.8386 30.9656C53.2509 30.9749 53.6963 31.0488 54.1804 31.198C53.7703 31.192 53.3206 31.1114 52.8386 30.9656ZM50.5476 30.6042C51.1191 30.6064 51.7489 30.6622 52.4226 30.7908C51.8466 30.795 51.2258 30.7264 50.5476 30.6042ZM45.1833 30.0788C44.9609 30.2539 44.6993 30.3793 44.366 30.4734C44.5775 30.3046 44.861 30.1667 45.1833 30.0788ZM38.9441 29.1218C38.2755 29.2695 37.6069 29.4173 36.8142 29.6775C36.934 29.9322 37.0311 30.3877 37.1775 30.404C37.5948 30.4507 38.0604 30.3896 38.4519 30.2331C38.7417 30.1173 38.9453 29.7852 39.1873 29.5496C39.1063 29.4071 39.025 29.2643 38.9441 29.1218ZM46.6042 30.156C47.3383 30.1742 48.1349 30.2466 48.9636 30.3923C48.2194 30.3809 47.4432 30.295 46.6042 30.156ZM56.8992 29.281C57.5828 29.4468 58.3137 29.6762 59.0632 29.9783C58.3704 29.8153 57.6579 29.5802 56.8992 29.281ZM55.5613 28.9089C55.8287 28.9044 56.1262 28.9701 56.4373 29.1013C56.1645 29.1042 55.8776 29.0418 55.5613 28.9089ZM53.7927 28.4822C54.2059 28.4835 54.6366 28.566 55.0906 28.7165C54.6794 28.7109 54.2446 28.637 53.7927 28.4822ZM31.9109 16.196C29.9332 16.2471 28.3095 17.1965 27.1013 18.7302C26.5935 19.3749 26.4543 20.1746 26.8425 21.0662C27.6369 22.8901 28.9882 24.1755 30.6189 25.4079C30.7405 25.5087 30.8619 25.6098 30.9802 25.7331C30.9802 25.7331 31.003 25.7303 31.0066 25.8855C30.4884 26.4586 30.6352 27.0026 31.1511 27.448C32.4225 28.5455 33.7951 29.1556 35.2917 28.2136C34.6927 27.7122 34.0572 27.1797 33.6208 26.6462H36.6531C36.5658 25.8272 36.5107 25.1472 36.4177 24.4724C36.0437 21.758 35.2606 19.1934 33.4226 17.0867C33.0497 16.6593 32.4134 16.1831 31.9109 16.196ZM22.5574 27.448C21.7343 27.6445 20.8407 27.7944 19.8484 27.9197C20.6621 27.7305 21.5744 27.5659 22.5574 27.448ZM51.5037 20.0701C50.1814 17.2751 46.2431 16.6999 44.3054 19.0749C42.5927 21.1742 40.8426 23.2922 40.5867 26.1521C40.5626 26.4213 40.9944 26.9194 41.2908 26.99C41.8794 27.13 42.5214 27.0461 43.3552 27.0564C44.0103 27.0423 44.7638 27.2337 45.3025 26.9763C46.937 26.1945 48.5522 25.3331 50.0544 24.324C51.502 23.3516 52.0879 21.305 51.5037 20.0701ZM30.5847 25.3542C30.6949 25.3891 30.839 25.4779 30.9832 25.6384C30.8618 25.6092 30.7401 25.509 30.5847 25.3542ZM49.3787 16.0994C50.8096 17.4073 52.2409 18.7159 53.7234 20.071C53.8966 19.1551 53.8102 18.2893 53.0369 17.657C52.3429 17.0896 51.5752 16.6123 50.7087 16.0037C50.3168 15.9321 49.9249 15.8603 49.533 15.7888C49.4816 15.8923 49.4301 15.9958 49.3787 16.0994ZM30.9578 14.6765C29.8657 13.8735 27.5401 14.6868 26.6355 16.2976C26.9892 16.3254 27.3222 16.4522 27.5613 16.3533C28.6968 15.8818 29.8074 15.3486 30.9578 14.6765Z" fill="#E70D3D"/>
</svg>
