<svg width="70" height="75" viewBox="0 0 70 75" fill="none" xmlns="http://www.w3.org/2000/svg">
<g clip-path="url(#clip0_13_49)">
<path d="M10.575 10.8568C9.93777 11.5817 9.29295 12.416 9.16006 12.7915C8.96647 13.2726 8.44354 13.1261 7.27296 12.3297C5.54551 11.1097 4.10149 11.1736 4.01353 12.4316C3.95998 13.1973 5.65586 16.3939 7.63613 19.3355C8.50701 20.6056 8.86694 20.7957 9.74645 20.4175C11.0695 19.7954 13.1183 16.421 13.7755 13.8837C14.7975 9.94285 12.9492 8.1647 10.575 10.8568ZM13.0982 12.1325C13.0294 13.117 11.1704 16.065 10.6399 16.0279C10.4276 16.013 10.2121 15.2835 10.171 14.3462C10.073 13.4599 10.172 12.8073 10.2666 12.9788C10.4143 13.154 10.8655 12.8008 11.3321 12.2288C12.3258 10.9792 13.1824 10.9292 13.0982 12.1325Z" fill="#FCEAEE"/>
</g>
<g clip-path="url(#clip1_13_49)">
<path d="M59.2212 47.081C59.1367 47.527 58.8734 48.243 58.5767 48.6741C58.1622 49.2665 57.8439 49.2442 56.8911 48.3868C55.5826 47.2785 54.9009 47.1178 54.8498 47.8486C54.8302 48.1297 55.6239 48.976 56.5846 49.721C57.5452 50.4661 58.3429 51.2562 58.3271 51.4811C58.3114 51.7059 56.9421 52.2315 55.3075 52.7386C51.9361 53.6891 50.9812 55.1475 54.109 54.6319C55.6178 54.3984 55.9852 54.4806 55.9341 55.2114C55.883 55.9422 55.9891 55.9496 56.8929 55.222C58.4233 53.9168 59.2033 54.1973 59.0736 56.0523C58.9675 57.5701 59.6767 58.8624 60.3034 58.2848C60.4174 58.1798 60.6472 57.1791 60.7789 56.0586L60.9735 54.0386L62.9106 55.3038C63.9852 55.9438 65.2229 56.5388 65.7003 56.5722C67.0265 56.6649 64.6454 54.1259 63.221 53.9133C61.6866 53.7495 62.1405 52.595 64.4569 50.7234C66.0935 49.4257 66.1013 49.3133 65.0443 49.1829C64.4078 49.1383 63.8439 48.8165 63.7575 48.528C63.675 48.1833 63.0758 48.3673 62.3921 48.9974C60.7516 50.3514 60.6985 50.3476 59.95 48.0923C59.5925 47.107 59.2526 46.6313 59.2212 47.081Z" fill="#FCEAEE"/>
</g>
<g clip-path="url(#clip2_13_49)">
<path d="M40.8325 2.72954C34.9694 2.69526 34.4662 2.70182 33.8118 3.0735C33.0294 3.47798 32.606 6.53746 31.7179 18.0386C30.9025 28.5012 30.9123 28.961 31.6931 32.7727C32.6331 37.3051 33.3109 38.396 35.1454 38.5243C35.9375 38.5797 36.6259 38.92 36.8441 39.3945C37.2534 40.1328 37.3692 45.0668 37.1448 51.2709C37.0761 52.8525 37.1558 54.1104 37.3642 54.125C37.6978 54.1483 37.4276 58.0116 36.7048 63.5549L36.2291 67.362L34.8746 67.5595C33.0557 67.8081 32.7911 67.9983 33.3283 68.7038C33.6716 69.187 33.5766 69.3472 32.9783 69.5141C32.5081 69.6483 31.812 70.017 31.4135 70.3231C30.6641 70.8552 30.6583 70.9383 31.3322 71.4863C32.0808 72.1648 36.6611 72.5686 40.7401 72.3529C42.9701 72.2166 43.4015 72.0381 44.7122 70.6687C46.469 68.913 46.4748 68.8299 45.6602 67.8963C45.2753 67.4102 44.2892 67.1325 42.7048 67.0217L40.3284 66.8556L40.4116 65.0664C40.4785 64.1109 40.5189 61.7343 40.4888 59.7702C40.4585 57.8061 40.6189 52.5158 40.8939 47.9848L41.3051 39.7065L42.9223 38.1498C45.5264 35.6602 46.9688 33.0059 47.7335 29.2606C48.8761 23.705 49.8915 16.9717 49.6704 16.5388C49.6015 16.3252 49.6654 13.6164 49.8803 10.5423C50.2706 5.56023 50.2337 4.88974 49.584 4.59385C49.2175 4.44298 48.6182 4.02538 48.3022 3.75282C47.3984 2.89647 46.1118 2.72301 40.8325 2.72954ZM47.3986 4.69149C48.63 5.65424 45.7659 5.8714 40.6582 5.22202C36.3367 4.71112 35.6667 4.70602 35.8374 5.26063C35.9781 5.64616 36.6694 5.94497 37.7922 6.06522C38.7482 6.17383 40.9908 6.45587 42.7303 6.7445C45.3007 7.13295 46.0987 7.10527 46.9285 6.62061C48.7639 5.53837 48.8298 5.79344 48.301 11.5589C48.0472 14.5886 47.7876 17.7013 47.6966 18.4045C47.6443 19.1523 47.3922 19.7608 47.1421 19.7433C46.8502 19.7229 46.8017 19.2186 47.0324 18.3164C47.4793 16.7196 46.7869 15.8362 45.9192 16.8609C45.0515 17.8856 44.6938 17.6101 45.0368 16.2983C45.315 15.3159 45.2073 15.0578 44.4714 14.7977C43.9798 14.6381 43.5154 14.6891 43.4175 14.891C43.1209 15.5382 40.0085 15.1118 38.4765 14.2532C35.8566 12.776 35.7083 13.0995 35.0518 22.4879C34.4127 31.627 34.5321 33.5138 35.7403 34.809C38.1567 37.3991 42.3926 34.9401 44.3429 29.8167C44.9507 28.3147 45.4451 26.6377 45.4799 26.1392C45.5119 25.6822 45.7696 24.9906 46.0431 24.6758C46.5035 24.0818 46.1819 27.4824 45.4986 30.0645C44.573 33.715 40.7068 38.0784 38.4971 37.9238C37.8301 37.8772 37.1329 37.6614 36.9002 37.3947C36.7063 37.1724 36.0983 36.8795 35.5204 36.7556C34.6536 36.5697 34.4742 36.1397 34.0648 33.6064C33.8 32.0016 33.4885 29.2665 33.3574 27.5457C33.0681 23.8938 34.5294 4.79346 35.1092 4.29133C35.8644 3.67622 46.4832 4.00131 47.3986 4.69149ZM40.7808 20.843C40.6385 22.8786 40.3323 24.8608 40.0919 25.3032C39.8515 25.7457 39.6644 26.0248 39.6314 25.8973C39.5343 24.8885 39.8643 17.7733 40.0514 17.4942C40.7911 16.5023 41.0462 17.6473 40.7808 20.843ZM37.9377 17.7638C38.4148 18.1312 38.2504 22.8786 37.7501 22.8436C37.5833 22.8319 37.3525 21.9392 37.3059 20.8088C37.2146 19.717 37.0904 18.4978 36.9944 18.0736C36.7965 17.3084 37.1834 17.1684 37.9377 17.7638ZM39.7349 44.1885C39.1344 51.5771 39.0434 52.2803 38.8882 52.1026C38.8106 52.0136 38.7097 50.462 38.7095 48.667C38.7093 46.8719 38.6316 44.988 38.5831 44.4837C38.4928 43.9765 38.4103 42.7601 38.355 41.7544C38.2181 40.1167 38.3102 39.998 39.144 40.0563C40.0613 40.1204 40.0971 40.2064 39.7349 44.1885ZM38.8912 64.0417C39.0107 65.9285 38.7151 67.1602 38.1314 67.1193C37.9646 67.1077 37.8763 65.9745 37.9305 64.6007C38.0921 61.6899 38.6603 61.3539 38.8912 64.0417ZM43.6146 69.5901C42.9195 70.5433 42.5355 70.6416 39.8411 70.829C37.9058 70.9441 37.742 70.8909 37.7972 70.1016C37.8466 69.3954 38.1946 69.2111 39.8768 69.1199C40.9724 69.0296 42.068 68.9392 42.2823 68.8707C42.5383 68.8051 43.0444 68.757 43.4613 68.7861C44.0896 68.7883 44.0809 68.9129 43.6146 69.5901ZM36.943 70.3341C36.9198 70.6664 34.7082 71.1379 34.4367 70.8267C34.4008 70.7407 34.4599 70.4944 34.6441 70.2568C35.0154 69.7401 36.9808 69.794 36.943 70.3341Z" fill="#FCEAEE"/>
</g>
<defs>
<clipPath id="clip0_13_49">
<rect width="10" height="11.25" fill="white" transform="translate(4.25502 8.97803) rotate(4)"/>
</clipPath>
<clipPath id="clip1_13_49">
<rect width="13.99" height="11.44" fill="white" transform="translate(52.7594 46.4529) rotate(4)"/>
</clipPath>
<clipPath id="clip2_13_49">
<rect width="18" height="70" fill="white" transform="translate(32.8146 1.95312) rotate(4)"/>
</clipPath>
</defs>
</svg>
