<svg width="65" height="70" viewBox="0 0 65 70" fill="none" xmlns="http://www.w3.org/2000/svg">
<g clip-path="url(#clip0_68_2)">
<path d="M6.43559 10.4336C5.85052 11.2012 5.26548 12.0785 5.1591 12.4623C4.99955 12.9557 4.46768 12.8461 3.24439 12.1333C1.43604 11.0367 0 11.2012 0 12.4623C0 13.2299 1.91473 16.3003 4.09537 19.0966C5.05272 20.3029 5.42504 20.4674 6.27603 20.0287C7.5525 19.316 9.36085 15.8069 9.83953 13.2299C10.5841 9.22731 8.61624 7.58243 6.43559 10.4336ZM9.04172 11.5302C9.04172 12.5171 7.39294 15.5875 6.86108 15.5875C6.64833 15.5875 6.3824 14.8748 6.27603 13.9427C6.11646 13.0654 6.16965 12.4074 6.27603 12.5719C6.43559 12.7364 6.86107 12.3526 7.28657 11.7495C8.19074 10.4336 9.04172 10.3239 9.04172 11.5302Z" fill="#E70D3D"/>
</g>
<g clip-path="url(#clip1_68_2)">
<path d="M57.49 43.176C57.4368 43.6268 57.2241 44.3594 56.9582 44.8102C56.586 45.43 56.2669 45.43 55.2566 44.6411C53.8741 43.6268 53.1828 43.5141 53.1828 44.2467C53.1828 44.5284 54.0336 45.3173 55.0439 45.9935C56.0542 46.6698 56.905 47.4023 56.905 47.6277C56.905 47.8531 55.5757 48.473 53.9804 49.0928C50.6836 50.2762 49.8328 51.7977 52.9169 51.0651C54.4058 50.727 54.778 50.7833 54.778 51.5159C54.778 52.2485 54.8844 52.2485 55.7352 51.4596C57.1709 50.0508 57.9685 50.2762 57.9685 52.1358C57.9685 53.6572 58.7662 54.8969 59.3511 54.2771C59.4574 54.1644 59.6169 53.1501 59.6701 52.023L59.7233 49.9944L61.7439 51.1214C62.8606 51.6849 64.1368 52.1921 64.6153 52.1921C65.9448 52.1921 63.3924 49.8254 61.9566 49.7127C60.4146 49.6563 60.7868 48.473 62.967 46.4444C64.509 45.0356 64.509 44.9229 63.4455 44.8665C62.8074 44.8665 62.2225 44.5848 62.1162 44.303C62.0098 43.9649 61.4249 44.1903 60.7868 44.8665C59.2447 46.3316 59.1915 46.3316 58.2876 44.134C57.8622 43.176 57.49 42.7252 57.49 43.176Z" fill="#E70D3D"/>
</g>
<g clip-path="url(#clip2_68_2)">
<path d="M36.0525 0.215229C30.2014 0.590016 29.6998 0.631657 29.0729 1.04808C28.3206 1.50615 28.1117 4.58772 28.0281 16.1228C27.9445 26.6168 27.9863 27.0748 29.0311 30.8227C30.285 35.2785 31.0372 36.3195 32.8762 36.3195C33.6703 36.3195 34.3807 36.611 34.6315 37.0691C35.0912 37.777 35.551 42.6909 35.7599 48.8956C35.8017 50.4781 35.9689 51.7274 36.1779 51.7274C36.5122 51.7274 36.5122 55.6001 36.1779 61.1803L35.9689 65.0114L34.6315 65.3029C32.8344 65.6777 32.5836 65.8859 33.1687 66.5522C33.5449 67.0103 33.4613 67.1768 32.8762 67.385C32.4164 67.5516 31.7477 67.968 31.3716 68.3012C30.6611 68.8842 30.6611 68.9675 31.3716 69.4672C32.1657 70.0918 36.763 70.1751 40.817 69.6754C43.0321 69.3839 43.45 69.1757 44.662 67.7182C46.292 65.8443 46.292 65.761 45.4143 64.8865C44.9964 64.4284 43.9933 64.2202 42.4051 64.2202H40.0229L39.9811 62.4296C39.9811 61.4718 39.8557 59.0981 39.6886 57.1409C39.5214 55.1837 39.3124 49.8951 39.2706 45.356L39.1034 37.0691L40.608 35.4034C43.0321 32.7382 44.2859 29.9898 44.7874 26.2003C45.5397 20.5785 46.083 13.7908 45.8322 13.3743C45.7486 13.1661 45.6233 10.4594 45.6233 7.37778C45.6651 2.38065 45.5815 1.71436 44.9128 1.46451C44.5366 1.33958 43.9097 0.964802 43.5754 0.714947C42.6141 -0.0762675 41.3185 -0.159557 36.0525 0.215229ZM42.7395 1.71436C44.0351 2.58887 41.1931 3.00529 36.0525 2.71379C31.7059 2.50558 31.0372 2.54723 31.2462 3.08858C31.4134 3.46336 32.1239 3.71322 33.2523 3.75486C34.2136 3.79651 36.4704 3.92143 38.2258 4.08801C40.817 4.29622 41.6111 4.21294 42.4051 3.67158C44.1605 2.46394 44.2441 2.71379 44.1187 8.50214C44.0769 11.5421 44.0351 14.6653 43.9933 15.3732C43.9933 16.1228 43.7843 16.7474 43.5336 16.7474C43.241 16.7474 43.1574 16.2477 43.3246 15.3316C43.659 13.7075 42.9067 12.8746 42.1126 13.9573C41.3185 15.0401 40.9424 14.7902 41.1931 13.4576C41.4021 12.4582 41.2767 12.2083 40.5244 12.0001C40.0229 11.8752 39.5632 11.9585 39.4796 12.1667C39.2288 12.833 36.0943 12.6248 34.5061 11.8752C31.7895 10.5843 31.6641 10.9174 31.6641 20.3287C31.6641 29.4901 31.9149 31.364 33.2105 32.5717C35.8017 34.987 39.8557 32.2385 41.4439 26.9915C41.9454 25.4508 42.3216 23.7434 42.3216 23.2437C42.3216 22.7856 42.5305 22.0777 42.7813 21.7445C43.1992 21.1199 43.1156 24.5346 42.6141 27.1581C41.9454 30.8643 38.3929 35.4867 36.1779 35.4867C35.5092 35.4867 34.7987 35.3201 34.5479 35.0702C34.339 34.862 33.712 34.6122 33.1269 34.5289C32.2493 34.404 32.0403 33.9875 31.4552 31.489C31.079 29.9065 30.5775 27.1998 30.3268 25.4924C29.7834 21.8695 29.9088 2.71379 30.4521 2.17244C31.1626 1.50615 41.7782 1.08972 42.7395 1.71436ZM37.2645 18.2882C37.2645 20.3287 37.0973 22.3275 36.8884 22.7856C36.6794 23.2437 36.5122 23.5352 36.4704 23.4103C36.3033 22.4108 36.1361 15.2899 36.3033 14.9984C36.972 13.9573 37.3063 15.0817 37.2645 18.2882ZM34.2136 15.4148C34.7151 15.748 34.8823 20.4953 34.3807 20.4953C34.2136 20.4953 33.921 19.6208 33.7956 18.4964C33.6285 17.4137 33.4195 16.2061 33.2941 15.7896C33.0433 15.0401 33.4195 14.8735 34.2136 15.4148ZM37.8496 41.6498C37.766 49.0622 37.7242 49.7701 37.5571 49.6036C37.4735 49.5203 37.2645 47.9795 37.1391 46.1889C37.0137 44.3982 36.8048 42.5243 36.7212 42.0246C36.5958 41.5249 36.4286 40.3172 36.3033 39.3178C36.0525 37.6937 36.1361 37.5688 36.972 37.5688C37.8914 37.5688 37.9332 37.6521 37.8496 41.6498ZM38.3929 61.5134C38.6437 63.3873 38.4347 64.6366 37.8496 64.6366C37.6825 64.6366 37.5153 63.5123 37.4735 62.1381C37.4317 59.2231 37.975 58.8483 38.3929 61.5134ZM43.4918 66.7188C42.8649 67.7182 42.4887 67.8431 39.8139 68.2179C37.8914 68.4678 37.7242 68.4261 37.7242 67.6349C37.7242 66.927 38.0586 66.7188 39.7303 66.5105C40.817 66.344 41.9036 66.1774 42.1126 66.0941C42.3634 66.0108 42.8649 65.9275 43.2828 65.9275C43.9097 65.8859 43.9097 66.0108 43.4918 66.7188ZM36.8884 67.9264C36.8884 68.2595 34.7151 68.8842 34.4225 68.5927C34.3807 68.5094 34.4225 68.2595 34.5897 68.0097C34.9241 67.4683 36.8884 67.385 36.8884 67.9264Z" fill="#E70D3D"/>
</g>
<defs>
<clipPath id="clip0_68_2">
<rect width="10" height="11.25" fill="white" transform="translate(0 9.00024)"/>
</clipPath>
<clipPath id="clip1_68_2">
<rect width="13.99" height="11.44" fill="white" transform="translate(51 43.0002)"/>
</clipPath>
<clipPath id="clip2_68_2">
<rect width="18" height="70" fill="white" transform="translate(28)"/>
</clipPath>
</defs>
</svg>
