<svg width="15" height="18" viewBox="0 0 15 18" fill="none" xmlns="http://www.w3.org/2000/svg">
<g clip-path="url(#clip0_1_51)">
<path d="M9.42725 1.25074C8.21676 2.16043 7.17919 3.48361 7.17919 4.1452C7.17919 4.80679 6.83333 5.30298 6.31455 5.30298C5.88223 5.30298 5.4499 4.97218 5.4499 4.55869C5.4499 4.1452 4.67173 3.649 3.72062 3.40091C1.38609 2.82202 -0.429653 5.38568 0.089132 8.52823C0.521452 11.4227 5.4499 17.2943 7.95736 17.9559C10.119 18.4521 12.6264 14.7306 14.3557 8.36283C16.2579 1.49883 13.7505 -2.05721 9.42725 1.25074ZM13.5775 5.05488C12.4535 9.35522 8.822 16.1365 7.78444 15.8057C6.14162 15.3095 2.85598 10.1822 2.85598 8.28014C2.85598 6.79156 3.11537 6.87426 5.10405 9.18982C7.8709 12.6632 8.90847 12.6632 8.90847 9.18982C8.90847 6.12997 10.9836 2.82202 12.8858 2.82202C13.8369 2.82202 14.0098 3.40091 13.5775 5.05488Z" fill="#FCEAEE"/>
</g>
<defs>
<clipPath id="clip0_1_51">
<rect width="15" height="18" fill="white"/>
</clipPath>
</defs>
</svg>
