<svg width="50" height="54" viewBox="0 0 50 54" fill="none" xmlns="http://www.w3.org/2000/svg">
<g clip-path="url(#clip0_1_57)">
<mask id="mask0_1_57" style="mask-type:luminance" maskUnits="userSpaceOnUse" x="0" y="-1" width="50" height="55">
<path d="M0.00387573 -0.000366211H49.7755V53.9897H0.00387573V-0.000366211Z" fill="white"/>
</mask>
<g mask="url(#mask0_1_57)">
<path d="M46 29.5736C42.1345 41.1453 35.3374 53.5437 27.9917 53.9963C24.5043 54.2119 20.0429 51.6031 15.8152 47.6078C11.245 43.2885 6.94557 37.3499 4.44925 31.6112C-1.81087 17.228 -1.40985 3.93438 5.34008 1.90961C9.29149 0.725898 15.6948 3.09763 20.3882 8.74208C22.0824 10.7811 23.5548 13.2471 24.6073 16.1257C24.8423 15.6631 25.0799 15.2062 25.3235 14.7578C30.4765 5.20948 37.2708 -0.78767 42.5413 0.0833455C45.2682 0.533132 47.1315 1.85822 48.2929 3.8544C51.312 9.04337 49.5963 18.7801 46 29.5736Z" fill="#E70D3D"/>
</g>
</g>
<defs>
<clipPath id="clip0_1_57">
<rect width="50" height="54" fill="white"/>
</clipPath>
</defs>
</svg>
