<svg width="11" height="12" viewBox="0 0 11 12" fill="none" xmlns="http://www.w3.org/2000/svg">
<g clip-path="url(#clip0_1_45)">
<path d="M7.10469 1.87875C6.4675 2.60368 5.82268 3.43801 5.6898 3.81346C5.49621 4.2946 4.97328 4.1481 3.8027 3.35172C2.07524 2.13166 0.631231 2.19557 0.543263 3.45358C0.489717 4.21932 2.18559 7.41587 4.16587 10.3575C5.03674 11.6276 5.39668 11.8176 6.27619 11.4394C7.59928 10.8174 9.648 7.44302 10.3053 4.9057C11.3273 0.964825 9.47891 -0.813324 7.10469 1.87875ZM9.62798 3.15446C9.55914 4.139 7.70018 7.08696 7.16962 7.04985C6.95738 7.03501 6.74183 6.30542 6.70073 5.36816C6.60275 4.48189 6.70171 3.82926 6.79635 4.00076C6.94405 4.17598 7.39527 3.8228 7.86181 3.25082C8.85556 2.00119 9.71213 1.95115 9.62798 3.15446Z" fill="#FCEAEE"/>
</g>
<defs>
<clipPath id="clip0_1_45">
<rect width="10" height="11.25" fill="white" transform="translate(0.78476) rotate(4)"/>
</clipPath>
</defs>
</svg>
