<svg width="75" height="75" viewBox="0 0 75 75" fill="none" xmlns="http://www.w3.org/2000/svg">
<path d="M7.22837 48.9962C8.29418 45.662 9.30732 42.4512 10.3925 39.265C10.9622 37.5924 12.418 36.9609 13.9712 36.4719C16.3819 35.7129 18.7726 34.8904 21.1848 34.1362C22.3022 33.7868 22.5065 33.2541 22.0519 32.1376C20.6803 28.769 19.9239 25.3043 20.4362 21.6026C21.0998 16.8079 23.5694 13.2787 27.8213 11.1784C32.7332 8.75208 37.4642 9.24387 41.9065 12.6395C44.9258 14.9474 47.117 17.6738 47.7888 21.5139C48.2642 24.2309 48.1242 26.8782 47.3975 29.5264C47.0634 30.7438 46.8495 31.994 46.4572 33.8001C49.0334 31.4063 50.9699 33.4283 52.9097 33.9752C56.1405 34.8862 59.2239 36.3198 62.369 37.5342C63.3384 37.9085 63.8621 38.6478 64.1869 39.6122C65.7629 44.2921 67.3703 48.9615 68.9559 53.6382C69.4151 54.9925 69.5188 56.3951 69.3627 57.8086C69.2933 58.4371 69.0925 59.11 68.347 59.1806C67.666 59.2452 67.4382 58.6287 67.24 58.0943C65.1519 52.4638 63.0858 46.8223 61.489 41.0309C61.0225 39.3394 59.6593 39.932 58.5272 39.2201C58.691 40.2135 59.1382 40.8927 58.7317 41.615C58.1563 42.0497 57.6859 41.6408 57.2051 41.3808C55.5754 40.4996 54.1045 39.3098 52.2753 38.8176C51.4513 38.5958 51.5112 37.8247 51.2201 37.0562C50.6894 39.5031 51.6887 41.611 51.9002 43.7882C52.2463 47.3517 52.9669 50.8782 53.4973 54.4251C53.5822 54.9929 53.8004 55.3923 54.3257 55.581C59.2421 57.3467 63.9559 59.6626 69.0308 60.996C69.1263 61.0211 69.2433 60.9645 69.3518 60.9444C69.4 60.8459 69.4665 60.7535 69.4904 60.6513C69.6421 60.0035 68.9266 58.9702 69.9627 58.7639C70.9555 58.5662 70.8021 59.7688 71.1462 60.3337C71.735 61.3003 72.0479 62.4007 72.0964 63.5408C72.1637 65.124 71.5034 65.6842 70.0436 65.1638C64.8012 63.2949 59.5613 61.4159 54.3598 59.4373C52.9328 58.8945 51.7967 58.8332 50.4073 59.653C47.1154 61.5955 43.6646 63.2674 40.3542 65.1805C38.8616 66.043 37.6173 65.6979 36.2564 65.0296C32.4695 63.1699 28.6501 61.3756 24.877 59.4884C23.8706 58.9851 23.0189 59.0254 21.9897 59.4153C16.21 61.6052 10.3997 63.7143 4.61195 65.8832C3.83519 66.1743 3.31472 65.9079 2.79678 65.4125C2.34077 64.9764 2.27688 64.5209 2.48145 63.8925C4.08069 58.9796 5.63645 54.0525 7.22837 48.9962ZM37.8743 42.584C39.2516 40.575 40.2129 38.3424 41.1955 36.1375C43.1311 31.7937 44.7807 27.3335 44.1427 22.4518C43.0097 13.7826 35.5993 11.4485 29.1766 14.5523C25.3456 16.4036 23.4345 22.2778 23.831 26.3533C24.1989 30.1359 26.4603 33.2727 27.1734 36.9188C27.2003 37.0564 27.3666 37.2441 27.4972 37.2721C28.7595 37.5431 29.1854 38.6827 29.8501 39.5476C31.5892 41.8104 33.6739 43.7458 35.7347 46.1091C36.4819 44.8819 37.1165 43.8396 37.8743 42.584ZM47.3807 37.2886C43.7972 37.6492 43.2955 40.6098 42.3404 43.0534C42.4946 43.731 43.2984 43.4097 43.3444 44.0636C43.1036 44.7 42.486 45.0138 41.9679 45.4332C40.7909 46.3859 39.5498 47.2428 38.5844 48.463C35.7403 52.058 35.086 52.0084 32.2553 48.3351C30.7411 46.3703 29.1658 44.4526 27.5272 42.3999C26.9834 44.8117 27.2178 46.9342 28.2595 48.9417C29.3604 51.0633 30.0479 53.1663 28.7355 55.4879C28.3605 56.1513 28.1796 56.9792 29.2106 57.486C31.8826 58.7996 34.5248 60.1736 37.1873 61.5069C37.8512 61.8393 38.5087 62.0139 39.2772 61.6406C42.8457 59.9071 46.2023 57.9508 48.548 54.5744C49.3798 53.3771 49.7844 52.2168 49.5668 50.8046C48.8822 46.3606 48.2044 41.9156 47.3807 37.2886ZM15.7066 57.9123C17.5192 57.3037 19.3288 56.686 21.1455 56.0899C22.2157 55.7388 22.8082 55.1312 22.8632 53.9013C22.9434 52.1079 23.153 50.3136 23.4222 48.5371C23.826 45.8715 24.3317 43.2215 24.7894 40.564C25.045 39.0797 25.0127 37.6659 23.7514 36.48C21.8231 37.5163 19.6881 37.8459 17.6656 38.5157C16.3133 38.9636 14.956 39.9245 13.3115 39.2177C12.7635 38.9821 12.5961 39.7378 12.4459 40.2301C12.0095 41.6604 12.4135 43.178 12.0326 44.59C10.913 48.7413 9.45534 52.8121 9.69666 57.2293C9.7474 58.1581 9.29697 59.1142 8.95842 60.5695C11.264 59.1884 13.4625 58.8977 15.7066 57.9123Z" fill="#E70D3D"/>
<path d="M33.2243 32.256C28.7972 31.0546 26.677 28.1685 27.2392 24.2936C27.6997 21.1195 31.4229 17.8594 34.4378 17.9904C37.6791 18.1313 41.1052 21.5611 41.2481 24.8959C41.4147 28.7849 37.6983 32.7342 33.2243 32.256ZM31.8198 22.6389C30.4807 23.9168 30.4832 25.4596 31.2115 26.9559C31.9383 28.449 33.4146 28.5107 34.8651 28.3672C36.4742 28.208 37.1086 27.0363 37.502 25.6879C37.931 24.2176 37.1596 23.1525 36.0703 22.3837C34.7594 21.4585 33.3509 21.481 31.8198 22.6389Z" fill="#E70D3D"/>
<path d="M63.2631 19.0587C62.6362 17.413 61.9883 15.9153 61.7792 14.2775C61.667 13.3983 61.6545 12.5535 62.5388 12.046C63.356 11.5771 64.2436 11.856 64.6933 12.4705C66.1692 14.4871 67.5662 14.3328 69.2669 12.7467C69.9365 12.1222 70.9694 12.0991 71.7623 12.7909C72.5709 13.4964 72.4524 14.3969 72.1012 15.2813C70.9896 18.0809 69.0133 20.2401 66.8116 22.1943C65.8738 23.0265 64.9284 22.7715 64.2599 21.6966C63.779 20.9235 63.4763 20.0782 63.2631 19.0587ZM68.4501 15.9377C68.2664 16.4809 68.1122 17.0252 68.2805 17.7711C69.3114 16.8766 70.3809 16.2646 70.3715 14.8182C69.5082 14.8038 69.0127 15.2186 68.4501 15.9377Z" fill="#E70D3D"/>
</svg>
