<svg width="53" height="49" viewBox="0 0 53 49" fill="none" xmlns="http://www.w3.org/2000/svg">
<g clip-path="url(#clip0_1_53)">
<path d="M39.2429 0.164034C39.0917 0.318276 36.9746 0.472519 34.4794 0.549644C30.1318 0.626765 29.9051 0.665326 28.3172 1.82215C24.272 4.67563 20.8317 10.1899 20.794 13.7374C20.794 14.5857 20.6427 14.6243 17.9964 14.6243H15.1988L15.5012 13.3518C15.6524 12.6963 16.1439 10.8839 16.6353 9.34148L17.5049 6.60367L15.7658 4.82988C14.7829 3.86586 13.989 2.9404 13.989 2.78617C13.989 1.74502 4.3864 3.09465 2.72296 4.32859C2.08028 4.82988 0.000976562 9.2258 0.000976562 10.0741C0.000976562 10.4212 0.37903 10.8454 0.8705 10.9996C1.81563 11.308 6.80595 16.3981 6.80595 17.0922C6.80595 17.3621 6.04984 18.3262 5.1047 19.2515C1.551 22.8378 0.416836 27.6578 1.70222 34.136C2.60954 38.8404 3.7059 41.1926 6.04984 43.4676C7.33522 44.7402 9.906 46.244 10.7755 46.244C11.0401 46.244 12.5902 46.6682 14.2158 47.2081C18.2988 48.5577 19.5464 48.4035 23.7427 46.1669C28.6952 43.5834 31.4928 40.4214 32.2868 36.4882C32.5136 35.5242 32.6648 35.447 34.5173 35.4085C37.088 35.3313 37.4661 35.2542 41.7759 33.8275C46.3504 32.2851 48.354 30.627 51.1516 26.0768C53.0798 22.9149 53.4578 19.1359 52.3615 14.0073C51.6431 10.7296 49.337 5.29261 48.1272 4.02011C46.9553 2.82472 45.2162 1.35942 44.2711 0.819569C43.2504 0.202594 39.621 -0.260133 39.2429 0.164034ZM43.2881 2.51623C44.9894 3.48025 46.6906 4.907 46.4638 5.13836C46.3881 5.25404 44.9515 4.63707 43.3259 3.78874C41.7003 2.97897 40.0369 2.28487 39.6588 2.28487C39.2808 2.28487 38.9405 2.09207 38.9405 1.89927C38.9405 1.20518 41.7003 1.59079 43.2881 2.51623ZM40.7929 4.02011C41.6247 4.29002 42.4186 4.40571 42.5698 4.29002C42.7211 4.13579 42.7211 4.21291 42.6076 4.44427C42.4564 4.7142 42.9101 5.17692 43.7418 5.56253C44.5357 5.94813 45.3674 6.48799 45.6321 6.75791C45.8967 7.02784 46.2747 7.29776 46.5016 7.37488C46.8797 7.49056 47.7492 10.3055 48.2784 13.3132C48.4296 14.123 48.5053 16.2824 48.4674 18.0947C48.3919 20.8711 48.2406 21.7195 47.2577 23.7246C46.615 25.0356 45.5564 26.5395 44.876 27.0794C43.7795 27.9277 42.7588 28.7761 41.2845 30.0871C41.0198 30.3185 40.8686 30.7426 40.982 31.0126C41.2466 31.7452 40.3771 31.9766 37.5039 31.938C34.2527 31.8994 33.1563 31.5525 33.0807 30.627C32.7782 27.812 31.1526 23.0691 29.8294 21.1411C28.2416 18.866 25.822 16.6295 24.3099 16.0896C23.2513 15.704 23.0623 15.4341 23.0623 14.4315C23.0623 13.776 23.2134 13.0819 23.3647 12.8505C23.5537 12.6577 23.894 11.7322 24.1586 10.7683C24.4233 9.80421 25.1416 8.03042 25.7465 6.79647C26.3513 5.56253 26.7672 4.40571 26.6916 4.25147C26.5782 4.09722 26.8428 3.98154 27.2965 4.02011C27.7501 4.05866 28.6952 3.86586 29.3758 3.6345C31.0392 3.05609 38.8271 3.28745 40.7929 4.02011ZM13.9512 4.79131C14.9341 6.29518 14.9341 6.33374 13.6109 6.64223C12.8926 6.79647 12.439 6.60367 11.7206 5.83245C9.67915 3.6345 9.67915 3.55738 11.456 3.51881C12.8926 3.4417 13.1194 3.59593 13.9512 4.79131ZM9.79257 5.83245C10.6621 6.91215 10.6621 7.0664 10.095 7.49056C9.75477 7.76049 8.99866 7.95329 8.43157 7.91474C7.48644 7.87617 7.37303 7.72193 7.44864 6.75791C7.63766 4.25147 8.35597 3.98154 9.79257 5.83245ZM5.67178 6.14094C5.48276 6.52654 5.29373 7.37488 5.29373 7.99186C5.29373 8.99443 5.14251 9.18724 3.93273 9.4186C3.17663 9.53428 2.45833 9.57285 2.34491 9.45717C1.96686 9.07156 3.85713 5.83245 4.68884 5.44685C5.74739 4.94556 6.16325 5.25404 5.67178 6.14094ZM14.367 10.0741C13.989 11.1924 13.5732 12.5806 13.4597 13.159C13.2329 14.2387 12.1365 14.6628 12.0609 13.7374C11.9474 12.5035 12.1743 8.99444 12.4012 8.76307C12.6657 8.53171 13.7622 8.18466 14.6316 8.10754C14.8963 8.06897 14.8206 8.72451 14.367 10.0741ZM11.078 10.4597C10.7755 12.1564 10.6999 12.195 9.83037 11.1538C8.69621 9.84278 8.88524 9.2258 10.4353 9.2258C11.2292 9.2258 11.3047 9.34148 11.078 10.4597ZM49.8663 11.8093C51.3785 17.0536 51.6809 20.5241 50.887 23.1848C49.9419 26.231 47.7492 29.2388 45.5943 30.5113C43.704 31.6681 42.9857 31.7067 43.8552 30.627C44.2711 30.1257 44.2333 30.0871 43.6284 30.2799C42.9101 30.5499 42.9101 30.5499 43.6284 29.7401C44.0442 29.2774 44.4223 28.9688 44.5357 29.046C44.8381 29.393 47.6357 26.0382 48.4297 24.3416C49.4882 22.1821 49.904 16.5138 49.2613 13.0819C48.4297 8.49315 48.7321 7.87617 49.8663 11.8093ZM9.22549 12.1564C9.98163 13.3518 10.5864 14.4701 10.5864 14.6243C10.5864 14.7786 10.0573 15.1256 9.41451 15.3955C8.24255 15.8968 8.20474 15.8582 6.39009 13.8145C5.40715 12.6577 4.57542 11.5395 4.53762 11.308C4.53762 10.9225 6.31447 10.1512 7.41083 10.0355C7.63766 9.99699 8.46938 10.961 9.22549 12.1564ZM12.8548 16.2053C12.3256 16.4366 11.456 16.8608 10.8889 17.1308C9.94376 17.632 9.79257 17.5934 9.45232 16.9765C9.26329 16.5909 9.14988 16.2053 9.26329 16.1282C9.33891 16.0511 10.3974 15.9354 11.6073 15.8968C13.4219 15.8582 13.6487 15.8968 12.8548 16.2053ZM20.5671 19.2901C20.6805 20.8326 21.361 23.6861 22.0037 25.7298C23.0244 28.8532 23.4781 29.7015 25.255 31.6681C26.5782 33.0948 27.7501 34.0203 28.4306 34.1745C29.4135 34.3674 29.5269 34.5216 29.3001 35.4085C29.1868 35.9483 28.6575 37.0666 28.1282 37.8379C27.2965 39.1875 26.6159 39.8815 23.3647 42.8507C21.6634 44.3931 17.5427 46.3597 16.5219 46.1284C11.7584 44.9715 9.26329 44.0075 7.25961 42.5422C6.84375 42.2337 4.53762 31.4367 4.53762 29.8172C4.53762 27.8891 5.36934 24.8814 6.57912 22.5292C7.2218 21.2182 8.88524 19.5601 11.3047 17.7863C12.9304 16.5909 13.1573 16.5524 16.6732 16.5524H20.3024L20.5671 19.2901ZM25.5952 19.1359C26.7293 20.0614 29.1868 25.9226 29.3758 28.1591C29.5269 29.5473 29.4135 30.01 28.9221 30.1642C28.0148 30.5499 25.6709 29.4316 25.444 28.5061C25.3306 28.082 25.1037 27.7349 24.9526 27.7349C24.8013 27.7349 24.3854 26.7323 24.0452 25.4984C23.6671 24.303 23.2513 22.8763 23.0623 22.3365C22.6086 20.9482 22.3061 18.5189 22.533 17.9405C22.6842 17.4778 22.911 17.5163 23.7427 17.9405C24.3099 18.249 25.1416 18.7888 25.5952 19.1359ZM8.09132 18.4033C8.20474 18.5575 7.56205 19.4059 6.73033 20.2541C5.86081 21.0639 4.61323 22.9534 3.93273 24.4572C2.76077 26.9637 2.68516 27.0794 2.68516 25.8069C2.72296 23.7632 3.06322 22.9534 4.87787 20.4084C6.39009 18.2876 7.56205 17.5549 8.09132 18.4033ZM30.2452 38.5319C29.3758 40.2672 27.1075 43.005 26.011 43.5834C25.1793 44.0461 25.0659 43.4676 25.8599 42.6579C28.0526 40.4599 30.2452 37.4908 30.4721 36.4882C30.7368 35.447 30.8124 35.4085 30.9258 36.1026C31.0014 36.5653 30.6989 37.645 30.2452 38.5319Z" fill="#FCEAEE"/>
</g>
<defs>
<clipPath id="clip0_1_53">
<rect width="52.97" height="48.07" fill="white"/>
</clipPath>
</defs>
</svg>
