<svg width="15" height="13" viewBox="0 0 15 13" fill="none" xmlns="http://www.w3.org/2000/svg">
<g clip-path="url(#clip0_1_47)">
<path d="M7.25999 0.628137C7.17549 1.07413 6.91221 1.79007 6.61554 2.22123C6.20098 2.81361 5.8827 2.79135 4.92987 1.9339C3.62145 0.82561 2.93973 0.664964 2.88863 1.39574C2.86897 1.6768 3.66266 2.52313 4.62335 3.26816C5.58405 4.0132 6.38167 4.80333 6.36595 5.02817C6.35022 5.25303 4.98086 5.77865 3.34626 6.28571C-0.0251048 7.23621 -0.979963 8.69462 2.14777 8.17898C3.65662 7.94556 4.02401 8.02775 3.97291 8.75852C3.92181 9.48929 4.02789 9.49671 4.93166 8.76908C6.46215 7.46389 7.24211 7.74438 7.11239 9.59943C7.00626 11.1172 7.71547 12.4095 8.3422 11.832C8.45615 11.7269 8.68605 10.7262 8.8177 9.60569L9.01226 7.58572L10.9494 8.85095C12.024 9.49097 13.2617 10.0859 13.7391 10.1193C15.0653 10.212 12.6842 7.67303 11.2598 7.46044C9.72543 7.29666 10.1793 6.14216 12.4957 4.27056C14.1323 2.9728 14.1401 2.86037 13.0831 2.72997C12.4466 2.68546 11.8827 2.36359 11.7963 2.0751C11.7138 1.73041 11.1146 1.91446 10.4309 2.54451C8.79036 3.89848 8.73731 3.89477 7.98883 1.6394C7.6313 0.654102 7.29143 0.178432 7.25999 0.628137Z" fill="#FCEAEE"/>
</g>
<defs>
<clipPath id="clip0_1_47">
<rect width="13.99" height="11.44" fill="white" transform="translate(0.798035) rotate(4)"/>
</clipPath>
</defs>
</svg>
